<?xml version="1.0" encoding="UTF-8" standalone="no"?><!-- Generator: Gravit.io --><svg xmlns="http://www.w3.org/2000/svg" xmlns:xlink="http://www.w3.org/1999/xlink" style="isolation:isolate" viewBox="497.92 37.691 177.159 114.36" width="177.159pt" height="114.36pt"><g><path d=" M 544.64 93.541 L 519.62 93.541 C 520.276 91.011 522.525 87.356 526.461 83.795 L 533.957 76.861 C 541.548 70.02 544.265 64.398 544.265 55.777 C 544.265 44.345 537.706 37.691 524.399 37.691 C 510.249 37.691 503.784 44.626 503.784 56.901 L 503.784 59.432 L 516.715 59.432 C 516.809 52.404 517.465 46.5 524.212 46.5 C 528.429 46.5 530.771 49.218 530.771 54.746 C 530.771 61.587 529.741 64.585 523.837 69.927 L 518.402 74.987 C 508.563 84.077 503.784 92.229 503.784 104.036 L 544.64 104.036 L 544.64 93.541 Z  M 564.131 68.802 C 564.131 51.748 565.536 46.5 571.44 46.5 C 577.25 46.5 578.749 50.342 578.749 67.022 L 578.749 74.237 C 578.749 91.292 577.343 96.54 571.44 96.54 C 565.63 96.54 564.131 92.698 564.131 76.018 L 564.131 68.802 Z  M 550.637 73.113 C 550.637 96.633 555.416 105.348 571.44 105.348 C 591.212 105.348 592.243 88.387 592.243 69.927 C 592.243 46.406 587.464 37.691 571.44 37.691 C 551.668 37.691 550.637 54.746 550.637 73.113 Z  M 624.478 104.036 L 624.478 37.691 L 614.545 37.691 C 613.233 45 607.798 48.374 598.989 48.374 L 597.771 48.374 L 597.771 57.183 L 610.984 57.183 L 610.984 104.036 L 624.478 104.036 Z  M 632.724 85.295 C 632.724 92.885 635.441 105.348 653.902 105.348 C 672.362 105.348 675.079 92.885 675.079 85.295 C 675.079 76.955 671.331 70.395 663.835 68.896 L 663.835 68.708 C 670.956 66.834 673.393 60.744 673.393 55.964 C 673.393 42.939 665.99 37.691 653.902 37.691 C 641.813 37.691 634.41 42.939 634.41 55.964 C 634.41 60.744 636.847 66.834 643.969 68.708 L 643.969 68.896 C 636.472 70.395 632.724 76.955 632.724 85.295 Z  M 647.342 55.59 C 647.342 49.592 649.497 46.5 653.902 46.5 C 658.306 46.5 660.461 49.592 660.461 55.59 C 660.461 61.774 657.837 64.867 653.902 64.867 C 649.966 64.867 647.342 61.774 647.342 55.59 Z  M 646.218 85.107 C 646.218 78.735 647.811 73.675 653.902 73.675 C 659.993 73.675 661.586 78.735 661.586 85.107 C 661.586 91.386 659.993 96.54 653.902 96.54 C 647.811 96.54 646.218 91.386 646.218 85.107 Z " fill="rgb(116,118,120)"/><path d=" M 497.92 138.958 L 497.92 140.561 C 497.92 147.854 501.456 152.051 510.461 152.051 C 519.079 152.051 524.162 148.294 524.162 139.954 C 524.162 135.146 522.615 132.107 516.648 129.512 L 510.516 126.859 C 507.146 125.424 506.428 123.932 506.428 121.501 C 506.428 119.18 507.367 116.915 510.958 116.915 C 513.996 116.915 515.267 119.071 515.267 122.771 L 522.891 122.771 L 522.891 121.666 C 522.891 114.099 517.753 111.06 510.682 111.06 C 503.168 111.06 498.472 114.981 498.472 122.661 C 498.472 129.236 501.732 132.163 508.803 134.594 C 514.052 136.417 515.875 137.743 515.875 141.333 C 515.875 144.648 513.555 146.195 511.124 146.195 C 506.925 146.195 505.875 143.82 505.875 140.118 L 505.875 138.958 L 497.92 138.958 Z  M 528.139 111.834 L 528.139 151.279 L 550.735 151.279 L 550.735 144.76 L 536.095 144.76 L 536.095 134.152 L 549.353 134.152 L 549.353 127.633 L 536.095 127.633 L 536.095 118.353 L 550.182 118.353 L 550.182 111.834 L 528.139 111.834 Z  M 553.054 151.279 L 561.341 151.279 L 563.164 142.936 L 573.661 142.936 L 575.484 151.279 L 583.771 151.279 L 573.329 111.834 L 563.496 111.834 L 553.054 151.279 Z  M 568.357 118.684 L 568.468 118.684 L 572.28 136.417 L 564.545 136.417 L 568.357 118.684 Z  M 584.986 138.958 L 584.986 140.561 C 584.986 147.854 588.522 152.051 597.527 152.051 C 606.145 152.051 611.228 148.294 611.228 139.954 C 611.228 135.146 609.681 132.107 603.714 129.512 L 597.582 126.859 C 594.212 125.424 593.494 123.932 593.494 121.501 C 593.494 119.18 594.433 116.915 598.024 116.915 C 601.063 116.915 602.333 119.071 602.333 122.771 L 609.957 122.771 L 609.957 121.666 C 609.957 114.099 604.819 111.06 597.748 111.06 C 590.234 111.06 585.539 114.981 585.539 122.661 C 585.539 129.236 588.798 132.163 595.87 134.594 C 601.118 136.417 602.941 137.743 602.941 141.333 C 602.941 144.648 600.621 146.195 598.19 146.195 C 593.991 146.195 592.941 143.82 592.941 140.118 L 592.941 138.958 L 584.986 138.958 Z  M 614.377 131.555 C 614.377 143.544 615.868 152.051 627.801 152.051 C 639.734 152.051 641.226 143.544 641.226 131.555 C 641.226 119.567 639.734 111.06 627.801 111.06 C 615.868 111.06 614.377 119.567 614.377 131.555 Z  M 622.332 131.555 C 622.332 121.004 623.105 116.915 627.801 116.915 C 632.497 116.915 633.271 121.004 633.271 131.555 C 633.271 142.163 632.497 146.195 627.801 146.195 C 623.105 146.195 622.332 142.163 622.332 131.555 Z  M 644.817 111.834 L 644.817 151.279 L 652.109 151.279 L 652.109 123.656 L 652.22 123.656 L 661.943 151.279 L 671.003 151.279 L 671.003 111.834 L 663.711 111.834 L 663.711 138.848 L 663.6 138.848 L 653.988 111.834 L 644.817 111.834 Z " fill="rgb(116,118,120)"/></g></svg>