<?xml version="1.0" encoding="UTF-8" standalone="no"?><!-- Generator: Gravit.io --><svg xmlns="http://www.w3.org/2000/svg" xmlns:xlink="http://www.w3.org/1999/xlink" style="isolation:isolate" viewBox="586.697 5879.437 47.964 47.964" width="47.964pt" height="47.964pt"><path d=" M 622.74 5899.285 C 623.09 5907.109 617.258 5915.832 606.93 5915.832 C 603.789 5915.832 600.866 5914.909 598.403 5913.333 C 601.353 5913.68 604.301 5912.862 606.64 5911.027 C 604.204 5910.984 602.15 5909.376 601.443 5907.167 C 602.314 5907.332 603.171 5907.283 603.956 5907.071 C 601.281 5906.535 599.434 5904.124 599.492 5901.545 C 600.243 5901.962 601.1 5902.213 602.012 5902.242 C 599.536 5900.586 598.836 5897.315 600.291 5894.816 C 603.036 5898.183 607.13 5900.396 611.756 5900.627 C 610.947 5897.149 613.583 5893.798 617.176 5893.798 C 618.774 5893.798 620.222 5894.475 621.234 5895.553 C 622.501 5895.308 623.691 5894.841 624.768 5894.204 C 624.353 5895.504 623.469 5896.593 622.32 5897.281 C 623.445 5897.149 624.517 5896.85 625.516 5896.405 C 624.77 5897.521 623.829 5898.503 622.74 5899.285 Z  M 610.679 5879.437 C 597.433 5879.437 586.697 5890.172 586.697 5903.417 C 586.697 5916.663 597.433 5927.4 610.679 5927.4 C 623.925 5927.4 634.661 5916.663 634.661 5903.417 C 634.661 5890.172 623.925 5879.437 610.679 5879.437 Z " fill="rgb(182,184,186)"/></svg>