<?xml version="1.0" encoding="UTF-8" standalone="no"?><!-- Generator: Gravit.io --><svg xmlns="http://www.w3.org/2000/svg" xmlns:xlink="http://www.w3.org/1999/xlink" style="isolation:isolate" viewBox="652.487 5879.437 47.965 47.964" width="47.965pt" height="47.964pt"><path d=" M 690.306 5895.198 C 690.306 5892.25 687.916 5889.863 684.971 5889.863 L 670.395 5889.863 L 670.395 5896.586 L 669.301 5896.586 L 669.301 5889.863 L 668.668 5889.863 C 668.627 5889.863 668.589 5889.865 668.545 5889.865 L 668.545 5896.586 L 667.452 5896.586 L 667.452 5890.003 C 667.186 5890.066 666.93 5890.148 666.682 5890.245 L 666.682 5896.586 L 665.588 5896.586 L 665.588 5890.843 C 664.224 5891.81 663.336 5893.397 663.336 5895.198 L 663.336 5898.701 L 671.886 5898.701 C 673.137 5897.429 674.877 5896.639 676.804 5896.639 C 678.725 5896.639 680.466 5897.429 681.719 5898.701 L 690.306 5898.701 L 690.306 5895.198 Z  M 676.804 5908.857 C 679.734 5908.857 682.12 5906.472 682.12 5903.542 C 682.12 5901.948 681.415 5900.52 680.302 5899.543 C 679.913 5899.201 679.472 5898.918 678.996 5898.701 C 678.325 5898.397 677.584 5898.226 676.804 5898.226 C 676.022 5898.226 675.278 5898.397 674.609 5898.701 C 674.131 5898.918 673.69 5899.201 673.303 5899.543 C 672.191 5900.52 671.486 5901.948 671.486 5903.542 C 671.486 5906.472 673.871 5908.857 676.804 5908.857 Z  M 690.306 5899.543 L 682.426 5899.543 C 683.23 5900.673 683.703 5902.049 683.703 5903.542 C 683.703 5907.354 680.613 5910.443 676.804 5910.443 C 672.99 5910.443 669.9 5907.354 669.9 5903.542 C 669.9 5902.049 670.375 5900.673 671.179 5899.543 L 663.336 5899.543 L 663.336 5911.638 C 663.336 5914.586 665.723 5916.974 668.668 5916.974 L 684.971 5916.974 C 687.916 5916.974 690.306 5914.586 690.306 5911.638 L 690.306 5899.543 Z  M 700.452 5903.417 C 700.452 5916.663 689.717 5927.4 676.471 5927.4 C 663.227 5927.4 652.487 5916.663 652.487 5903.417 C 652.487 5890.172 663.227 5879.437 676.471 5879.437 C 689.717 5879.437 700.452 5890.172 700.452 5903.417 Z  M 676.821 5907.471 C 678.991 5907.471 680.749 5905.712 680.749 5903.542 C 680.749 5901.37 678.991 5899.611 676.821 5899.611 C 674.65 5899.611 672.888 5901.37 672.888 5903.542 C 672.888 5905.712 674.65 5907.471 676.821 5907.471 Z  M 687.868 5892.948 L 687.868 5895.894 C 687.868 5896.367 687.484 5896.75 687.013 5896.75 L 684.128 5896.75 C 683.655 5896.75 683.271 5896.367 683.271 5895.894 L 683.271 5892.948 C 683.271 5892.476 683.655 5892.091 684.128 5892.091 L 687.013 5892.091 C 687.484 5892.091 687.868 5892.476 687.868 5892.948 Z " fill="rgb(182,184,186)"/></svg>