<?xml version="1.0" encoding="UTF-8" standalone="no"?><!-- Generator: Gravit.io --><svg xmlns="http://www.w3.org/2000/svg" xmlns:xlink="http://www.w3.org/1999/xlink" style="isolation:isolate" viewBox="42 37.692 154.459 114.36" width="154.459pt" height="114.36pt"><path d=" M 191.251 138.122 C 191.516 138.122 191.826 138.111 192.017 138.09 L 193.073 141.38 L 194.582 141.38 L 193.324 137.783 C 193.828 137.571 194.368 137.056 194.368 135.78 C 194.368 134.086 193.515 133.436 191.848 133.436 L 189.764 133.436 L 189.764 141.38 L 191.251 141.38 L 191.251 138.122 Z  M 191.251 134.559 L 191.778 134.559 C 192.583 134.559 192.881 134.833 192.881 135.78 C 192.881 136.726 192.583 137.002 191.778 137.002 L 191.251 137.002 L 191.251 134.559 Z  M 185.254 135.393 C 185.254 134.8 185.446 134.515 186.046 134.515 C 186.648 134.515 186.839 134.8 186.839 135.393 L 186.839 139.42 C 186.839 140.017 186.648 140.301 186.046 140.301 C 185.446 140.301 185.254 140.017 185.254 139.42 L 185.254 135.393 Z  M 183.768 139.454 C 183.768 140.577 184.486 141.49 186.046 141.49 C 187.603 141.49 188.326 140.577 188.326 139.454 L 188.326 135.363 C 188.326 134.24 187.603 133.327 186.046 133.327 C 184.486 133.327 183.768 134.24 183.768 135.363 L 183.768 139.454 Z  M 179.967 141.38 L 181.454 141.38 L 181.454 134.625 L 182.892 134.625 L 182.892 133.436 L 178.528 133.436 L 178.528 134.625 L 179.967 134.625 L 179.967 141.38 Z  M 177.591 136.087 L 177.591 135.506 C 177.591 134.317 176.873 133.327 175.386 133.327 C 173.827 133.327 173.106 134.24 173.106 135.363 L 173.106 139.454 C 173.106 140.577 173.827 141.49 175.386 141.49 C 176.873 141.49 177.591 140.577 177.591 139.454 L 177.591 138.54 L 176.104 138.54 L 176.104 139.498 C 176.104 140.017 175.924 140.301 175.386 140.301 C 174.787 140.301 174.595 140.017 174.595 139.42 L 174.595 135.393 C 174.595 134.8 174.787 134.515 175.386 134.515 C 175.772 134.515 176.104 134.8 176.104 135.473 L 176.104 136.087 L 177.591 136.087 Z  M 171.932 141.38 L 171.932 140.191 L 169.271 140.191 L 169.271 137.859 L 171.191 137.859 L 171.191 136.671 L 169.271 136.671 L 169.271 134.625 L 171.766 134.625 L 171.766 133.436 L 167.785 133.436 L 167.785 141.38 L 171.932 141.38 Z  M 163.274 138.122 C 163.539 138.122 163.849 138.111 164.043 138.09 L 165.096 141.38 L 166.61 141.38 L 165.349 137.783 C 165.853 137.571 166.392 137.056 166.392 135.78 C 166.392 134.086 165.543 133.436 163.874 133.436 L 161.788 133.436 L 161.788 141.38 L 163.274 141.38 L 163.274 138.122 Z  M 163.274 134.559 L 163.804 134.559 C 164.606 134.559 164.907 134.833 164.907 135.78 C 164.907 136.726 164.606 137.002 163.804 137.002 L 163.274 137.002 L 163.274 134.559 Z  M 160.146 133.436 L 158.659 133.436 L 158.659 141.38 L 160.146 141.38 L 160.146 133.436 Z  M 152.458 141.38 L 154.665 141.38 C 156.202 141.38 157.016 140.61 157.016 138.979 L 157.016 135.835 C 157.016 134.207 156.202 133.436 154.665 133.436 L 152.458 133.436 L 152.458 141.38 Z  M 153.944 134.559 L 154.462 134.559 C 155.253 134.559 155.529 134.833 155.529 135.669 L 155.529 139.146 C 155.529 139.984 155.253 140.256 154.462 140.256 L 153.944 140.256 L 153.944 134.559 Z  M 148.285 136.087 L 148.285 135.506 C 148.285 134.317 147.567 133.327 146.081 133.327 C 144.523 133.327 143.8 134.24 143.8 135.363 L 143.8 139.454 C 143.8 140.577 144.523 141.49 146.081 141.49 C 147.567 141.49 148.285 140.577 148.285 139.454 L 148.285 138.54 L 146.799 138.54 L 146.799 139.498 C 146.799 140.017 146.619 140.301 146.081 140.301 C 145.481 140.301 145.289 140.017 145.289 139.42 L 145.289 135.393 C 145.289 134.8 145.481 134.515 146.081 134.515 C 146.464 134.515 146.799 134.8 146.799 135.473 L 146.799 136.087 L 148.285 136.087 Z  M 142.159 133.436 L 140.675 133.436 L 140.675 141.38 L 142.159 141.38 L 142.159 133.436 Z  M 139.27 135.254 C 139.138 134.13 138.419 133.327 137.207 133.327 C 135.743 133.327 134.906 134.042 134.906 135.308 C 134.906 137.584 137.927 138.001 137.927 139.574 C 137.927 140.049 137.578 140.301 137.063 140.301 C 136.582 140.301 136.235 139.906 136.176 139.101 L 134.76 139.287 C 134.822 140.476 135.613 141.49 136.992 141.49 C 138.381 141.49 139.34 140.764 139.34 139.454 C 139.34 137.299 136.32 136.649 136.32 135.295 C 136.32 134.8 136.582 134.515 137.063 134.515 C 137.398 134.515 137.795 134.713 137.854 135.393 L 139.27 135.254 Z  M 129.149 139.376 C 129.149 140.742 130.013 141.49 131.429 141.49 C 132.842 141.49 133.704 140.742 133.704 139.376 L 133.704 133.436 L 132.218 133.436 L 132.218 139.433 C 132.218 140.017 131.967 140.301 131.429 140.301 C 130.886 140.301 130.638 140.017 130.638 139.433 L 130.638 133.436 L 129.149 133.436 L 129.149 139.376 Z  M 125.827 133.436 L 124.773 138.079 L 124.746 138.079 L 123.692 133.436 L 121.739 133.436 L 121.739 141.38 L 123.034 141.38 L 123.034 135.174 L 123.059 135.174 L 124.402 141.38 L 125.12 141.38 L 126.463 135.174 L 126.486 135.174 L 126.486 141.38 L 127.781 141.38 L 127.781 133.436 L 125.827 133.436 Z  M 189.835 151.769 L 188.346 151.769 L 188.346 143.827 L 189.835 143.827 L 189.835 146.764 L 189.86 146.764 L 191.417 143.827 L 192.904 143.827 L 191.297 146.785 L 193.107 151.769 L 191.598 151.769 L 190.387 148.071 L 190.362 148.071 L 189.835 148.952 L 189.835 151.769 Z  M 183.909 148.513 L 183.909 151.769 L 182.423 151.769 L 182.423 143.827 L 184.511 143.827 C 186.178 143.827 187.031 144.476 187.031 146.17 C 187.031 147.445 186.49 147.962 185.986 148.172 L 187.245 151.769 L 185.733 151.769 L 184.678 148.48 C 184.484 148.501 184.174 148.513 183.909 148.513 Z  M 183.909 144.948 L 183.909 147.392 L 184.438 147.392 C 185.243 147.392 185.542 147.116 185.542 146.17 C 185.542 145.222 185.243 144.948 184.438 144.948 L 183.909 144.948 Z  M 178.227 150.009 L 177.963 151.769 L 176.526 151.769 L 178.12 143.827 L 179.967 143.827 L 181.561 151.769 L 180.122 151.769 L 179.858 150.009 L 178.227 150.009 Z  M 179.03 145.412 L 178.444 148.82 L 179.643 148.82 L 179.055 145.412 L 179.03 145.412 Z  M 173.779 143.827 L 175.733 143.827 L 175.733 151.769 L 174.438 151.769 L 174.438 145.564 L 174.415 145.564 L 173.07 151.769 L 172.354 151.769 L 171.009 145.564 L 170.986 145.564 L 170.986 151.769 L 169.691 151.769 L 169.691 143.827 L 171.642 143.827 L 172.698 148.468 L 172.723 148.468 L 173.779 143.827 Z  M 167.135 148.468 L 167.135 151.769 L 165.648 151.769 L 165.648 148.468 L 163.849 143.827 L 165.361 143.827 L 166.405 146.852 L 166.43 146.852 L 167.424 143.827 L 168.936 143.827 L 167.135 148.468 Z  M 163.274 151.769 L 159.127 151.769 L 159.127 143.827 L 163.108 143.827 L 163.108 145.015 L 160.614 145.015 L 160.614 147.06 L 162.531 147.06 L 162.531 148.249 L 160.614 148.249 L 160.614 150.581 L 163.274 150.581 L 163.274 151.769 Z  M 152.734 148.886 L 153.705 143.827 L 154.93 143.827 L 155.937 148.886 L 155.96 148.886 L 156.788 143.827 L 158.179 143.827 L 156.656 151.769 L 155.408 151.769 L 154.33 146.52 L 154.305 146.52 L 153.299 151.769 L 152.052 151.769 L 150.408 143.827 L 151.799 143.827 L 152.711 148.886 L 152.734 148.886 Z  M 144.665 151.769 L 144.665 145.015 L 143.226 145.015 L 143.226 143.827 L 147.59 143.827 L 147.59 145.015 L 146.151 145.015 L 146.151 151.769 L 144.665 151.769 Z  M 140.002 151.769 L 140.002 145.015 L 138.561 145.015 L 138.561 143.827 L 142.927 143.827 L 142.927 145.015 L 141.486 145.015 L 141.486 151.769 L 140.002 151.769 Z  M 137.961 151.769 L 133.812 151.769 L 133.812 143.827 L 137.795 143.827 L 137.795 145.015 L 135.3 145.015 L 135.3 147.06 L 137.22 147.06 L 137.22 148.249 L 135.3 148.249 L 135.3 150.581 L 137.961 150.581 L 137.961 151.769 Z  M 129.304 148.513 L 129.304 151.769 L 127.817 151.769 L 127.817 143.827 L 129.903 143.827 C 131.57 143.827 132.423 144.476 132.423 146.17 C 132.423 147.445 131.885 147.962 131.379 148.172 L 132.637 151.769 L 131.128 151.769 L 130.072 148.48 C 129.881 148.501 129.568 148.513 129.304 148.513 Z  M 129.304 144.948 L 129.304 147.392 L 129.833 147.392 C 130.638 147.392 130.936 147.116 130.936 146.17 C 130.936 145.222 130.638 144.948 129.833 144.948 L 129.304 144.948 Z  M 121.82 151.769 L 121.82 143.827 L 124.03 143.827 C 125.624 143.827 126.333 144.574 126.333 145.928 C 126.333 146.61 126.018 147.325 125.3 147.59 C 126.057 147.899 126.499 148.447 126.499 149.47 C 126.499 150.78 125.863 151.769 124.171 151.769 L 121.82 151.769 Z  M 123.312 144.948 L 123.312 147.081 L 123.85 147.081 C 124.413 147.081 124.844 146.732 124.844 146.071 C 124.844 145.332 124.532 144.948 123.872 144.948 L 123.312 144.948 Z  M 123.312 148.205 L 123.312 150.646 L 123.934 150.646 C 124.725 150.646 125.013 150.228 125.013 149.426 C 125.013 148.611 124.678 148.205 123.788 148.205 L 123.312 148.205 Z  M 191.579 118.365 C 190.927 119.295 190.065 120.089 188.996 120.089 C 187.824 120.089 187.202 119.605 187.202 118.398 C 187.202 116.778 188.064 115.504 191.579 113.504 L 191.579 118.365 Z  M 187.478 109.816 C 187.548 108.228 187.927 107.194 189.685 107.194 C 190.959 107.194 191.579 108.023 191.579 109.573 L 191.579 110.677 C 186.03 112.782 183.342 115.02 183.342 119.089 C 183.342 121.466 184.65 123.259 187.27 123.259 C 189.133 123.259 190.341 122.638 191.787 121.466 C 191.823 121.914 191.96 122.397 191.997 122.916 L 195.681 122.916 C 195.579 122.295 195.442 121.537 195.442 120.951 L 195.442 109.057 C 195.442 105.679 193.408 104.023 189.824 104.023 C 186.203 104.023 183.825 106.056 183.615 109.816 L 187.478 109.816 Z  M 180.963 98.024 L 177.101 98.024 L 177.101 101.54 L 180.963 101.54 L 180.963 98.024 Z  M 180.963 104.369 L 177.101 104.369 L 177.101 122.916 L 180.963 122.916 L 180.963 104.369 Z  M 166.312 122.916 L 166.312 108.368 C 167.208 107.712 167.967 107.194 168.795 107.194 C 169.622 107.194 170.172 107.609 170.172 108.538 L 170.172 122.916 L 174.034 122.916 L 174.034 107.92 C 174.034 105.505 172.828 104.023 170.794 104.023 C 168.553 104.023 167.725 104.849 166.104 106.229 L 166.104 104.369 L 162.449 104.369 L 162.449 122.916 L 166.312 122.916 Z  M 147.626 116.365 C 147.626 120.435 149.213 123.259 153.625 123.259 C 158.037 123.259 159.624 120.435 159.624 116.365 L 159.624 110.917 C 159.624 106.851 158.037 104.023 153.625 104.023 C 149.213 104.023 147.626 106.851 147.626 110.917 L 147.626 116.365 Z  M 155.764 117.053 C 155.764 119.192 155.005 120.089 153.625 120.089 C 152.248 120.089 151.489 119.192 151.489 117.053 L 151.489 110.229 C 151.489 108.09 152.248 107.194 153.625 107.194 C 155.005 107.194 155.764 108.09 155.764 110.229 L 155.764 117.053 Z  M 137.079 122.916 L 137.079 108.368 C 137.941 107.712 138.7 107.194 139.525 107.194 C 140.285 107.194 140.905 107.609 140.905 108.538 L 140.905 122.916 L 144.765 122.916 L 144.765 107.92 C 144.765 105.505 143.559 104.023 141.147 104.023 C 139.733 104.023 138.7 104.436 136.839 106.229 C 136.009 104.712 135.389 104.023 133.458 104.023 C 131.632 104.023 130.804 104.849 129.183 106.229 L 129.183 104.369 L 125.528 104.369 L 125.528 122.916 L 129.39 122.916 L 129.39 108.368 C 130.286 107.712 131.043 107.194 131.873 107.194 C 132.63 107.194 133.216 107.609 133.216 108.538 L 133.216 122.916 L 137.079 122.916 Z  M 118.599 122.916 L 118.599 110.159 C 118.599 108.506 119.873 107.677 121.187 107.677 C 122.322 107.677 122.979 107.885 123.668 108.055 L 123.668 104.023 L 122.874 104.023 C 121.048 104.023 119.429 104.955 118.496 106.539 L 118.425 106.539 L 118.425 104.369 L 114.736 104.369 L 114.736 122.916 L 118.599 122.916 Z  M 107.673 118.365 C 107.016 119.295 106.154 120.089 105.085 120.089 C 103.915 120.089 103.295 119.605 103.295 118.398 C 103.295 116.778 104.157 115.504 107.673 113.504 L 107.673 118.365 Z  M 103.571 109.816 C 103.637 108.228 104.018 107.194 105.776 107.194 C 107.05 107.194 107.673 108.023 107.673 109.573 L 107.673 110.677 C 102.123 112.782 99.433 115.02 99.433 119.089 C 99.433 121.466 100.744 123.259 103.361 123.259 C 105.224 123.259 106.43 122.638 107.878 121.466 C 107.912 121.914 108.054 122.397 108.085 122.916 L 111.775 122.916 C 111.672 122.295 111.533 121.537 111.533 120.951 L 111.533 109.057 C 111.533 105.679 109.499 104.023 105.915 104.023 C 102.294 104.023 99.914 106.056 99.708 109.816 L 103.571 109.816 Z  M 89.366 122.916 L 89.366 108.368 C 90.262 107.712 91.021 107.194 91.849 107.194 C 92.677 107.194 93.226 107.609 93.226 108.538 L 93.226 122.916 L 97.089 122.916 L 97.089 107.92 C 97.089 105.505 95.882 104.023 93.849 104.023 C 91.607 104.023 90.78 104.849 89.366 106.092 L 89.366 98.024 L 85.504 98.024 L 85.504 122.916 L 89.366 122.916 Z  M 82.437 98.024 L 78.577 98.024 L 78.577 122.916 L 82.437 122.916 L 82.437 98.024 Z  M 75.474 98.024 L 71.612 98.024 L 71.612 101.54 L 75.474 101.54 L 75.474 98.024 Z  M 75.474 104.369 L 71.612 104.369 L 71.612 122.916 L 75.474 122.916 L 75.474 104.369 Z  M 60.822 122.916 L 60.822 108.368 C 61.718 107.712 62.477 107.194 63.305 107.194 C 64.132 107.194 64.684 107.609 64.684 108.538 L 64.684 122.916 L 68.547 122.916 L 68.547 107.92 C 68.547 105.505 67.338 104.023 65.304 104.023 C 63.063 104.023 62.238 104.849 60.822 106.092 L 60.822 98.024 L 56.962 98.024 L 56.962 122.916 L 60.822 122.916 Z  M 46.206 108.16 C 46.963 107.609 47.654 107.194 48.414 107.194 C 49.446 107.194 50.274 107.747 50.274 110.194 L 50.274 117.088 C 50.274 119.537 49.446 120.089 48.414 120.089 C 47.654 120.089 46.963 119.675 46.206 119.122 L 46.206 108.16 Z  M 42.344 104.369 L 42.344 128.776 L 46.206 128.776 L 46.206 121.33 C 47.725 122.571 48.516 123.259 50.203 123.259 C 52.618 123.259 54.134 121.466 54.134 118.09 L 54.134 109.195 C 54.134 105.816 52.618 104.023 50.203 104.023 C 48.274 104.023 47.344 104.679 46.067 106.299 L 45.999 106.299 L 45.999 104.369 L 42.344 104.369 Z  M 184.623 72.219 L 189.069 49.723 L 196.459 49.723 L 187.238 87.52 C 185.669 93.93 182.726 95.956 177.233 95.956 L 174.16 95.956 L 174.16 89.942 L 175.924 89.942 C 179.586 89.942 180.763 87.978 180.763 84.252 C 180.763 82.814 180.439 81.309 179.978 79.608 L 172.329 49.723 L 179.782 49.723 L 184.491 72.219 L 184.623 72.219 Z  M 169.846 62.149 L 169.846 68.688 L 154.412 68.688 L 154.412 73.79 C 154.412 77.843 155.848 79.542 158.466 79.542 C 161.083 79.542 162.522 77.843 162.522 73.79 L 162.522 73.003 L 169.846 73.003 C 169.716 80.458 166.64 85.559 158.466 85.559 C 150.096 85.559 147.086 80.197 147.086 72.48 L 147.086 62.149 C 147.086 54.432 150.096 49.069 158.466 49.069 C 166.836 49.069 169.846 54.432 169.846 62.149 Z  M 154.412 62.671 L 162.522 62.671 L 162.522 60.841 C 162.522 56.785 161.083 55.085 158.466 55.085 C 155.848 55.085 154.412 56.785 154.412 60.841 L 154.412 62.671 Z  M 127.076 84.905 L 119.753 84.905 L 119.753 49.723 L 126.684 49.723 L 126.684 53.253 C 129.758 50.638 131.328 49.069 135.581 49.069 C 139.436 49.069 141.726 51.881 141.726 56.459 L 141.726 84.905 L 134.402 84.905 L 134.402 57.636 C 134.402 55.871 133.355 55.085 131.787 55.085 C 130.216 55.085 128.777 56.067 127.076 57.308 L 127.076 84.905 Z  M 106.676 77.712 L 106.676 56.916 C 105.238 55.871 103.927 55.085 102.49 55.085 C 100.527 55.085 98.956 56.132 98.956 60.775 L 98.956 73.855 C 98.956 78.497 100.527 79.542 102.49 79.542 C 103.927 79.542 105.238 78.758 106.676 77.712 Z  M 114 84.905 L 107.069 84.905 L 107.069 81.242 L 106.936 81.242 C 104.517 84.317 102.75 85.559 99.088 85.559 C 94.51 85.559 91.635 82.16 91.635 75.75 L 91.635 58.879 C 91.635 52.471 94.51 49.069 99.088 49.069 C 102.292 49.069 103.797 50.379 106.676 52.732 L 106.676 37.692 L 114 37.692 L 114 84.905 Z  M 77.313 72.219 L 81.76 49.723 L 89.149 49.723 L 79.929 87.52 C 78.358 93.93 75.416 95.956 69.924 95.956 L 66.85 95.956 L 66.85 89.942 L 68.615 89.942 C 72.277 89.942 73.453 87.978 73.453 84.252 C 73.453 82.814 73.127 81.309 72.669 79.608 L 65.017 49.723 L 72.473 49.723 L 77.181 72.219 L 77.313 72.219 Z  M 63.318 58.422 L 57.105 59.469 C 56.585 56.655 55.274 55.085 52.921 55.085 C 51.022 55.085 49.715 56.067 49.715 57.896 C 49.715 63.391 63.448 65.613 63.448 76.078 C 63.448 82.356 59.132 85.559 53.184 85.559 C 46.774 85.559 43.112 81.899 42 75.75 L 48.409 73.986 C 48.865 76.927 49.912 79.542 53.247 79.542 C 55.144 79.542 56.517 78.431 56.517 76.47 C 56.517 70.388 42.786 68.1 42.786 58.485 C 42.786 52.928 47.1 49.069 52.595 49.069 C 58.35 49.069 62.206 52.928 63.318 58.422 Z  M 115.03 137.745 C 114.445 134.849 112.413 132.815 109.378 132.815 C 106.483 132.815 104.205 134.849 104.205 137.78 C 104.205 142.847 111.446 144.053 111.446 147.258 C 111.446 148.296 110.721 148.879 109.722 148.879 C 107.965 148.879 107.413 147.501 107.171 145.949 L 103.794 146.881 C 104.378 150.121 106.309 152.052 109.686 152.052 C 112.826 152.052 115.099 150.362 115.099 147.053 C 115.099 141.539 107.862 140.365 107.862 137.469 C 107.862 136.504 108.55 135.987 109.549 135.987 C 110.792 135.987 111.48 136.813 111.756 138.295 L 115.03 137.745 Z  M 97.793 151.707 L 97.793 138.952 C 97.793 137.297 99.068 136.469 100.381 136.469 C 101.519 136.469 102.173 136.675 102.862 136.848 L 102.862 132.815 L 102.068 132.815 C 100.242 132.815 98.623 133.745 97.691 135.332 L 97.62 135.332 L 97.62 133.158 L 93.933 133.158 L 93.933 151.707 L 97.793 151.707 Z  M 90.866 126.815 L 87.004 126.815 L 87.004 130.331 L 90.866 130.331 L 90.866 126.815 Z  M 90.866 133.158 L 87.004 133.158 L 87.004 151.707 L 90.866 151.707 L 90.866 133.158 Z  M 72.147 145.157 C 72.147 149.225 73.732 152.052 78.143 152.052 C 82.558 152.052 84.145 149.225 84.145 145.157 L 84.145 139.71 C 84.145 135.642 82.558 132.815 78.143 132.815 C 73.732 132.815 72.147 135.642 72.147 139.71 L 72.147 145.157 Z  M 80.282 145.846 C 80.282 147.982 79.523 148.879 78.143 148.879 C 76.766 148.879 76.007 147.982 76.007 145.846 L 76.007 139.021 C 76.007 136.883 76.766 135.987 78.143 135.987 C 79.523 135.987 80.282 136.883 80.282 139.021 L 80.282 145.846 Z  M 61.597 151.707 L 61.597 137.159 C 62.493 136.504 63.252 135.987 64.08 135.987 C 64.908 135.987 65.459 136.399 65.459 137.331 L 65.459 151.707 L 69.32 151.707 L 69.32 136.711 C 69.32 134.298 68.113 132.815 66.077 132.815 C 63.838 132.815 63.011 133.642 61.597 134.884 L 61.597 126.815 L 57.735 126.815 L 57.735 151.707 L 61.597 151.707 Z  M 54.909 139.503 C 54.841 135.538 53.254 132.815 48.911 132.815 C 44.499 132.815 42.912 135.642 42.912 139.71 L 42.912 145.157 C 42.912 149.225 44.499 152.052 48.911 152.052 C 53.323 152.052 54.909 149.225 54.909 145.157 L 54.909 144.674 L 51.049 144.674 L 51.049 145.846 C 51.049 147.982 50.29 148.879 48.911 148.879 C 47.534 148.879 46.774 147.982 46.774 145.846 L 46.774 139.021 C 46.774 136.883 47.534 135.987 48.911 135.987 C 50.29 135.987 51.049 136.883 51.049 139.021 L 51.049 139.503 L 54.909 139.503 Z " fill="rgb(0,0,0)"/></svg>