<?xml version="1.0" encoding="UTF-8" standalone="no"?><!-- Generator: Gravit.io --><svg xmlns="http://www.w3.org/2000/svg" xmlns:xlink="http://www.w3.org/1999/xlink" style="isolation:isolate" viewBox="332.996 6201.111 118.582 61.074" width="118.582pt" height="61.074pt"><g><path d=" M 420.396 6244.554 L 417.844 6244.554 L 416.45 6241.238 L 409.954 6241.238 L 408.54 6244.554 L 406.067 6244.554 L 412.113 6230.716 L 414.35 6230.716 L 420.396 6244.554 Z  M 413.192 6233.602 L 410.837 6239.098 L 415.567 6239.098 L 413.192 6233.602 Z " fill="rgb(255,255,255)"/><path d=" M 423.675 6244.554 L 421.3 6244.554 L 421.3 6234.189 L 423.675 6234.189 L 423.675 6236.525 C 424.322 6234.977 425.52 6233.916 427.346 6233.995 L 427.346 6236.507 L 427.208 6236.507 C 425.128 6236.507 423.675 6237.861 423.675 6240.608 L 423.675 6244.554 Z " fill="rgb(255,255,255)"/><path d=" M 432.275 6241.316 C 432.275 6242.238 432.746 6242.61 433.551 6242.61 C 434.081 6242.61 434.551 6242.493 435.022 6242.257 L 435.022 6244.2 C 434.434 6244.534 433.766 6244.73 432.883 6244.73 C 431.137 6244.73 429.9 6243.966 429.9 6241.688 L 429.9 6236.231 L 428.585 6236.231 L 428.585 6234.19 L 429.9 6234.19 L 429.9 6231.344 L 432.275 6231.344 L 432.275 6234.19 L 435.063 6234.19 L 435.063 6236.231 L 432.275 6236.231 L 432.275 6241.316 Z " fill="rgb(255,255,255)"/><path d=" M 440.617 6244.75 C 439.146 6244.75 437.517 6244.22 436.221 6243.199 L 437.281 6241.589 C 438.4 6242.433 439.616 6242.867 440.676 6242.867 C 441.697 6242.867 442.285 6242.433 442.285 6241.747 L 442.285 6241.708 C 442.285 6240.903 441.186 6240.627 439.97 6240.255 C 438.439 6239.824 436.73 6239.196 436.73 6237.213 L 436.73 6237.174 C 436.73 6235.21 438.361 6234.013 440.421 6234.013 C 441.716 6234.013 443.129 6234.465 444.228 6235.192 L 443.287 6236.879 C 442.285 6236.27 441.225 6235.898 440.362 6235.898 C 439.439 6235.898 438.91 6236.33 438.91 6236.938 L 438.91 6236.977 C 438.91 6237.723 440.029 6238.037 441.246 6238.429 C 442.757 6238.9 444.464 6239.588 444.464 6241.453 L 444.464 6241.492 C 444.464 6243.67 442.776 6244.75 440.617 6244.75 Z " fill="rgb(255,255,255)"/><path d=" M 415.664 6247.947 L 418.039 6247.947 L 418.039 6261.688 L 416.018 6261.688 L 408.441 6251.915 L 408.441 6261.688 L 406.066 6261.688 L 406.066 6247.947 L 408.304 6247.947 L 415.664 6257.448 L 415.664 6247.947 Z " fill="rgb(255,255,255)"/><path d=" M 426.089 6253.719 C 428.994 6254.426 430.506 6255.465 430.506 6257.762 C 430.506 6260.354 428.484 6261.883 425.598 6261.883 C 423.499 6261.883 421.516 6261.157 419.867 6259.687 L 421.319 6257.958 C 422.634 6259.097 423.949 6259.744 425.657 6259.744 C 427.149 6259.744 428.092 6259.057 428.092 6257.997 C 428.092 6256.996 427.542 6256.466 424.99 6255.879 C 422.065 6255.172 420.417 6254.307 420.417 6251.756 C 420.417 6249.36 422.379 6247.752 425.107 6247.752 C 427.11 6247.752 428.7 6248.36 430.093 6249.48 L 428.797 6251.304 C 427.562 6250.381 426.325 6249.89 425.068 6249.89 C 423.655 6249.89 422.831 6250.617 422.831 6251.541 C 422.831 6252.619 423.46 6253.091 426.089 6253.719 Z " fill="rgb(255,255,255)"/><path d=" M 440.352 6247.908 L 442.394 6247.908 L 445.769 6258.134 L 449.048 6247.947 L 451.579 6247.947 L 446.79 6261.787 L 444.709 6261.787 L 441.334 6251.914 L 437.957 6261.787 L 435.878 6261.787 L 431.088 6247.947 L 433.698 6247.947 L 436.977 6258.134 L 440.352 6247.908 Z " fill="rgb(255,255,255)"/><path d=" M 348.134 6248.022 L 339.072 6237.381 L 335.233 6237.381 L 335.233 6254.038 L 338.973 6254.038 L 338.973 6243.419 L 348.009 6254.038 L 351.873 6254.038 L 351.873 6237.381 L 348.134 6237.381 L 348.134 6248.022 Z  M 384.038 6237.383 L 381.556 6248.046 L 378.952 6237.383 L 375.37 6237.383 L 372.721 6247.925 L 370.316 6237.383 L 366.401 6237.383 L 370.733 6254.035 L 374.585 6254.035 L 377.128 6243.5 L 379.711 6254.035 L 383.496 6254.035 L 383.534 6253.892 L 387.895 6237.383 L 384.038 6237.383 Z " fill="rgb(255,255,255)"/><path d=" M 334.835 6259.144 L 334.835 6259.131 C 334.835 6257.688 335.939 6256.466 337.494 6256.466 C 338.392 6256.466 338.944 6256.716 339.474 6257.165 L 338.901 6257.85 C 338.502 6257.511 338.112 6257.298 337.457 6257.298 C 336.507 6257.298 335.784 6258.128 335.784 6259.116 L 335.784 6259.131 C 335.784 6260.192 336.484 6260.972 337.538 6260.972 C 338.024 6260.972 338.466 6260.818 338.783 6260.581 L 338.783 6259.616 L 337.464 6259.616 L 337.464 6258.828 L 339.659 6258.828 L 339.659 6260.992 C 339.151 6261.428 338.422 6261.797 337.509 6261.797 C 335.896 6261.797 334.835 6260.647 334.835 6259.144 Z " fill="rgb(255,255,255)"/><path d=" M 340.207 6259.144 L 340.207 6259.131 C 340.207 6257.68 341.327 6256.466 342.909 6256.466 C 344.494 6256.466 345.597 6257.666 345.597 6259.116 L 345.597 6259.131 C 345.597 6260.581 344.478 6261.797 342.894 6261.797 C 341.311 6261.797 340.207 6260.597 340.207 6259.144 Z  M 344.648 6259.144 L 344.648 6259.131 C 344.648 6258.128 343.918 6257.298 342.894 6257.298 C 341.87 6257.298 341.158 6258.114 341.158 6259.116 L 341.158 6259.131 C 341.158 6260.134 341.887 6260.965 342.909 6260.965 C 343.934 6260.965 344.648 6260.148 344.648 6259.144 Z " fill="rgb(255,255,255)"/><path d=" M 345.532 6256.553 L 346.533 6256.553 L 348.089 6260.515 L 349.635 6256.553 L 350.613 6256.553 L 348.471 6261.746 L 347.674 6261.746 L 345.532 6256.553 Z " fill="rgb(255,255,255)"/><path d=" M 351.225 6256.553 L 355.048 6256.553 L 355.048 6257.365 L 352.13 6257.365 L 352.13 6258.704 L 354.717 6258.704 L 354.717 6259.515 L 352.13 6259.515 L 352.13 6260.898 L 355.085 6260.898 L 355.085 6261.708 L 351.225 6261.708 L 351.225 6256.553 Z " fill="rgb(255,255,255)"/><path d=" M 355.964 6256.553 L 358.26 6256.553 C 358.91 6256.553 359.417 6256.745 359.748 6257.068 C 360.022 6257.349 360.176 6257.73 360.176 6258.18 L 360.176 6258.196 C 360.176 6259.043 359.668 6259.55 358.947 6259.758 L 360.338 6261.708 L 359.27 6261.708 L 358.002 6259.913 L 356.869 6259.913 L 356.869 6261.708 L 355.964 6261.708 L 355.964 6256.553 Z  M 358.194 6259.109 C 358.842 6259.109 359.256 6258.769 359.256 6258.248 L 359.256 6258.232 C 359.256 6257.681 358.859 6257.379 358.187 6257.379 L 356.869 6257.379 L 356.869 6259.109 L 358.194 6259.109 Z " fill="rgb(255,255,255)"/><path d=" M 360.975 6256.553 L 361.812 6256.553 L 364.574 6260.117 L 364.574 6256.553 L 365.468 6256.553 L 365.468 6261.708 L 364.707 6261.708 L 361.864 6258.04 L 361.864 6261.708 L 360.975 6261.708 L 360.975 6256.553 Z " fill="rgb(255,255,255)"/><path d=" M 366.385 6256.553 L 367.35 6256.553 L 368.92 6258.992 L 370.489 6256.553 L 371.454 6256.553 L 371.454 6261.708 L 370.548 6261.708 L 370.548 6258.012 L 368.92 6260.442 L 368.89 6260.442 L 367.278 6258.025 L 367.278 6261.708 L 366.385 6261.708 L 366.385 6256.553 Z " fill="rgb(255,255,255)"/><path d=" M 372.317 6256.553 L 376.139 6256.553 L 376.139 6257.365 L 373.222 6257.365 L 373.222 6258.704 L 375.808 6258.704 L 375.808 6259.515 L 373.222 6259.515 L 373.222 6260.898 L 376.177 6260.898 L 376.177 6261.708 L 372.317 6261.708 L 372.317 6256.553 Z " fill="rgb(255,255,255)"/><path d=" M 377.069 6256.553 L 377.909 6256.553 L 380.67 6260.117 L 380.67 6256.553 L 381.562 6256.553 L 381.562 6261.708 L 380.804 6261.708 L 377.961 6258.04 L 377.961 6261.708 L 377.069 6261.708 L 377.069 6256.553 Z " fill="rgb(255,255,255)"/><path d=" M 383.914 6257.393 L 382.278 6257.393 L 382.278 6256.553 L 386.462 6256.553 L 386.462 6257.393 L 384.828 6257.393 L 384.828 6261.708 L 383.914 6261.708 L 383.914 6257.393 Z " fill="rgb(255,255,255)"/><path d=" M 352.903 6251.718 L 355.103 6249.084 C 356.627 6250.341 358.222 6251.139 360.155 6251.139 C 361.679 6251.139 362.598 6250.534 362.598 6249.542 L 362.598 6249.494 C 362.598 6248.552 362.018 6248.067 359.188 6247.343 C 355.78 6246.473 353.581 6245.53 353.581 6242.169 L 353.581 6242.121 C 353.581 6239.052 356.046 6237.021 359.504 6237.021 C 361.968 6237.021 364.072 6237.795 365.789 6239.171 L 363.856 6241.977 C 362.355 6240.937 360.882 6240.309 359.454 6240.309 C 358.028 6240.309 357.279 6240.961 357.279 6241.783 L 357.279 6241.833 C 357.279 6242.943 358.003 6243.307 360.93 6244.055 C 364.362 6244.949 366.296 6246.183 366.296 6249.13 L 366.296 6249.18 C 366.296 6252.54 363.734 6254.426 360.083 6254.426 C 357.52 6254.426 354.934 6253.531 352.903 6251.718 Z " fill="rgb(255,255,255)"/><path d=" M 344.139 6205.769 C 343.788 6205.78 343.58 6205.985 343.505 6206.393 C 343.505 6206.393 343.42 6206.999 343.325 6208.031 C 343.238 6208.974 343.134 6210.471 343.134 6212.25 C 343.134 6216.261 343.656 6221.958 346.152 6226.324 C 348.066 6229.656 350.773 6231.531 353.791 6231.63 C 352.615 6230.732 351.213 6229.238 350.469 6226.917 C 349.767 6224.714 349.411 6222.111 349.411 6219.179 C 349.411 6215.131 350.088 6211.657 350.297 6210.691 C 350.303 6210.665 350.306 6210.647 350.307 6210.642 C 350.429 6210.077 350.756 6209.628 351.19 6209.401 C 348.112 6207.425 345.464 6206.263 344.951 6206.046 C 344.645 6205.905 344.481 6205.846 344.478 6205.845 L 344.474 6205.844 L 344.47 6205.841 C 344.358 6205.793 344.246 6205.771 344.139 6205.769 Z " fill="rgb(255,255,255)"/><path d=" M 370.36 6210.452 C 370.281 6210.452 370.197 6210.487 370.1 6210.562 C 370.097 6210.563 370.003 6210.635 369.83 6210.784 C 369.655 6210.925 369.405 6211.14 369.059 6211.446 C 368.597 6211.858 367.658 6212.727 366.562 6213.933 C 364.826 6215.867 362.526 6218.911 361.434 6222.437 C 360.802 6224.495 360.487 6226.276 360.499 6227.732 C 360.487 6228.823 360.66 6229.744 361.013 6230.473 C 361.348 6231.187 361.857 6231.694 362.574 6232.022 C 362.875 6232.157 363.258 6232.225 363.711 6232.225 L 363.732 6232.225 C 365.838 6232.225 369.35 6230.469 370.562 6226.562 C 371.213 6224.458 371.544 6221.973 371.544 6219.179 C 371.544 6215.709 371.04 6212.686 370.822 6211.547 C 370.739 6211.127 370.691 6210.899 370.691 6210.899 C 370.639 6210.698 370.539 6210.452 370.36 6210.452 Z " fill="rgb(255,255,255)"/><path d=" M 351.836 6210.452 C 351.651 6210.452 351.54 6210.696 351.479 6210.904 C 351.471 6210.944 351.425 6211.167 351.348 6211.548 C 351.291 6211.839 351.174 6212.458 351.048 6213.337 C 350.851 6214.708 350.615 6216.834 350.615 6219.179 C 350.615 6222.017 350.951 6224.498 351.608 6226.549 C 352.845 6230.465 356.446 6232.225 358.608 6232.225 L 358.629 6232.225 C 359.084 6232.225 359.485 6232.152 359.819 6232.01 C 359.996 6231.936 360.167 6231.845 360.357 6231.717 C 360.198 6231.501 360.056 6231.262 359.927 6230.993 C 359.506 6230.117 359.297 6229.052 359.283 6227.736 C 359.295 6226.111 359.634 6224.212 360.292 6222.085 C 360.35 6221.89 360.418 6221.691 360.485 6221.5 C 360.511 6221.424 360.537 6221.348 360.564 6221.271 C 358.267 6215.564 352.991 6211.262 352.395 6210.789 C 352.206 6210.636 352.11 6210.563 352.109 6210.562 C 352.004 6210.49 351.911 6210.452 351.836 6210.452 Z " fill="rgb(255,255,255)"/><path d=" M 361.08 6201.111 C 360.953 6201.111 360.82 6201.212 360.688 6201.411 C 360.686 6201.414 360.578 6201.57 360.402 6201.863 C 360.139 6202.302 359.887 6202.731 359.633 6203.176 C 359.063 6204.183 358.199 6205.813 357.311 6207.841 C 356.701 6209.224 356.145 6210.664 355.659 6212.122 C 357.369 6213.829 359.662 6216.494 361.187 6219.73 C 362.365 6217.195 364.155 6214.671 366.513 6212.219 C 364.904 6207.337 362.645 6203.355 361.744 6201.863 C 361.552 6201.564 361.456 6201.405 361.456 6201.405 C 361.274 6201.132 361.122 6201.111 361.08 6201.111 Z " fill="rgb(255,255,255)"/><path d=" M 377.996 6205.769 C 377.928 6205.771 377.817 6205.784 377.676 6205.841 L 377.673 6205.844 L 377.67 6205.845 C 377.668 6205.846 377.502 6205.905 377.199 6206.043 C 376.905 6206.164 376.515 6206.346 376.022 6206.578 L 375.849 6206.658 C 374.33 6207.395 372.85 6208.216 371.451 6209.099 C 371.291 6209.19 371.133 6209.29 370.975 6209.393 C 371.408 6209.611 371.741 6210.067 371.864 6210.635 C 371.866 6210.649 371.871 6210.665 371.876 6210.691 C 372.079 6211.657 372.747 6215.131 372.747 6219.179 C 372.747 6222.094 372.4 6224.698 371.714 6226.916 C 370.98 6229.247 369.614 6230.735 368.465 6231.625 C 371.439 6231.486 374.103 6229.615 375.995 6226.324 C 378.49 6221.958 379.014 6216.261 379.014 6212.25 C 379.014 6210.832 378.949 6209.408 378.822 6208.018 C 378.726 6206.997 378.643 6206.391 378.642 6206.386 C 378.567 6205.985 378.354 6205.78 377.996 6205.769 Z " fill="rgb(255,255,255)"/><path d=" M 369.744 6202.379 C 369.705 6202.379 369.666 6202.382 369.626 6202.388 L 369.621 6202.388 L 369.617 6202.388 C 369.525 6202.398 369.431 6202.437 369.334 6202.505 L 369.329 6202.508 L 369.326 6202.51 C 369.319 6202.515 368.667 6202.914 367.658 6203.637 C 367.099 6204.039 366.213 6204.7 365.126 6205.599 C 365.914 6207.237 366.622 6208.909 367.228 6210.575 C 368.526 6209.553 369.946 6208.58 371.561 6207.606 C 371.103 6205.291 370.58 6203.569 370.374 6202.929 C 370.367 6202.908 370.362 6202.892 370.358 6202.88 C 370.233 6202.548 370.026 6202.379 369.744 6202.379 Z " fill="rgb(255,255,255)"/><path d=" M 352.404 6202.379 C 352.122 6202.379 351.915 6202.548 351.79 6202.88 C 351.786 6202.892 351.78 6202.908 351.773 6202.929 C 351.566 6203.569 351.043 6205.291 350.587 6207.606 C 352.202 6208.58 353.621 6209.553 354.918 6210.574 C 355.496 6208.959 356.203 6207.286 357.022 6205.599 C 356.164 6204.887 355.311 6204.228 354.49 6203.637 C 353.482 6202.914 352.828 6202.515 352.823 6202.51 L 352.818 6202.508 L 352.815 6202.505 C 352.716 6202.437 352.622 6202.398 352.53 6202.388 L 352.527 6202.388 L 352.522 6202.388 C 352.483 6202.381 352.441 6202.379 352.404 6202.379 Z " fill="rgb(255,255,255)"/><path d=" M 337.845 6213.213 C 336.971 6213.213 336.463 6213.24 336.458 6213.241 C 336.115 6213.259 335.796 6213.448 335.587 6213.757 C 335.464 6213.942 335.401 6214.17 335.41 6214.4 C 335.471 6215.001 335.873 6217.181 338.474 6220.464 C 339.81 6219.802 341.134 6219.22 342.416 6218.731 C 342.149 6217.095 341.991 6215.309 341.945 6213.418 C 340.353 6213.269 339.099 6213.225 338.317 6213.215 C 338.15 6213.214 337.992 6213.213 337.845 6213.213 Z " fill="rgb(255,255,255)"/><path d=" M 384.3 6213.213 C 384.153 6213.213 383.997 6213.214 383.83 6213.215 C 383.049 6213.225 381.795 6213.269 380.203 6213.418 C 380.159 6215.239 380.001 6217.026 379.73 6218.731 C 381.014 6219.219 382.338 6219.802 383.673 6220.464 C 386.282 6217.172 386.68 6214.99 386.74 6214.394 C 386.76 6214.192 386.648 6213.881 386.563 6213.758 C 386.352 6213.448 386.034 6213.259 385.689 6213.241 C 385.686 6213.24 385.168 6213.213 384.3 6213.213 Z " fill="rgb(255,255,255)"/><path d=" M 379.514 6219.947 C 378.981 6222.632 378.147 6224.979 377.035 6226.924 C 375.876 6228.961 374.425 6230.505 372.717 6231.527 C 385.105 6230.854 388.6 6226.868 388.965 6226.407 L 388.966 6226.406 C 389.089 6226.217 389.152 6226.011 389.152 6225.791 C 389.152 6225.435 388.983 6225.09 388.712 6224.888 C 388.712 6224.888 388.567 6224.792 388.307 6224.615 L 388.304 6224.612 L 388.3 6224.61 C 388.105 6224.46 387.821 6224.275 387.461 6224.039 C 387.367 6223.978 387.267 6223.912 387.164 6223.844 C 386.276 6223.275 384.85 6222.411 383.101 6221.537 C 381.894 6220.926 380.688 6220.392 379.514 6219.947 Z " fill="rgb(255,255,255)"/><path d=" M 342.634 6219.947 C 338.457 6221.53 335.094 6223.732 333.83 6224.614 C 333.578 6224.793 333.434 6224.889 333.429 6224.894 C 333.164 6225.09 332.996 6225.435 332.996 6225.791 C 332.996 6226.01 333.058 6226.215 333.179 6226.402 C 333.189 6226.414 333.196 6226.425 333.202 6226.435 C 333.227 6226.462 333.252 6226.493 333.282 6226.53 C 333.297 6226.547 333.313 6226.567 333.332 6226.59 C 333.417 6226.683 333.616 6226.888 333.926 6227.148 C 334.448 6227.593 335.384 6228.266 336.892 6228.945 C 340.011 6230.359 344.335 6231.252 349.431 6231.537 C 347.742 6230.521 346.26 6228.94 345.112 6226.924 C 344 6224.979 343.168 6222.632 342.634 6219.947 Z " fill="rgb(255,255,255)"/><path d=" M 377.96 6232.432 C 377.326 6232.432 376.387 6232.562 374.967 6232.757 C 374.756 6232.785 374.536 6232.815 374.305 6232.849 C 373.682 6232.937 372.925 6232.977 371.92 6232.977 C 371.304 6232.977 370.666 6232.963 369.99 6232.947 L 369.93 6232.947 C 369.288 6232.932 368.561 6232.916 367.83 6232.916 C 366.313 6232.916 364.35 6232.977 362.621 6233.459 C 362.534 6233.484 362.471 6233.58 362.481 6233.638 C 362.488 6233.694 362.595 6233.714 362.685 6233.714 C 362.711 6233.714 362.737 6233.712 362.765 6233.71 C 363.451 6233.649 364.116 6233.618 364.741 6233.618 C 366.997 6233.618 368.538 6234.008 370.029 6234.384 C 371.432 6234.738 372.755 6235.073 374.596 6235.073 C 376.558 6235.073 378.111 6234.655 378.752 6233.956 C 378.966 6233.721 379.063 6233.463 379.039 6233.192 C 378.988 6232.667 378.819 6232.432 377.96 6232.432 Z " fill="rgb(255,255,255)"/><path d=" M 344.182 6232.432 C 343.327 6232.432 343.161 6232.667 343.108 6233.193 C 343.081 6233.462 343.175 6233.718 343.387 6233.951 C 344.013 6234.643 345.61 6235.073 347.552 6235.073 C 349.392 6235.073 350.716 6234.738 352.119 6234.384 C 353.61 6234.007 355.15 6233.618 357.408 6233.618 C 358.031 6233.618 358.697 6233.649 359.381 6233.71 C 359.411 6233.712 359.438 6233.714 359.463 6233.714 C 359.552 6233.714 359.66 6233.694 359.667 6233.638 C 359.676 6233.58 359.614 6233.484 359.524 6233.459 C 357.799 6232.977 355.835 6232.916 354.317 6232.916 C 353.587 6232.916 352.86 6232.932 352.217 6232.947 L 352.155 6232.947 C 351.48 6232.963 350.842 6232.977 350.228 6232.977 C 349.222 6232.977 348.464 6232.937 347.842 6232.849 C 347.606 6232.815 347.38 6232.785 347.165 6232.755 C 345.748 6232.561 344.814 6232.432 344.182 6232.432 Z " fill="rgb(255,255,255)"/><path d=" M 396.308 6262.185 C 396.037 6262.185 395.818 6261.966 395.818 6261.695 L 395.818 6212.332 C 395.818 6212.061 396.037 6211.842 396.308 6211.842 C 396.579 6211.842 396.798 6212.061 396.798 6212.332 L 396.798 6261.695 C 396.798 6261.966 396.579 6262.185 396.308 6262.185 Z " fill="rgb(255,255,255)"/></g></svg>