<?xml version="1.0" encoding="UTF-8" standalone="no"?><!-- Generator: Gravit.io --><svg xmlns="http://www.w3.org/2000/svg" xmlns:xlink="http://www.w3.org/1999/xlink" style="isolation:isolate" viewBox="799.478 6213.868 112.923 63.828" width="112.923pt" height="63.828pt"><g><path d=" M 838.873 6273.708 C 838.873 6272.233 839.708 6271.301 840.918 6271.301 C 842.133 6271.301 842.978 6272.233 842.978 6273.708 C 842.978 6275.174 842.133 6276.116 840.918 6276.116 C 839.708 6276.116 838.873 6275.174 838.873 6273.708 Z  M 842.231 6273.708 C 842.231 6272.544 841.707 6271.87 840.918 6271.87 C 840.126 6271.87 839.61 6272.538 839.61 6273.708 C 839.61 6274.872 840.135 6275.547 840.918 6275.547 C 841.699 6275.547 842.231 6274.863 842.231 6273.708 Z " fill="rgb(255,255,255)"/><path d=" M 845.66 6271.427 L 846.309 6271.427 L 846.309 6272.448 C 846.584 6271.674 847.009 6271.293 847.64 6271.293 C 847.72 6271.293 847.8 6271.302 847.888 6271.31 L 847.888 6271.994 L 847.773 6271.994 C 846.903 6271.994 846.343 6272.642 846.343 6273.7 L 846.343 6275.991 L 845.66 6275.991 L 845.66 6271.427 Z " fill="rgb(255,255,255)"/><path d=" M 852.996 6275.13 C 852.685 6275.743 852.115 6276.098 851.424 6276.098 C 850.491 6276.098 849.86 6275.512 849.86 6274.712 C 849.86 6273.682 850.784 6273.149 852.605 6273.149 C 852.73 6273.149 852.863 6273.149 852.996 6273.157 L 852.996 6272.874 C 852.996 6272.189 852.632 6271.852 851.86 6271.852 C 851.167 6271.852 850.767 6272.101 850.642 6272.642 L 849.994 6272.545 C 850.18 6271.728 850.846 6271.302 851.975 6271.302 C 853.165 6271.302 853.663 6271.87 853.663 6273.104 L 853.663 6275.058 C 853.663 6275.404 853.69 6275.707 853.786 6275.991 L 853.102 6275.991 C 853.031 6275.734 852.996 6275.441 852.996 6275.13 Z  M 852.464 6273.664 C 851.237 6273.664 850.608 6274.028 850.608 6274.704 C 850.608 6275.2 850.962 6275.53 851.558 6275.53 C 852.356 6275.53 852.996 6274.81 852.996 6273.922 L 852.996 6273.682 C 852.809 6273.664 852.632 6273.664 852.464 6273.664 Z " fill="rgb(255,255,255)"/><path d=" M 856.593 6275.991 L 857.261 6275.991 L 857.261 6273.468 C 857.261 6272.518 857.846 6271.87 858.574 6271.87 C 859.17 6271.87 859.516 6272.287 859.516 6273.042 L 859.516 6275.991 L 860.174 6275.991 L 860.174 6273.104 C 860.174 6271.915 859.658 6271.301 858.69 6271.301 C 858.06 6271.301 857.589 6271.611 857.217 6272.27 L 857.217 6271.426 L 856.593 6271.426 L 856.593 6275.991 Z " fill="rgb(255,255,255)"/><path d=" M 863.078 6272.918 C 863.078 6272.021 863.789 6271.329 864.766 6271.329 C 865.121 6271.329 865.441 6271.408 865.75 6271.576 C 865.832 6271.053 866.159 6270.786 866.719 6270.786 C 866.8 6270.786 866.898 6270.795 867.003 6270.804 L 867.003 6271.31 L 866.772 6271.31 C 866.373 6271.31 866.142 6271.488 866.089 6271.843 C 866.364 6272.181 866.496 6272.528 866.496 6272.9 C 866.496 6273.78 865.839 6274.41 864.757 6274.41 C 864.516 6274.41 864.295 6274.375 864.081 6274.294 C 863.771 6274.384 863.611 6274.534 863.611 6274.73 C 863.611 6275.024 863.815 6275.191 864.197 6275.21 L 865.592 6275.281 C 866.585 6275.334 867.102 6275.725 867.102 6276.408 C 867.102 6277.208 866.32 6277.696 864.837 6277.696 C 863.441 6277.696 862.714 6277.244 862.714 6276.507 C 862.714 6276.071 862.979 6275.725 863.47 6275.583 C 863.131 6275.414 862.979 6275.183 862.979 6274.855 C 862.979 6274.49 863.21 6274.232 863.69 6274.064 C 863.29 6273.788 863.078 6273.397 863.078 6272.918 Z  M 863.388 6276.418 C 863.388 6276.933 863.903 6277.181 864.934 6277.181 C 865.921 6277.181 866.417 6276.924 866.417 6276.462 C 866.417 6276.052 866.079 6275.903 865.386 6275.868 L 863.868 6275.787 C 863.54 6275.937 863.388 6276.124 863.388 6276.418 Z  M 863.771 6272.882 C 863.771 6273.496 864.17 6273.903 864.792 6273.903 C 865.415 6273.903 865.813 6273.496 865.813 6272.882 C 865.813 6272.27 865.406 6271.852 864.792 6271.852 C 864.178 6271.852 863.771 6272.27 863.771 6272.882 Z " fill="rgb(255,255,255)"/><path d=" M 870.991 6276.115 C 869.765 6276.115 868.947 6275.191 868.947 6273.708 C 868.947 6272.252 869.792 6271.301 870.991 6271.301 C 872.216 6271.301 873.007 6272.189 873.007 6273.664 L 873.007 6273.761 L 869.684 6273.761 L 869.684 6273.788 C 869.684 6274.899 870.219 6275.538 871.044 6275.538 C 871.614 6275.538 872.066 6275.22 872.297 6274.649 L 872.945 6274.765 C 872.626 6275.645 871.941 6276.115 870.991 6276.115 Z  M 872.269 6273.265 C 872.235 6272.376 871.763 6271.869 871.026 6271.869 C 870.28 6271.869 869.81 6272.358 869.694 6273.265 L 872.269 6273.265 Z " fill="rgb(255,255,255)"/><path d=" M 871.334 6220.133 C 872.297 6219.308 871.059 6218.689 870.644 6218.138 L 870.439 6217.379 C 868.925 6217.379 867.271 6218.55 866.653 6219.858 C 866.309 6220.616 867.133 6222.061 868.168 6221.922 C 869.338 6221.716 870.369 6221.027 871.334 6220.133 Z  M 868.649 6239.82 C 867.409 6240.231 867.133 6241.679 865.964 6241.747 C 865.276 6241.815 864.862 6241.195 864.932 6240.164 L 864.932 6237.341 C 864.932 6234.587 866.309 6232.042 866.928 6229.426 L 866.584 6228.807 C 865 6229.151 863.142 6230.32 862.454 6231.767 C 861.835 6233.075 861.422 6233.625 860.939 6235.001 C 860.733 6235.689 860.183 6235.964 859.908 6236.447 C 858.599 6238.72 853.988 6244.639 856.121 6242.779 C 862.799 6236.929 860.32 6243.33 862.041 6244.226 C 863.969 6245.256 866.24 6243.33 867.892 6241.884 C 868.443 6241.401 869.267 6239.682 868.649 6239.82 Z " fill="rgb(255,255,255)"/><path d=" M 894.37 6240.898 L 894.145 6240.898 C 893.92 6241.569 893.195 6241.569 892.634 6241.625 C 891.852 6241.68 891.235 6241.29 891.182 6240.506 C 890.846 6237.487 892.188 6234.019 891.965 6230.999 C 891.909 6230.271 892.245 6228.314 890.955 6229.209 C 887.265 6231.725 885.756 6236.032 883.296 6239.443 L 882.849 6239.443 C 883.016 6238.493 882.958 6237.822 882.904 6236.703 C 882.904 6235.696 883.631 6235.417 883.238 6234.578 C 883.072 6234.186 883.461 6233.347 883.517 6232.788 C 883.797 6231.111 884.301 6228.929 883.129 6227.867 C 882.625 6227.475 881.839 6228.258 881.336 6228.706 C 880.387 6229.544 880.164 6230.663 879.604 6231.725 C 878.931 6232.956 878.822 6234.354 878.319 6235.752 C 878.148 6236.312 878.039 6236.648 877.813 6237.095 C 877.536 6237.766 877.536 6238.717 876.92 6239.108 C 876.583 6239.275 876.417 6238.493 876.526 6238.157 C 876.806 6237.487 876.976 6237.095 876.976 6236.48 C 876.92 6235.473 877.143 6234.69 877.365 6233.627 C 877.759 6231.725 879.354 6226.905 879.245 6226.458 C 878.965 6224.948 879.302 6224.905 878.173 6224.764 C 875.12 6224.381 874.572 6227.364 873.173 6230.496 C 872.669 6231.558 872.54 6233.267 872.206 6234.386 C 871.756 6235.672 871.489 6237.912 871.042 6239.198 C 870.93 6239.59 869.343 6243.401 869.007 6244.576 C 869.007 6244.576 868.197 6246.278 867.247 6248.516 C 866.688 6249.802 866.81 6248.588 866.085 6249.93 C 865.414 6251.216 863.575 6251.474 863.071 6252.816 C 862.626 6254.158 862.405 6255.513 864.195 6255.177 C 864.978 6255.065 865.549 6254.685 865.939 6254.015 C 867.001 6252.057 866.464 6253.53 867.247 6251.237 C 867.974 6249.169 868.716 6248.807 869.298 6247.192 C 869.466 6246.185 870.763 6244.565 871.042 6243.559 C 871.881 6240.482 872.495 6239.343 873.368 6235.548 C 873.626 6234.425 873.842 6231.111 875.24 6231.222 C 876.137 6231.279 875.24 6233.124 875.184 6233.963 C 875.075 6234.913 874.795 6235.976 874.625 6236.983 L 874.738 6237.095 C 874.068 6238.55 874.401 6240.506 873.733 6241.961 L 873.396 6247.217 L 873.842 6247.722 C 875.521 6247.89 875.967 6246.099 876.864 6245.092 C 877.813 6244.03 877.536 6242.52 878.206 6241.234 C 878.542 6240.562 878.486 6239.779 878.708 6239.108 C 878.878 6238.381 879.268 6237.822 879.381 6237.095 C 879.604 6235.752 880.05 6234.41 880.499 6233.124 C 880.611 6232.956 880.89 6232.621 881.057 6232.788 C 881.56 6233.404 881.17 6234.354 881.003 6235.306 C 880.777 6236.703 880.667 6238.381 880.387 6239.947 C 880.22 6241.01 879.604 6242.575 880.273 6243.415 C 880.444 6243.694 881.057 6243.694 881.336 6243.415 C 883.238 6241.569 884.58 6239.388 885.923 6237.207 C 886.985 6235.528 887.208 6233.46 889.055 6232.677 C 889.504 6232.453 889.56 6233.347 889.504 6233.74 C 889.447 6235.361 889.224 6236.424 888.83 6237.877 C 888.721 6238.27 888.83 6238.437 888.721 6239.108 C 888.441 6240.73 888.385 6242.687 889.28 6244.03 C 889.39 6244.197 889.56 6244.087 890.007 6244.142 C 890.846 6244.253 891.74 6244.03 892.354 6243.415 C 893.195 6242.575 893.867 6241.904 894.37 6240.898 Z " fill="rgb(255,255,255)"/><path d=" M 851.711 6232.933 C 850.814 6231.969 849.645 6234.171 848.889 6235.136 C 847.581 6236.856 845.998 6238.508 845.929 6240.78 C 845.929 6240.986 846.41 6240.986 846.617 6240.847 C 848.2 6239.679 849.164 6238.233 850.334 6236.58 C 851.09 6235.548 852.742 6233.965 851.711 6232.933 Z  M 863.067 6214.416 C 863.067 6216.895 861.554 6219.167 860.521 6221.438 C 859.627 6223.296 858.456 6224.949 857.561 6226.807 C 856.805 6228.528 855.634 6230.042 855.221 6231.901 C 855.151 6232.176 855.151 6232.245 855.084 6232.381 C 854.12 6234.722 853.707 6237.27 853.019 6239.679 C 852.536 6241.193 852.467 6242.638 852.262 6244.29 C 851.986 6246.491 852.329 6248.696 853.156 6250.692 C 853.499 6251.517 853.845 6252.343 854.189 6253.239 C 854.809 6254.891 857.698 6255.235 856.872 6257.025 C 856.667 6257.576 855.979 6258.056 855.359 6257.988 C 854.947 6257.917 854.809 6258.263 854.74 6257.988 C 854.189 6256.611 852.88 6255.579 852.812 6254.065 C 852.742 6253.239 852.124 6252.894 851.916 6252.206 C 851.365 6251.036 850.814 6250.141 850.814 6248.832 C 850.885 6246.423 850.472 6244.704 850.266 6242.225 C 850.196 6241.262 850.541 6239.059 849.44 6239.679 C 847.306 6240.917 845.791 6244.084 843.725 6243.464 C 842.143 6243.051 845.706 6235.307 848.254 6233.173 L 848.708 6232.752 C 850.303 6230.948 853.363 6230.662 854.258 6227.564 C 855.221 6224.192 855.772 6220.474 857.905 6217.583 C 858.524 6216.688 858.524 6215.655 859.557 6215.311 C 860.728 6214.967 863.067 6212.902 863.067 6214.416 Z " fill="rgb(255,255,255)"/><path d=" M 807.856 6235.154 C 806.959 6234.19 805.789 6236.392 805.034 6237.357 C 803.726 6239.077 802.143 6240.729 802.074 6243 C 802.074 6243.207 802.555 6243.207 802.762 6243.068 C 804.345 6241.9 805.309 6240.454 806.479 6238.801 C 807.235 6237.769 808.887 6236.186 807.856 6235.154 Z  M 819.214 6216.637 C 819.214 6219.116 817.698 6221.387 816.665 6223.659 C 815.772 6225.517 814.601 6227.17 813.705 6229.028 C 812.95 6230.749 811.778 6232.263 811.366 6234.122 C 811.296 6234.396 811.296 6234.465 811.229 6234.602 C 810.265 6236.943 809.852 6239.491 809.163 6241.9 C 808.681 6243.414 808.612 6244.859 808.407 6246.512 C 808.131 6248.712 808.474 6250.916 809.301 6252.913 C 809.644 6253.738 809.99 6254.563 810.334 6255.458 C 810.953 6257.112 813.844 6257.456 813.018 6259.246 C 812.812 6259.797 812.124 6260.277 811.502 6260.208 C 811.092 6260.138 810.953 6260.484 810.884 6260.208 C 810.334 6258.832 809.025 6257.799 808.957 6256.286 C 808.887 6255.458 808.269 6255.115 808.061 6254.428 C 807.51 6253.257 806.959 6252.362 806.959 6251.053 C 807.03 6248.644 806.617 6246.925 806.411 6244.446 C 806.341 6243.483 806.686 6241.28 805.584 6241.9 C 803.451 6243.138 801.936 6246.304 799.87 6245.685 C 798.287 6245.271 801.851 6237.527 804.399 6235.394 L 804.853 6234.973 C 806.448 6233.168 809.507 6232.882 810.403 6229.785 C 811.366 6226.413 811.917 6222.695 814.05 6219.804 C 814.669 6218.909 814.669 6217.875 815.703 6217.532 C 816.873 6217.188 819.214 6215.124 819.214 6216.637 Z " fill="rgb(255,255,255)"/><path d=" M 825.177 6240.482 C 823.868 6240.919 823.576 6242.446 822.34 6242.519 C 821.612 6242.592 821.177 6241.937 821.25 6240.846 L 821.25 6237.863 C 821.25 6234.953 822.28 6232.98 822.935 6230.216 L 822.571 6229.56 C 820.898 6229.924 818.934 6231.162 818.205 6232.689 C 817.55 6234.072 817.538 6233.935 817.029 6235.389 C 816.811 6236.117 815.889 6237.591 815.599 6238.101 C 814.972 6239.189 814.92 6239.218 813.846 6240.766 C 813.558 6241.182 813.131 6242.115 812.359 6242.225 C 812.124 6242.381 811.412 6242.826 811.002 6242.843 L 810.864 6244.092 C 810.955 6244.367 811.919 6244.099 813.517 6242.403 C 814.422 6241.649 814.193 6241.806 814.775 6241.482 C 818.229 6239.567 816.685 6244.354 818.195 6245.137 C 820.23 6246.229 822.631 6244.192 824.378 6242.664 C 824.533 6242.529 826.552 6239.181 827.272 6238.354 C 827.768 6237.362 827.432 6237.06 827.521 6236.867 C 827.775 6236.311 825.534 6240.404 825.177 6240.482 Z " fill="rgb(255,255,255)"/><path d=" M 838.183 6244.337 C 842.258 6242.082 848.416 6236.966 849.218 6232.674 C 849.364 6231.801 846.913 6234.225 846.549 6235.025 C 845.894 6236.626 845.894 6236.116 844.803 6237.426 C 843.277 6239.318 841.966 6242.156 839.347 6242.301 C 837.966 6242.374 838.038 6239.9 838.401 6238.371 C 839.13 6235.171 840.003 6232.188 840.221 6228.987 C 840.294 6228.187 840.657 6227.169 839.857 6226.805 C 838.547 6226.222 837.312 6227.969 836.074 6228.55 C 834.911 6229.06 833.164 6231.315 832.873 6229.788 C 832.656 6228.55 833.455 6227.894 833.819 6226.659 C 833.964 6226.004 835.202 6225.132 834.256 6224.914 C 833.746 6224.769 833.382 6225.495 832.873 6225.714 C 828.652 6227.75 828.581 6231.751 827.926 6235.244 C 827.49 6237.281 826.69 6238.736 826.69 6240.846 C 826.69 6241.791 825.961 6242.374 826.18 6243.392 C 826.326 6244.337 824.58 6246.084 825.38 6246.011 C 826.397 6246.011 827.271 6245.283 827.708 6244.482 C 829.672 6240.918 830.546 6236.845 833.237 6233.643 C 833.964 6232.843 834.183 6231.096 835.492 6231.606 C 836.074 6231.897 835.637 6232.843 835.566 6233.498 C 835.566 6233.716 835.637 6233.79 835.637 6234.153 C 835.566 6237.645 833.674 6242.227 836.584 6244.629 C 836.947 6244.92 837.457 6244.701 838.183 6244.337 Z " fill="rgb(255,255,255)"/><path d=" M 912.071 6240.881 C 912.434 6240.589 912.581 6239.498 912.071 6239.498 C 911.49 6239.498 911.052 6239.862 910.544 6240.081 C 909.598 6240.297 908.214 6240.371 907.85 6239.498 C 906.979 6237.388 908.289 6235.279 908.359 6232.876 C 908.434 6232.077 909.743 6230.841 908.797 6230.695 C 907.27 6230.55 906.47 6232.222 905.304 6233.168 L 905.304 6233.678 C 904.579 6234.915 903.995 6236.224 903.122 6237.461 C 901.959 6239.134 901.084 6242.48 898.759 6242.117 C 897.884 6241.972 898.539 6240.371 898.759 6239.352 C 899.12 6238.042 899.485 6236.879 900.067 6235.787 C 900.504 6234.987 901.377 6234.915 902.394 6234.695 C 904.139 6234.26 905.014 6231.86 905.379 6230.113 C 905.524 6229.458 905.379 6228.366 904.433 6228.73 C 902.249 6229.676 900.575 6231.277 899.268 6233.313 C 898.249 6234.769 897.667 6236.442 896.939 6238.116 C 896.503 6239.207 896.065 6240.226 895.558 6241.317 C 895.118 6242.336 894.757 6243.572 894.902 6244.591 C 895.048 6245.392 896.138 6245.537 896.939 6245.245 C 899.485 6244.445 900.867 6242.188 902.758 6240.444 C 903.05 6240.226 903.56 6239.862 903.632 6240.226 C 903.85 6241.462 904.433 6242.99 905.524 6243.353 C 907.85 6244.227 910.18 6242.336 912.071 6240.881 Z " fill="rgb(255,255,255)"/><path d=" M 827.696 6222.173 C 828.825 6221.206 827.375 6220.481 826.89 6219.835 L 826.648 6218.948 C 824.875 6218.948 822.94 6220.319 822.214 6221.85 C 821.812 6222.737 822.779 6224.43 823.989 6224.269 C 825.357 6224.027 826.567 6223.22 827.696 6222.173 Z " fill="rgb(255,255,255)"/><path d=" M 875.8 6259.847 C 875.731 6259.583 875.53 6258.907 875.196 6257.819 C 874.862 6256.732 874.397 6255.159 873.798 6253.099 C 873.798 6253.076 873.79 6253.027 873.772 6252.952 C 873.755 6252.877 873.747 6252.829 873.747 6252.806 C 873.769 6252.668 873.874 6252.585 874.058 6252.556 C 874.241 6252.527 874.38 6252.52 874.472 6252.529 C 874.724 6252.564 874.912 6252.645 875.032 6252.771 C 875.153 6252.898 875.253 6253.083 875.335 6253.323 L 876.336 6256.62 L 876.404 6256.707 C 876.542 6256.476 876.623 6256.211 876.646 6255.912 C 876.668 6255.613 876.7 6255.322 876.741 6255.042 C 876.781 6254.759 876.858 6254.503 876.974 6254.273 C 877.089 6254.043 877.307 6253.881 877.629 6253.791 C 877.699 6253.791 877.773 6253.804 877.853 6253.833 C 877.935 6253.862 878.011 6253.902 878.087 6253.953 C 878.161 6254.005 878.228 6254.063 878.285 6254.127 C 878.342 6254.19 878.383 6254.256 878.407 6254.325 L 879.338 6257.31 L 879.527 6257.569 C 879.574 6257.362 879.633 6257.028 879.709 6256.568 C 879.784 6256.107 879.858 6255.627 879.933 6255.127 C 880.008 6254.627 880.074 6254.16 880.132 6253.729 C 880.189 6253.297 880.229 6253.001 880.253 6252.84 C 880.253 6252.818 880.255 6252.778 880.262 6252.719 C 880.267 6252.662 880.27 6252.621 880.27 6252.599 C 880.362 6252.495 880.488 6252.417 880.65 6252.366 C 880.81 6252.314 880.955 6252.299 881.081 6252.323 C 881.127 6252.334 881.187 6252.36 881.263 6252.4 C 881.337 6252.441 881.409 6252.493 881.478 6252.556 C 881.548 6252.62 881.602 6252.685 881.642 6252.754 C 881.682 6252.823 881.702 6252.886 881.702 6252.944 L 880.719 6260.02 C 880.707 6260.089 880.667 6260.143 880.598 6260.183 C 880.529 6260.225 880.451 6260.259 880.364 6260.287 C 880.279 6260.315 880.192 6260.333 880.107 6260.339 C 880.02 6260.345 879.954 6260.348 879.908 6260.348 C 879.632 6260.244 879.393 6260.074 879.192 6259.839 C 878.99 6259.604 878.812 6259.34 878.657 6259.053 C 878.501 6258.766 878.363 6258.469 878.242 6258.164 C 878.121 6257.859 877.992 6257.586 877.853 6257.345 L 877.785 6257.327 C 877.704 6257.407 877.638 6257.586 877.587 6257.863 C 877.535 6258.138 877.491 6258.432 877.457 6258.742 C 877.422 6259.053 877.394 6259.333 877.371 6259.579 C 877.347 6259.827 877.336 6259.962 877.336 6259.985 C 877.314 6260.146 877.207 6260.273 877.017 6260.364 C 876.827 6260.458 876.657 6260.491 876.508 6260.468 C 876.346 6260.445 876.206 6260.368 876.085 6260.235 C 875.965 6260.104 875.869 6259.974 875.8 6259.847 Z " fill="rgb(255,255,255)"/><path d=" M 883.242 6247.439 C 883.242 6247.358 883.308 6247.286 883.44 6247.223 C 883.573 6247.16 883.673 6247.128 883.742 6247.128 C 883.915 6247.128 884.107 6247.176 884.321 6247.274 C 884.533 6247.374 884.639 6247.52 884.639 6247.714 C 884.639 6247.911 884.613 6248.043 884.562 6248.111 C 884.51 6248.18 884.387 6248.215 884.19 6248.215 C 883.984 6248.215 883.774 6248.146 883.561 6248.008 C 883.348 6247.87 883.242 6247.681 883.242 6247.439 Z  M 884.208 6260.02 C 884.093 6258.869 883.995 6257.886 883.915 6257.068 C 883.834 6256.252 883.766 6255.567 883.708 6255.015 C 883.649 6254.462 883.601 6254.022 883.561 6253.695 C 883.52 6253.367 883.489 6253.119 883.466 6252.952 C 883.442 6252.785 883.425 6252.674 883.414 6252.616 C 883.402 6252.558 883.397 6252.524 883.397 6252.512 L 883.397 6252.444 C 883.397 6252.317 883.451 6252.211 883.561 6252.125 C 883.67 6252.039 883.782 6251.995 883.898 6251.995 C 884.07 6251.995 884.256 6252.023 884.458 6252.08 C 884.66 6252.139 884.795 6252.259 884.864 6252.444 C 884.968 6253.008 885.039 6253.577 885.079 6254.151 C 885.12 6254.728 885.155 6255.3 885.183 6255.869 C 885.212 6256.438 885.252 6257.011 885.304 6257.586 C 885.356 6258.162 885.45 6258.731 885.589 6259.295 C 885.589 6259.318 885.598 6259.363 885.614 6259.433 C 885.631 6259.502 885.649 6259.577 885.666 6259.657 C 885.684 6259.737 885.698 6259.813 885.71 6259.882 C 885.72 6259.95 885.727 6259.996 885.727 6260.02 L 885.727 6260.054 C 885.727 6260.066 885.732 6260.077 885.744 6260.089 C 885.744 6260.228 885.68 6260.364 885.555 6260.503 C 885.428 6260.641 885.295 6260.698 885.158 6260.675 C 885.123 6260.666 885.039 6260.645 884.907 6260.615 C 884.775 6260.586 884.685 6260.56 884.639 6260.538 C 884.605 6260.526 884.559 6260.5 884.502 6260.46 C 884.444 6260.419 884.389 6260.376 884.338 6260.332 C 884.286 6260.284 884.243 6260.233 884.208 6260.174 C 884.173 6260.117 884.173 6260.066 884.208 6260.02 Z " fill="rgb(255,255,255)"/><path d=" M 892.184 6260.089 C 892.023 6259.859 891.888 6259.539 891.778 6259.13 C 891.669 6258.723 891.566 6258.291 891.468 6257.837 C 891.371 6257.383 891.281 6256.939 891.2 6256.508 C 891.12 6256.076 891.037 6255.731 890.95 6255.472 C 890.864 6255.213 890.769 6255.067 890.666 6255.032 C 890.562 6254.998 890.442 6255.154 890.303 6255.498 L 888.802 6260.123 C 888.744 6260.284 888.675 6260.397 888.595 6260.46 C 888.514 6260.523 888.381 6260.556 888.198 6260.556 C 888.106 6260.556 888.009 6260.54 887.904 6260.512 C 887.801 6260.483 887.703 6260.44 887.61 6260.382 C 887.519 6260.324 887.442 6260.256 887.378 6260.175 C 887.314 6260.094 887.278 6260.002 887.266 6259.899 C 887.301 6259.76 887.332 6259.508 887.361 6259.139 C 887.39 6258.771 887.41 6258.346 887.421 6257.863 C 887.433 6257.379 887.442 6256.87 887.447 6256.336 C 887.452 6255.8 887.452 6255.3 887.447 6254.834 C 887.442 6254.368 887.433 6253.965 887.421 6253.626 C 887.41 6253.287 887.398 6253.065 887.387 6252.961 C 887.387 6252.846 887.39 6252.728 887.395 6252.608 C 887.402 6252.486 887.419 6252.375 887.447 6252.271 C 887.476 6252.167 887.527 6252.084 887.602 6252.021 C 887.677 6251.957 887.795 6251.925 887.956 6251.925 C 888.174 6251.925 888.379 6252.018 888.569 6252.202 C 888.759 6252.387 888.853 6252.582 888.853 6252.789 C 888.853 6253.088 888.839 6253.384 888.811 6253.678 C 888.782 6253.97 888.767 6254.268 888.767 6254.566 L 888.767 6255.032 C 888.767 6255.159 888.79 6255.314 888.837 6255.498 C 888.871 6255.406 888.928 6255.246 889.009 6255.015 C 889.089 6254.785 889.179 6254.543 889.276 6254.291 C 889.373 6254.037 889.464 6253.798 889.544 6253.574 C 889.624 6253.349 889.682 6253.192 889.716 6253.099 C 889.796 6252.869 889.918 6252.648 890.079 6252.435 C 890.24 6252.222 890.452 6252.105 890.717 6252.081 C 890.891 6252.07 891.047 6252.116 891.192 6252.219 C 891.336 6252.323 891.459 6252.458 891.563 6252.625 C 891.667 6252.792 891.753 6252.965 891.821 6253.142 C 891.891 6253.321 891.943 6253.473 891.977 6253.6 L 892.909 6257.896 L 893.633 6259.865 C 893.645 6259.876 893.651 6259.908 893.651 6259.959 L 893.651 6260.072 C 893.651 6260.209 893.619 6260.345 893.557 6260.477 C 893.492 6260.61 893.381 6260.675 893.22 6260.675 C 893.024 6260.675 892.822 6260.622 892.615 6260.512 C 892.408 6260.403 892.265 6260.262 892.184 6260.089 Z " fill="rgb(255,255,255)"/><path d=" M 902.508 6255.775 C 902.485 6255.982 902.459 6256.142 902.431 6256.257 C 902.402 6256.372 902.353 6256.476 902.283 6256.568 C 902.215 6256.66 902.118 6256.754 901.991 6256.852 C 901.864 6256.951 901.692 6257.089 901.473 6257.267 C 901.255 6257.445 900.984 6257.679 900.661 6257.966 C 900.34 6258.253 899.948 6258.627 899.488 6259.088 C 899.304 6259.261 899.115 6259.439 898.92 6259.622 C 898.723 6259.807 898.519 6259.971 898.307 6260.115 C 898.093 6260.259 897.872 6260.376 897.642 6260.468 C 897.411 6260.561 897.171 6260.606 896.917 6260.606 C 896.422 6260.606 896.06 6260.44 895.831 6260.106 C 895.599 6259.772 895.484 6259.387 895.484 6258.949 C 895.484 6258.662 895.493 6258.42 895.511 6258.225 C 895.528 6258.029 895.571 6257.776 895.639 6257.465 C 895.514 6257.35 895.404 6257.249 895.312 6257.163 C 895.22 6257.077 895.174 6256.96 895.174 6256.81 C 895.174 6256.671 895.206 6256.579 895.269 6256.534 C 895.331 6256.488 895.407 6256.455 895.493 6256.438 C 895.58 6256.421 895.663 6256.401 895.743 6256.378 C 895.824 6256.356 895.881 6256.309 895.916 6256.24 C 895.939 6256.172 895.982 6256.045 896.045 6255.86 C 896.109 6255.677 896.175 6255.484 896.244 6255.283 C 896.313 6255.081 896.379 6254.891 896.443 6254.713 C 896.506 6254.534 896.549 6254.411 896.572 6254.341 C 896.652 6254.146 896.741 6253.948 896.84 6253.746 C 896.937 6253.545 897.052 6253.364 897.184 6253.203 C 897.317 6253.041 897.472 6252.909 897.651 6252.806 C 897.829 6252.702 898.039 6252.651 898.281 6252.651 C 898.418 6252.651 898.587 6252.714 898.789 6252.84 C 898.991 6252.967 899.184 6253.119 899.367 6253.297 C 899.551 6253.476 899.707 6253.663 899.833 6253.859 C 899.96 6254.054 900.023 6254.221 900.023 6254.359 C 900.023 6254.532 899.983 6254.691 899.903 6254.833 C 899.822 6254.978 899.721 6255.11 899.6 6255.23 C 899.48 6255.352 899.351 6255.463 899.212 6255.567 C 899.075 6255.671 898.947 6255.768 898.833 6255.86 C 898.82 6255.86 898.798 6255.872 898.763 6255.895 C 898.729 6255.918 898.7 6255.935 898.677 6255.947 C 898.666 6255.958 898.64 6255.984 898.599 6256.024 C 898.559 6256.065 898.516 6256.107 898.47 6256.154 C 898.424 6256.2 898.38 6256.246 898.34 6256.292 C 898.3 6256.339 898.274 6256.366 898.263 6256.378 C 898.229 6256.413 898.162 6256.468 898.065 6256.542 C 897.966 6256.617 897.86 6256.697 897.745 6256.784 C 897.63 6256.87 897.524 6256.951 897.426 6257.026 C 897.329 6257.101 897.263 6257.149 897.228 6257.172 L 897.159 6257.31 C 897.135 6257.357 897.115 6257.456 897.098 6257.612 C 897.081 6257.768 897.061 6257.943 897.038 6258.138 C 897.014 6258.335 896.995 6258.533 896.977 6258.734 C 896.96 6258.935 896.951 6259.099 896.951 6259.226 C 896.951 6259.238 896.957 6259.249 896.969 6259.261 C 896.992 6259.283 897.009 6259.295 897.021 6259.295 C 897.113 6259.295 897.198 6259.255 897.28 6259.174 C 897.36 6259.093 897.446 6259.036 897.538 6259.001 L 900.3 6256.447 L 901.008 6255.361 C 901.065 6255.279 901.177 6255.191 901.343 6255.093 C 901.511 6254.995 901.68 6254.943 901.854 6254.938 C 902.025 6254.931 902.177 6254.986 902.31 6255.101 C 902.442 6255.216 902.508 6255.441 902.508 6255.775 Z  M 898.712 6254.428 C 898.769 6254.382 898.793 6254.313 898.781 6254.221 C 898.769 6254.129 898.738 6254.049 898.687 6253.979 C 898.634 6253.911 898.568 6253.868 898.487 6253.851 C 898.406 6253.833 898.332 6253.876 898.263 6253.979 C 898.229 6254.026 898.168 6254.118 898.082 6254.256 C 897.995 6254.393 897.91 6254.534 897.823 6254.679 C 897.736 6254.823 897.665 6254.946 897.607 6255.049 C 897.55 6255.153 897.538 6255.194 897.573 6255.17 L 898.712 6254.428 Z " fill="rgb(255,255,255)"/><path d=" M 906.465 6260.02 C 906.465 6259.962 906.467 6259.911 906.473 6259.865 C 906.479 6259.819 906.505 6259.772 906.551 6259.727 C 906.688 6259.554 906.845 6259.372 907.016 6259.183 C 907.189 6258.993 907.356 6258.804 907.517 6258.614 C 907.678 6258.424 907.827 6258.226 907.966 6258.019 C 908.104 6257.811 908.219 6257.604 908.311 6257.397 L 908.311 6257.292 L 906.051 6257.759 L 905.791 6257.759 C 905.63 6257.759 905.431 6257.749 905.196 6257.725 C 904.96 6257.702 904.73 6257.653 904.506 6257.578 C 904.281 6257.504 904.091 6257.397 903.936 6257.259 C 903.78 6257.121 903.703 6256.936 903.703 6256.706 C 903.714 6256.442 903.853 6256.149 904.118 6255.826 C 904.382 6255.504 904.692 6255.188 905.049 6254.876 C 905.405 6254.566 905.765 6254.279 906.128 6254.015 C 906.49 6253.75 906.781 6253.542 906.999 6253.393 C 907.241 6253.255 907.529 6253.143 907.862 6253.057 C 908.195 6252.97 908.501 6252.927 908.776 6252.927 C 909.008 6252.927 909.208 6252.97 909.382 6253.057 C 909.554 6253.143 909.64 6253.313 909.64 6253.566 C 909.64 6253.67 909.631 6253.767 909.613 6253.86 C 909.596 6253.952 909.525 6254.015 909.398 6254.049 C 909.03 6254.015 908.684 6254.04 908.362 6254.126 C 908.04 6254.213 907.736 6254.342 907.448 6254.515 C 907.16 6254.688 906.89 6254.892 906.637 6255.128 C 906.383 6255.363 906.136 6255.608 905.894 6255.861 C 905.826 6255.942 905.74 6256.054 905.637 6256.198 C 905.533 6256.341 905.48 6256.424 905.48 6256.448 L 905.48 6256.465 C 905.78 6256.465 906.075 6256.436 906.369 6256.379 C 906.663 6256.322 906.956 6256.261 907.25 6256.198 C 907.543 6256.134 907.836 6256.075 908.13 6256.016 C 908.423 6255.958 908.726 6255.93 909.035 6255.93 C 909.151 6255.93 909.278 6255.938 909.415 6255.956 C 909.554 6255.974 909.683 6256.011 909.803 6256.068 C 909.925 6256.125 910.022 6256.204 910.097 6256.301 C 910.172 6256.399 910.21 6256.521 910.21 6256.672 C 910.21 6256.891 910.154 6257.101 910.045 6257.302 C 909.936 6257.504 909.775 6257.745 909.562 6258.027 C 909.349 6258.309 909.079 6258.65 908.751 6259.054 C 908.423 6259.456 908.035 6259.974 907.586 6260.605 C 907.563 6260.642 907.509 6260.665 907.422 6260.676 C 907.335 6260.687 907.264 6260.694 907.206 6260.694 C 907.045 6260.694 906.881 6260.624 906.714 6260.486 C 906.547 6260.348 906.465 6260.192 906.465 6260.02 Z " fill="rgb(255,255,255)"/></g></svg>