<?xml version="1.0" encoding="UTF-8" standalone="no"?><!-- Generator: Gravit.io --><svg xmlns="http://www.w3.org/2000/svg" xmlns:xlink="http://www.w3.org/1999/xlink" style="isolation:isolate" viewBox="965.765 6217.815 122.124 42.201" width="122.124pt" height="42.201pt"><g><path d=" M 973.031 6229.563 L 973.031 6234.688 L 973.985 6234.688 C 975.567 6234.688 976.633 6234.489 977.183 6234.09 C 977.732 6233.691 978.008 6233.111 978.008 6232.35 C 978.008 6231.488 977.685 6230.809 977.039 6230.311 C 976.394 6229.812 975.322 6229.563 973.822 6229.563 L 973.031 6229.563 Z  M 973.031 6221.949 L 973.031 6226.163 L 973.864 6226.163 C 974.792 6226.163 975.481 6225.968 975.931 6225.579 C 976.382 6225.188 976.607 6224.659 976.607 6223.987 C 976.607 6223.362 976.393 6222.867 975.965 6222.499 C 975.538 6222.131 974.887 6221.949 974.014 6221.949 L 973.031 6221.949 Z  M 969.224 6238.318 L 969.224 6218.317 L 972.368 6218.317 C 974.193 6218.317 975.527 6218.436 976.371 6218.671 C 977.569 6218.988 978.522 6219.578 979.23 6220.438 C 979.938 6221.3 980.292 6222.315 980.292 6223.484 C 980.292 6224.246 980.131 6224.938 979.809 6225.559 C 979.487 6226.18 978.964 6226.762 978.239 6227.306 C 979.453 6227.876 980.341 6228.59 980.904 6229.446 C 981.466 6230.304 981.747 6231.316 981.747 6232.485 C 981.747 6233.609 981.456 6234.633 980.875 6235.559 C 980.294 6236.483 979.546 6237.174 978.63 6237.632 C 977.713 6238.089 976.447 6238.318 974.832 6238.318 L 969.224 6238.318 Z " fill="rgb(255,255,255)"/><path d=" M 990.545 6226.571 C 989.398 6226.571 988.444 6226.977 987.686 6227.788 C 986.927 6228.599 986.547 6229.639 986.547 6230.908 C 986.547 6232.186 986.933 6233.238 987.706 6234.063 C 988.478 6234.888 989.429 6235.3 990.559 6235.3 C 991.724 6235.3 992.691 6234.894 993.458 6234.083 C 994.226 6233.272 994.61 6232.209 994.61 6230.895 C 994.61 6229.608 994.226 6228.565 993.458 6227.768 C 992.691 6226.97 991.719 6226.571 990.545 6226.571 Z  M 994.447 6223.525 L 998.159 6223.525 L 998.159 6238.319 L 994.447 6238.319 L 994.447 6236.755 C 993.722 6237.444 992.996 6237.94 992.267 6238.244 C 991.538 6238.547 990.748 6238.699 989.897 6238.699 C 987.987 6238.699 986.334 6237.958 984.94 6236.476 C 983.546 6234.994 982.849 6233.152 982.849 6230.949 C 982.849 6228.665 983.523 6226.793 984.873 6225.334 C 986.222 6223.874 987.86 6223.145 989.789 6223.145 C 990.676 6223.145 991.509 6223.313 992.287 6223.648 C 993.066 6223.983 993.786 6224.486 994.447 6225.157 L 994.447 6223.525 Z " fill="rgb(255,255,255)"/><path d=" M 999.799 6217.815 L 999.799 6238.319 L 1003.511 6238.319 L 1003.511 6231.501 L 1009.793 6238.319 L 1014.401 6238.319 L 1007.266 6230.616 L 1013.639 6223.526 L 1008.977 6223.526 L 1003.511 6229.625 L 1003.511 6217.815 L 999.799 6217.815 Z " fill="rgb(255,255,255)"/><path d=" M 1023.867 6229.073 C 1023.622 6228.248 1023.138 6227.577 1022.416 6227.061 C 1021.695 6226.544 1020.857 6226.286 1019.904 6226.286 C 1018.868 6226.286 1017.961 6226.576 1017.18 6227.156 C 1016.689 6227.518 1016.236 6228.158 1015.818 6229.073 L 1023.867 6229.073 Z  M 1027.579 6231.996 L 1015.655 6231.996 C 1015.827 6233.048 1016.287 6233.884 1017.035 6234.505 C 1017.783 6235.126 1018.736 6235.436 1019.897 6235.436 C 1021.284 6235.436 1022.475 6234.951 1023.473 6233.982 L 1026.6 6235.45 C 1025.82 6236.556 1024.887 6237.374 1023.799 6237.904 C 1022.711 6238.434 1021.42 6238.699 1019.924 6238.699 C 1017.603 6238.699 1015.714 6237.968 1014.254 6236.504 C 1012.794 6235.04 1012.065 6233.207 1012.065 6231.004 C 1012.065 6228.747 1012.792 6226.873 1014.247 6225.381 C 1015.702 6223.891 1017.526 6223.145 1019.72 6223.145 C 1022.049 6223.145 1023.944 6223.891 1025.403 6225.381 C 1026.863 6226.873 1027.592 6228.842 1027.592 6231.289 L 1027.579 6231.996 Z " fill="rgb(255,255,255)"/><path d=" M 1028.984 6223.525 L 1032.166 6223.525 L 1032.166 6225.389 C 1032.51 6224.653 1032.968 6224.097 1033.538 6223.715 C 1034.109 6223.335 1034.734 6223.145 1035.415 6223.145 C 1035.896 6223.145 1036.399 6223.271 1036.925 6223.525 L 1035.769 6226.721 C 1035.333 6226.503 1034.974 6226.395 1034.693 6226.395 C 1034.123 6226.395 1033.641 6226.748 1033.246 6227.455 C 1032.851 6228.163 1032.655 6229.548 1032.655 6231.616 L 1032.668 6232.336 L 1032.668 6238.318 L 1028.984 6238.318 L 1028.984 6223.525 Z " fill="rgb(255,255,255)"/><path d=" M 982.252 6239.634 L 977.573 6253.584 L 972.937 6239.634 L 969.227 6239.634 L 965.765 6259.635 L 969.477 6259.635 L 971.672 6247.003 L 975.884 6259.635 L 979.239 6259.635 L 983.488 6247.003 L 985.633 6259.635 L 989.314 6259.635 L 985.959 6239.634 L 982.252 6239.634 Z " fill="rgb(255,255,255)"/><path d=" M 1004.542 6247.833 L 1001.452 6249.533 C 1000.871 6248.925 1000.297 6248.504 999.73 6248.268 C 999.163 6248.033 998.498 6247.914 997.736 6247.914 C 996.347 6247.914 995.224 6248.329 994.366 6249.157 C 993.508 6249.985 993.08 6251.046 993.08 6252.34 C 993.08 6253.598 993.493 6254.626 994.319 6255.422 C 995.144 6256.218 996.229 6256.616 997.572 6256.616 C 999.233 6256.616 1000.526 6256.05 1001.452 6254.917 L 1004.379 6256.921 C 1002.792 6258.984 1000.553 6260.016 997.662 6260.016 C 995.06 6260.016 993.023 6259.245 991.55 6257.704 C 990.077 6256.163 989.341 6254.36 989.341 6252.293 C 989.341 6250.861 989.699 6249.542 990.415 6248.336 C 991.131 6247.131 992.13 6246.183 993.413 6245.494 C 994.696 6244.806 996.13 6244.461 997.716 6244.461 C 999.185 6244.461 1000.504 6244.753 1001.673 6245.338 C 1002.842 6245.923 1003.799 6246.755 1004.542 6247.833 Z " fill="rgb(255,255,255)"/><path d=" M 1005.887 6239.634 L 1009.735 6239.634 L 1009.735 6246.529 L 1015.165 6239.634 L 1019.736 6239.634 L 1012.752 6248.56 L 1020.415 6259.635 L 1015.901 6259.635 L 1009.735 6250.748 L 1009.735 6259.635 L 1005.887 6259.635 L 1005.887 6239.634 Z " fill="rgb(255,255,255)"/><path d=" M 1030.455 6250.389 C 1030.21 6249.564 1029.726 6248.894 1029.005 6248.377 C 1028.283 6247.86 1027.445 6247.602 1026.492 6247.602 C 1025.457 6247.602 1024.549 6247.892 1023.768 6248.472 C 1023.277 6248.834 1022.824 6249.474 1022.406 6250.389 L 1030.455 6250.389 Z  M 1034.167 6253.312 L 1022.243 6253.312 C 1022.415 6254.364 1022.875 6255.2 1023.623 6255.821 C 1024.371 6256.442 1025.324 6256.752 1026.485 6256.752 C 1027.872 6256.752 1029.064 6256.268 1030.061 6255.298 L 1033.188 6256.766 C 1032.408 6257.872 1031.475 6258.69 1030.387 6259.22 C 1029.299 6259.75 1028.008 6260.015 1026.512 6260.015 C 1024.191 6260.015 1022.302 6259.284 1020.842 6257.82 C 1019.383 6256.356 1018.653 6254.523 1018.653 6252.32 C 1018.653 6250.063 1019.38 6248.189 1020.835 6246.698 C 1022.29 6245.207 1024.114 6244.461 1026.308 6244.461 C 1028.638 6244.461 1030.532 6245.207 1031.992 6246.698 C 1033.451 6248.189 1034.181 6250.158 1034.181 6252.605 L 1034.167 6253.312 Z " fill="rgb(255,255,255)"/><path d=" M 1035.458 6244.841 L 1039.17 6244.841 L 1039.17 6246.357 C 1040.012 6245.648 1040.774 6245.154 1041.458 6244.876 C 1042.141 6244.6 1042.84 6244.46 1043.555 6244.46 C 1045.022 6244.46 1046.266 6244.972 1047.289 6245.998 C 1048.149 6246.867 1048.579 6248.154 1048.579 6249.858 L 1048.579 6259.634 L 1044.908 6259.634 L 1044.908 6253.156 C 1044.908 6251.392 1044.829 6250.218 1044.67 6249.639 C 1044.512 6249.06 1044.236 6248.618 1043.843 6248.315 C 1043.449 6248.011 1042.963 6247.859 1042.385 6247.859 C 1041.634 6247.859 1040.99 6248.111 1040.452 6248.613 C 1039.914 6249.116 1039.541 6249.812 1039.333 6250.698 C 1039.224 6251.16 1039.17 6252.16 1039.17 6253.699 L 1039.17 6259.634 L 1035.458 6259.634 L 1035.458 6244.841 Z " fill="rgb(255,255,255)"/><path d=" M 1050.637 6244.841 L 1061.963 6244.841 L 1055.317 6256.495 L 1061.583 6256.495 L 1061.583 6259.634 L 1049.617 6259.634 L 1056.294 6247.982 L 1050.637 6247.982 L 1050.637 6244.841 Z " fill="rgb(255,255,255)"/><path d=" M 1079.771 6250.389 C 1079.526 6249.564 1079.042 6248.894 1078.32 6248.377 C 1077.599 6247.86 1076.761 6247.602 1075.808 6247.602 C 1074.773 6247.602 1073.865 6247.892 1073.084 6248.472 C 1072.593 6248.834 1072.14 6249.474 1071.722 6250.389 L 1079.771 6250.389 Z  M 1083.483 6253.312 L 1071.559 6253.312 C 1071.731 6254.364 1072.191 6255.2 1072.939 6255.821 C 1073.687 6256.442 1074.64 6256.752 1075.801 6256.752 C 1077.188 6256.752 1078.38 6256.268 1079.377 6255.298 L 1082.504 6256.766 C 1081.724 6257.872 1080.791 6258.69 1079.703 6259.22 C 1078.615 6259.75 1077.324 6260.015 1075.828 6260.015 C 1073.507 6260.015 1071.618 6259.284 1070.158 6257.82 C 1068.698 6256.356 1067.969 6254.523 1067.969 6252.32 C 1067.969 6250.063 1068.696 6248.189 1070.151 6246.698 C 1071.606 6245.207 1073.43 6244.461 1075.624 6244.461 C 1077.953 6244.461 1079.848 6245.207 1081.307 6246.698 C 1082.767 6248.189 1083.497 6250.158 1083.497 6252.605 L 1083.483 6253.312 Z " fill="rgb(255,255,255)"/><path d=" M 1063.02 6244.841 L 1066.732 6244.841 L 1066.732 6259.634 L 1063.02 6259.634 L 1063.02 6244.841 Z " fill="rgb(255,255,255)"/><path d=" M 1063.019 6243.611 L 1066.727 6243.611 L 1066.727 6240.806 L 1063.019 6240.806 L 1063.019 6243.611 Z " fill="rgb(255,255,255)"/><path d=" M 1084.391 6259.62 L 1087.889 6259.62 L 1087.889 6256.815 L 1084.391 6256.815 L 1084.391 6259.62 Z " fill="rgb(255,255,255)"/></g></svg>