<?xml version="1.0" encoding="UTF-8" standalone="no"?><!-- Generator: Gravit.io --><svg xmlns="http://www.w3.org/2000/svg" xmlns:xlink="http://www.w3.org/1999/xlink" style="isolation:isolate" viewBox="1148.721 6189.808 45.874 78.678" width="45.874pt" height="78.678pt"><g><path d=" M 1157.058 6262.832 L 1161.155 6262.832 L 1161.155 6247.916 L 1157.058 6247.916 L 1157.058 6262.832 Z  M 1161.155 6242.231 L 1157.058 6242.231 L 1157.058 6245.607 L 1161.155 6245.607 L 1161.155 6242.231 Z  M 1177.658 6247.915 L 1173.763 6247.915 L 1173.763 6249.906 L 1173.706 6249.906 C 1172.725 6248.175 1171.224 6247.511 1169.263 6247.511 C 1165.079 6247.511 1162.858 6251.031 1162.858 6254.897 C 1162.858 6258.994 1164.762 6262.399 1169.234 6262.399 C 1171.023 6262.399 1172.811 6261.649 1173.706 6260.091 L 1173.763 6260.091 L 1173.763 6262.053 C 1173.792 6264.188 1172.754 6265.746 1170.474 6265.746 C 1169.032 6265.746 1167.791 6265.226 1167.416 6263.697 L 1163.348 6263.697 C 1163.55 6267.102 1166.983 6268.486 1169.926 6268.486 C 1176.793 6268.486 1177.658 6264.332 1177.658 6261.879 L 1177.658 6247.915 Z  M 1170.272 6259.312 C 1167.762 6259.312 1166.954 6256.975 1166.954 6254.84 C 1166.954 6252.618 1167.964 6250.598 1170.272 6250.598 C 1172.927 6250.598 1173.763 6252.762 1173.763 6255.186 C 1173.763 6257.321 1172.609 6259.312 1170.272 6259.312 Z  M 1179.88 6262.832 L 1183.977 6262.832 L 1183.977 6255.013 C 1183.977 6251.983 1184.929 6250.743 1187.15 6250.743 C 1189.055 6250.743 1189.776 6251.954 1189.776 6254.407 L 1189.776 6262.832 L 1193.873 6262.832 L 1193.873 6253.657 C 1193.873 6249.964 1192.776 6247.511 1188.42 6247.511 C 1186.689 6247.511 1184.9 6248.319 1183.861 6249.993 L 1183.775 6249.993 L 1183.775 6247.915 L 1179.88 6247.915 L 1179.88 6262.832 Z " fill="rgb(255,255,255)"/><path d=" M 1160.088 6248.406 L 1163.983 6248.406 L 1163.983 6227.806 L 1159.886 6227.806 L 1159.886 6235.307 L 1159.828 6235.307 C 1158.905 6233.836 1157.174 6233.086 1155.414 6233.086 C 1151.029 6233.086 1148.807 6236.808 1148.807 6240.818 C 1148.807 6244.944 1151 6248.81 1155.501 6248.81 C 1157.405 6248.81 1159.078 6248.117 1160.03 6246.501 L 1160.088 6246.501 L 1160.088 6248.406 Z  M 1160.03 6240.905 C 1160.03 6243.357 1159.222 6245.723 1156.51 6245.723 C 1153.971 6245.723 1152.904 6243.27 1152.904 6240.933 C 1152.904 6238.48 1153.827 6236.173 1156.51 6236.173 C 1159.165 6236.173 1160.03 6238.48 1160.03 6240.905 Z  M 1180.14 6241.943 C 1180.428 6237.355 1177.976 6233.086 1172.898 6233.086 C 1168.368 6233.086 1165.281 6236.49 1165.281 6240.962 C 1165.281 6245.579 1168.195 6248.81 1172.898 6248.81 C 1176.274 6248.81 1178.726 6247.31 1179.88 6243.79 L 1176.274 6243.79 C 1176.014 6244.713 1174.687 6245.723 1173.042 6245.723 C 1170.763 6245.723 1169.493 6244.54 1169.378 6241.943 L 1180.14 6241.943 Z  M 1169.378 6239.347 C 1169.436 6238.193 1170.186 6236.173 1172.782 6236.173 C 1174.773 6236.173 1175.668 6237.269 1176.043 6239.347 L 1169.378 6239.347 Z  M 1180.774 6243.559 C 1180.947 6247.512 1184.323 6248.81 1187.785 6248.81 C 1191.189 6248.81 1194.594 6247.54 1194.594 6243.617 C 1194.594 6240.847 1192.257 6239.98 1189.862 6239.433 C 1187.525 6238.885 1185.217 6238.683 1185.217 6237.212 C 1185.217 6236 1186.573 6235.827 1187.496 6235.827 C 1188.968 6235.827 1190.18 6236.259 1190.295 6237.846 L 1194.19 6237.846 C 1193.873 6234.182 1190.872 6233.086 1187.612 6233.086 C 1184.409 6233.086 1181.12 6234.067 1181.12 6237.875 C 1181.12 6240.5 1183.486 6241.337 1185.852 6241.857 C 1188.795 6242.491 1190.497 6242.924 1190.497 6244.165 C 1190.497 6245.607 1188.997 6246.069 1187.814 6246.069 C 1186.198 6246.069 1184.698 6245.348 1184.669 6243.559 L 1180.774 6243.559 Z " fill="rgb(255,255,255)"/><path d=" M 1157.607 6233.98 L 1161.704 6233.98 L 1161.704 6213.38 L 1157.607 6213.38 L 1157.607 6233.98 Z  M 1173.157 6228.21 C 1173.157 6229.104 1173.042 6231.643 1169.84 6231.643 C 1168.512 6231.643 1167.329 6231.268 1167.329 6229.739 C 1167.329 6228.238 1168.484 6227.806 1169.753 6227.546 C 1171.022 6227.315 1172.465 6227.286 1173.157 6226.68 L 1173.157 6228.21 Z  M 1167.791 6223.651 C 1167.935 6222.035 1168.945 6221.401 1170.503 6221.401 C 1171.946 6221.401 1173.157 6221.66 1173.157 6223.42 C 1173.157 6225.094 1170.821 6225.007 1168.31 6225.382 C 1165.771 6225.728 1163.233 6226.536 1163.233 6229.912 C 1163.233 6232.97 1165.483 6234.384 1168.31 6234.384 C 1170.128 6234.384 1172.032 6233.893 1173.331 6232.537 C 1173.359 6233.028 1173.475 6233.518 1173.619 6233.98 L 1177.774 6233.98 C 1177.399 6233.374 1177.254 6232.018 1177.254 6230.662 L 1177.254 6222.901 C 1177.254 6219.323 1173.677 6218.66 1170.705 6218.66 C 1167.358 6218.66 1163.925 6219.814 1163.694 6223.651 L 1167.791 6223.651 Z  M 1179.36 6233.98 L 1183.255 6233.98 L 1183.255 6232.076 L 1183.313 6232.076 C 1184.207 6233.72 1186.025 6234.384 1188.218 6234.384 C 1191.189 6234.384 1194.392 6231.989 1194.392 6226.507 C 1194.392 6221.054 1191.189 6218.66 1188.218 6218.66 C 1186.371 6218.66 1184.525 6219.352 1183.515 6220.881 L 1183.457 6220.881 L 1183.457 6213.38 L 1179.36 6213.38 L 1179.36 6233.98 Z  M 1190.295 6226.536 C 1190.295 6229.017 1189.228 6231.297 1186.804 6231.297 C 1184.38 6231.297 1183.313 6229.017 1183.313 6226.536 C 1183.313 6224.026 1184.38 6221.747 1186.804 6221.747 C 1189.228 6221.747 1190.295 6224.026 1190.295 6226.536 Z " fill="rgb(255,255,255)"/><path d=" M 1179.101 6209.889 C 1178.841 6206.081 1175.61 6204.234 1172.09 6204.234 C 1167.243 6204.234 1164.473 6207.667 1164.473 6212.313 C 1164.473 6216.785 1167.503 6219.958 1172.003 6219.958 C 1175.927 6219.958 1178.668 6217.794 1179.188 6213.842 L 1175.235 6213.842 C 1174.975 6215.659 1173.879 6216.871 1171.975 6216.871 C 1169.407 6216.871 1168.57 6214.303 1168.57 6212.168 C 1168.57 6209.976 1169.436 6207.321 1172.061 6207.321 C 1173.763 6207.321 1174.831 6208.216 1175.091 6209.889 L 1179.101 6209.889 Z  M 1194.565 6213.092 C 1194.854 6208.504 1192.401 6204.234 1187.323 6204.234 C 1182.794 6204.234 1179.707 6207.639 1179.707 6212.111 C 1179.707 6216.727 1182.621 6219.958 1187.323 6219.958 C 1190.699 6219.958 1193.151 6218.458 1194.305 6214.938 L 1190.699 6214.938 C 1190.439 6215.861 1189.112 6216.871 1187.468 6216.871 C 1185.188 6216.871 1183.919 6215.688 1183.804 6213.092 L 1194.565 6213.092 Z  M 1183.804 6210.495 C 1183.861 6209.341 1184.611 6207.321 1187.208 6207.321 C 1189.199 6207.321 1190.093 6208.418 1190.468 6210.495 L 1183.804 6210.495 Z " fill="rgb(255,255,255)"/><path d=" M 1148.721 6200.281 C 1148.894 6204.234 1152.27 6205.532 1155.732 6205.532 C 1159.136 6205.532 1162.541 6204.263 1162.541 6200.339 C 1162.541 6197.569 1160.204 6196.703 1157.809 6196.155 C 1155.472 6195.607 1153.164 6195.405 1153.164 6193.934 C 1153.164 6192.722 1154.52 6192.549 1155.443 6192.549 C 1156.915 6192.549 1158.127 6192.982 1158.242 6194.568 L 1162.137 6194.568 C 1161.82 6190.904 1158.819 6189.808 1155.559 6189.808 C 1152.356 6189.808 1149.067 6190.789 1149.067 6194.597 C 1149.067 6197.223 1151.433 6198.059 1153.799 6198.579 C 1156.742 6199.213 1158.444 6199.646 1158.444 6200.887 C 1158.444 6202.329 1156.944 6202.791 1155.761 6202.791 C 1154.145 6202.791 1152.645 6202.07 1152.616 6200.281 L 1148.721 6200.281 Z  M 1163.868 6210.379 L 1167.965 6210.379 L 1167.965 6203.282 L 1168.022 6203.282 C 1169.003 6204.753 1170.705 6205.532 1172.494 6205.532 C 1176.851 6205.532 1179.044 6201.81 1179.044 6197.829 C 1179.044 6193.587 1176.938 6189.808 1172.263 6189.808 C 1170.417 6189.808 1168.801 6190.529 1167.82 6192.116 L 1167.763 6192.116 L 1167.763 6190.212 L 1163.868 6190.212 L 1163.868 6210.379 Z  M 1171.398 6202.445 C 1168.744 6202.445 1167.82 6200.137 1167.82 6197.713 C 1167.82 6195.29 1168.686 6192.895 1171.369 6192.895 C 1173.995 6192.895 1174.947 6195.347 1174.947 6197.713 C 1174.947 6200.137 1174.081 6202.445 1171.398 6202.445 Z  M 1189.719 6199.358 C 1189.719 6200.252 1189.603 6202.791 1186.401 6202.791 C 1185.073 6202.791 1183.891 6202.416 1183.891 6200.887 C 1183.891 6199.387 1185.045 6198.954 1186.314 6198.694 C 1187.584 6198.463 1189.026 6198.435 1189.719 6197.829 L 1189.719 6199.358 Z  M 1184.352 6194.799 C 1184.496 6193.184 1185.506 6192.549 1187.064 6192.549 C 1188.507 6192.549 1189.719 6192.808 1189.719 6194.568 C 1189.719 6196.242 1187.382 6196.155 1184.872 6196.53 C 1182.333 6196.877 1179.794 6197.684 1179.794 6201.06 C 1179.794 6204.118 1182.044 6205.532 1184.872 6205.532 C 1186.689 6205.532 1188.593 6205.042 1189.892 6203.685 C 1189.92 6204.176 1190.036 6204.666 1190.18 6205.128 L 1194.335 6205.128 C 1193.96 6204.522 1193.815 6203.166 1193.815 6201.81 L 1193.815 6194.049 C 1193.815 6190.471 1190.238 6189.808 1187.266 6189.808 C 1183.919 6189.808 1180.486 6190.962 1180.255 6194.799 L 1184.352 6194.799 Z " fill="rgb(255,255,255)"/></g></svg>