<?xml version="1.0" encoding="UTF-8" standalone="no"?><!-- Generator: Gravit.io --><svg xmlns="http://www.w3.org/2000/svg" xmlns:xlink="http://www.w3.org/1999/xlink" style="isolation:isolate" viewBox="653.769 6205.876 92.387 66.078" width="92.387pt" height="66.078pt"><g><path d=" M 703.181 6258.622 C 703.249 6259.184 703.369 6260.059 704.104 6260.278 C 704.601 6260.418 705.046 6260.418 705.217 6260.418 C 705.304 6260.418 705.355 6260.434 705.355 6260.496 C 705.355 6260.589 705.201 6260.637 704.994 6260.637 C 704.619 6260.637 702.77 6260.589 702.136 6260.543 C 701.744 6260.512 701.658 6260.463 701.658 6260.387 C 701.658 6260.324 701.692 6260.293 701.777 6260.278 C 701.863 6260.261 701.881 6259.996 701.846 6259.715 L 701.024 6251.656 L 700.974 6251.656 L 696.781 6259.777 C 696.421 6260.463 696.371 6260.605 696.216 6260.605 C 696.097 6260.605 696.011 6260.449 695.686 6259.887 C 695.24 6259.122 693.77 6256.42 693.683 6256.264 C 693.529 6255.981 691.612 6252.234 691.423 6251.813 L 691.356 6251.813 L 690.671 6259.059 C 690.654 6259.309 690.654 6259.59 690.654 6259.856 C 690.654 6260.09 690.843 6260.293 691.1 6260.339 C 691.39 6260.402 691.647 6260.418 691.749 6260.418 C 691.818 6260.418 691.886 6260.449 691.886 6260.496 C 691.886 6260.605 691.784 6260.637 691.579 6260.637 C 690.945 6260.637 690.124 6260.589 689.987 6260.589 C 689.832 6260.589 689.01 6260.637 688.549 6260.637 C 688.378 6260.637 688.258 6260.605 688.258 6260.496 C 688.258 6260.449 688.343 6260.418 688.43 6260.418 C 688.566 6260.418 688.687 6260.418 688.943 6260.371 C 689.509 6260.278 689.559 6259.667 689.627 6259.074 L 690.86 6248.891 C 690.876 6248.72 690.945 6248.609 691.048 6248.609 C 691.15 6248.609 691.218 6248.672 691.305 6248.845 L 696.541 6258.669 L 701.572 6248.859 C 701.641 6248.72 701.71 6248.609 701.828 6248.609 C 701.948 6248.609 702 6248.734 702.033 6249.031 L 703.181 6258.622 Z " fill="rgb(255,255,255)"/><path d=" M 706.654 6253.358 C 706.654 6250.922 706.654 6250.484 706.62 6249.984 C 706.586 6249.453 706.449 6249.203 705.884 6249.094 C 705.747 6249.063 705.457 6249.048 705.303 6249.048 C 705.234 6249.048 705.166 6249.017 705.166 6248.953 C 705.166 6248.859 705.25 6248.829 705.44 6248.829 C 706.209 6248.829 707.253 6248.875 707.407 6248.875 C 707.562 6248.875 708.588 6248.829 709.102 6248.829 C 709.289 6248.829 709.375 6248.859 709.375 6248.953 C 709.375 6249.017 709.308 6249.048 709.239 6249.048 C 709.117 6249.048 709.016 6249.063 708.81 6249.094 C 708.348 6249.156 708.211 6249.438 708.178 6249.984 C 708.143 6250.484 708.143 6250.922 708.143 6253.358 L 708.143 6255.545 C 708.143 6257.795 708.691 6258.762 709.426 6259.404 C 710.265 6260.121 711.036 6260.262 712.012 6260.262 C 713.054 6260.262 714.081 6259.81 714.698 6259.137 C 715.484 6258.247 715.69 6256.92 715.69 6255.31 L 715.69 6253.358 C 715.69 6250.922 715.69 6250.484 715.656 6249.984 C 715.621 6249.453 715.484 6249.203 714.919 6249.094 C 714.784 6249.063 714.492 6249.048 714.338 6249.048 C 714.27 6249.048 714.202 6249.017 714.202 6248.953 C 714.202 6248.859 714.287 6248.829 714.475 6248.829 C 715.246 6248.829 716.186 6248.875 716.289 6248.875 C 716.408 6248.875 717.212 6248.829 717.726 6248.829 C 717.915 6248.829 717.999 6248.859 717.999 6248.953 C 717.999 6249.017 717.932 6249.048 717.863 6249.048 C 717.743 6249.048 717.641 6249.063 717.436 6249.094 C 716.974 6249.187 716.837 6249.438 716.802 6249.984 C 716.768 6250.484 716.768 6250.922 716.768 6253.358 L 716.768 6255.03 C 716.768 6256.717 716.563 6258.591 715.194 6259.7 C 713.962 6260.7 712.679 6260.856 711.668 6260.856 C 711.087 6260.856 709.358 6260.792 708.143 6259.746 C 707.305 6259.012 706.654 6257.92 706.654 6255.639 L 706.654 6253.358 Z " fill="rgb(255,255,255)"/><path d=" M 719.888 6260.434 C 719.648 6260.324 719.632 6260.262 719.632 6259.841 C 719.632 6259.059 719.7 6258.434 719.717 6258.185 C 719.733 6258.013 719.769 6257.935 719.854 6257.935 C 719.957 6257.935 719.974 6257.982 719.974 6258.107 C 719.974 6258.247 719.974 6258.466 720.026 6258.684 C 720.283 6259.841 721.412 6260.278 722.558 6260.278 C 724.201 6260.278 725.006 6259.199 725.006 6258.201 C 725.006 6257.122 724.508 6256.498 723.038 6255.389 L 722.267 6254.811 C 720.453 6253.452 720.043 6252.484 720.043 6251.421 C 720.043 6249.751 721.412 6248.61 723.585 6248.61 C 724.252 6248.61 724.748 6248.673 725.176 6248.766 C 725.502 6248.829 725.639 6248.845 725.776 6248.845 C 725.913 6248.845 725.946 6248.875 725.946 6248.954 C 725.946 6249.032 725.878 6249.548 725.878 6250.609 C 725.878 6250.86 725.844 6250.969 725.758 6250.969 C 725.656 6250.969 725.639 6250.89 725.621 6250.765 C 725.604 6250.578 725.502 6250.156 725.399 6249.985 C 725.296 6249.814 724.835 6249.156 723.26 6249.156 C 722.079 6249.156 721.155 6249.829 721.155 6250.969 C 721.155 6251.859 721.599 6252.421 723.242 6253.593 L 723.721 6253.937 C 725.741 6255.389 726.221 6256.357 726.221 6257.608 C 726.221 6258.247 725.946 6259.434 724.765 6260.2 C 724.03 6260.668 723.106 6260.856 722.182 6260.856 C 721.376 6260.856 720.591 6260.746 719.888 6260.434 Z " fill="rgb(255,255,255)"/><path d=" M 731.286 6256.107 C 731.286 6257.607 731.286 6258.841 731.372 6259.496 C 731.424 6259.949 731.526 6260.293 732.039 6260.356 C 732.278 6260.387 732.655 6260.418 732.81 6260.418 C 732.912 6260.418 732.946 6260.464 732.946 6260.512 C 732.946 6260.589 732.862 6260.638 732.673 6260.638 C 731.732 6260.638 730.653 6260.589 730.569 6260.589 C 730.482 6260.589 729.404 6260.638 728.891 6260.638 C 728.702 6260.638 728.617 6260.605 728.617 6260.512 C 728.617 6260.464 728.651 6260.418 728.754 6260.418 C 728.907 6260.418 729.113 6260.387 729.268 6260.356 C 729.609 6260.293 729.696 6259.949 729.763 6259.496 C 729.849 6258.841 729.849 6257.607 729.849 6256.107 L 729.849 6253.358 C 729.849 6250.922 729.849 6250.485 729.815 6249.984 C 729.781 6249.453 729.609 6249.188 729.234 6249.109 C 729.045 6249.063 728.821 6249.048 728.702 6249.048 C 728.634 6249.048 728.566 6249.017 728.566 6248.953 C 728.566 6248.86 728.651 6248.829 728.839 6248.829 C 729.404 6248.829 730.482 6248.875 730.569 6248.875 C 730.653 6248.875 731.732 6248.829 732.245 6248.829 C 732.433 6248.829 732.518 6248.86 732.518 6248.953 C 732.518 6249.017 732.449 6249.048 732.381 6249.048 C 732.263 6249.048 732.16 6249.063 731.955 6249.094 C 731.492 6249.173 731.355 6249.438 731.321 6249.984 C 731.286 6250.485 731.286 6250.922 731.286 6253.358 L 731.286 6256.107 Z " fill="rgb(255,255,255)"/><path d=" M 736.545 6259.169 C 734.885 6257.81 734.476 6256.03 734.476 6254.545 C 734.476 6253.499 734.869 6251.672 736.391 6250.281 C 737.419 6249.343 738.974 6248.61 741.612 6248.61 C 742.295 6248.61 743.253 6248.657 744.091 6248.798 C 744.742 6248.907 745.291 6249.001 745.838 6249.032 C 746.026 6249.048 746.06 6249.109 746.06 6249.203 C 746.06 6249.328 746.01 6249.516 745.976 6250.078 C 745.94 6250.594 745.94 6251.453 745.922 6251.688 C 745.906 6251.921 745.872 6252.016 745.769 6252.016 C 745.649 6252.016 745.633 6251.906 745.633 6251.688 C 745.633 6251.078 745.359 6250.438 744.914 6250.094 C 744.313 6249.625 742.997 6249.203 741.49 6249.203 C 739.214 6249.203 738.153 6249.814 737.555 6250.343 C 736.307 6251.438 736.015 6252.828 736.015 6254.421 C 736.015 6257.403 738.529 6260.137 742.192 6260.137 C 743.476 6260.137 744.487 6259.996 745.17 6259.357 C 745.529 6259.012 745.752 6258.325 745.802 6258.044 C 745.838 6257.872 745.872 6257.81 745.976 6257.81 C 746.06 6257.81 746.094 6257.92 746.094 6258.044 C 746.094 6258.153 745.888 6259.513 745.718 6260.044 C 745.615 6260.339 745.581 6260.371 745.273 6260.496 C 744.589 6260.746 743.286 6260.856 742.192 6260.856 C 739.625 6260.856 737.898 6260.278 736.545 6259.169 Z " fill="rgb(255,255,255)"/><g><path d=" M 711.038 6239.131 C 710.158 6240.296 709.149 6241.404 708.013 6242.455 C 706.873 6243.507 705.828 6244.354 704.876 6244.99 C 704.14 6245.479 703.389 6245.855 702.618 6246.118 C 701.847 6246.381 701.15 6246.511 700.527 6246.511 C 700.306 6246.511 700.05 6246.492 699.755 6246.455 C 699.462 6246.419 699.196 6246.325 698.96 6246.174 C 698.718 6246.025 698.518 6245.827 698.353 6245.583 C 698.187 6245.337 698.104 6245.01 698.104 6244.597 C 698.104 6244.108 698.288 6243.441 698.655 6242.596 C 699.022 6241.751 699.454 6240.877 699.95 6239.975 C 700.445 6239.075 700.939 6238.211 701.434 6237.384 C 701.931 6236.56 702.324 6235.938 702.618 6235.525 C 702.801 6235.225 703.121 6234.971 703.582 6234.763 C 704.041 6234.558 704.343 6234.454 704.489 6234.454 C 704.672 6234.454 704.765 6234.511 704.765 6234.624 C 704.765 6234.7 704.738 6234.813 704.683 6234.962 C 704.627 6235.112 704.562 6235.225 704.489 6235.299 C 704.014 6236.052 703.527 6236.878 703.03 6237.779 C 702.535 6238.68 702.085 6239.554 701.682 6240.399 C 701.278 6241.244 700.958 6242.024 700.719 6242.737 C 700.481 6243.45 700.361 6244.014 700.361 6244.428 C 700.361 6244.877 700.481 6245.208 700.719 6245.413 C 700.958 6245.62 701.278 6245.723 701.682 6245.723 C 702.416 6245.723 703.223 6245.469 704.106 6244.962 C 704.986 6244.457 705.856 6243.844 706.72 6243.132 C 707.582 6242.419 708.379 6241.667 709.114 6240.877 C 709.847 6240.089 710.416 6239.412 710.82 6238.849 C 711.002 6238.662 711.103 6238.615 711.122 6238.709 C 711.142 6238.803 711.112 6238.944 711.038 6239.131 Z " fill="rgb(255,255,255)"/><path d=" M 725.516 6239.133 C 724.855 6240.05 724.092 6240.978 723.23 6241.913 C 722.37 6242.85 721.451 6243.684 720.48 6244.417 C 719.508 6245.151 718.516 6245.758 717.508 6246.234 C 716.498 6246.709 715.516 6246.95 714.563 6246.95 C 714.123 6246.95 713.717 6246.885 713.352 6246.756 C 712.983 6246.628 712.8 6246.308 712.8 6245.792 C 712.8 6245.281 712.983 6244.629 713.352 6243.84 C 713.717 6243.052 714.147 6242.215 714.645 6241.336 C 715.141 6240.456 715.655 6239.556 716.186 6238.639 C 716.717 6237.722 717.149 6236.876 717.479 6236.105 C 717.552 6235.924 717.561 6235.768 717.508 6235.638 C 717.452 6235.51 717.334 6235.5 717.149 6235.61 C 716.746 6235.868 716.267 6236.218 715.719 6236.657 C 715.168 6237.097 714.609 6237.563 714.04 6238.061 C 713.471 6238.556 712.92 6239.061 712.389 6239.574 C 711.855 6240.09 711.426 6240.546 711.094 6240.949 C 710.507 6241.868 710.001 6242.711 709.58 6243.482 C 709.158 6244.253 708.635 6245.115 708.013 6246.07 C 707.866 6246.289 707.755 6246.399 707.682 6246.399 C 707.499 6246.399 707.343 6246.198 707.213 6245.792 C 707.085 6245.39 707.022 6245.133 707.022 6245.022 C 707.022 6244.694 707.25 6244.244 707.71 6243.674 C 708.169 6243.105 708.673 6242.473 709.223 6241.776 C 709.811 6240.602 710.416 6239.363 711.038 6238.061 C 711.665 6236.758 712.196 6235.594 712.636 6234.565 C 712.747 6234.382 712.912 6234.289 713.131 6234.289 C 713.352 6234.289 713.554 6234.382 713.736 6234.565 C 713.92 6234.75 714.012 6234.951 714.012 6235.171 C 714.012 6235.317 713.745 6235.822 713.213 6236.685 C 712.683 6237.548 712.16 6238.548 711.647 6239.683 C 712.343 6239.061 713.103 6238.399 713.929 6237.703 C 714.755 6237.006 715.545 6236.365 716.296 6235.776 C 717.047 6235.19 717.709 6234.703 718.278 6234.318 C 718.846 6233.932 719.24 6233.739 719.462 6233.739 C 719.607 6233.739 719.745 6233.821 719.875 6233.987 C 720.001 6234.152 720.067 6234.309 720.067 6234.455 C 720.067 6234.602 719.975 6234.822 719.793 6235.116 C 719.388 6235.704 718.893 6236.456 718.305 6237.373 C 717.717 6238.29 717.158 6239.235 716.626 6240.207 C 716.095 6241.18 715.646 6242.104 715.277 6242.986 C 714.911 6243.868 714.727 6244.563 714.727 6245.079 C 714.727 6245.519 714.819 6245.821 715.003 6245.986 C 715.187 6246.152 715.479 6246.234 715.884 6246.234 C 716.508 6246.234 717.242 6245.995 718.086 6245.519 C 718.93 6245.042 719.8 6244.447 720.698 6243.729 C 721.598 6243.014 722.453 6242.215 723.259 6241.336 C 724.066 6240.456 724.726 6239.611 725.242 6238.804 C 725.315 6238.693 725.423 6238.665 725.571 6238.721 C 725.718 6238.776 725.699 6238.914 725.516 6239.133 Z " fill="rgb(255,255,255)"/><path d=" M 736.469 6239.514 C 735.846 6240.242 735.102 6240.992 734.24 6241.77 C 733.378 6242.546 732.44 6243.256 731.432 6243.896 C 730.424 6244.535 729.378 6245.054 728.297 6245.451 C 727.213 6245.848 726.138 6246.047 725.076 6246.047 C 723.352 6246.047 722.487 6245.319 722.487 6243.87 C 722.487 6242.901 722.755 6241.856 723.287 6240.732 C 723.818 6239.609 724.505 6238.574 725.352 6237.622 C 726.195 6236.671 727.12 6235.876 728.131 6235.237 C 729.138 6234.597 730.102 6234.277 731.019 6234.277 C 731.534 6234.277 731.891 6234.366 732.094 6234.538 C 732.294 6234.71 732.394 6234.937 732.394 6235.211 C 732.394 6235.626 732.26 6236.075 731.982 6236.559 C 731.708 6237.043 731.294 6237.501 730.745 6237.934 C 730.195 6238.367 729.497 6238.728 728.654 6239.021 C 727.807 6239.316 726.799 6239.461 725.625 6239.461 C 725.44 6239.773 725.242 6240.267 725.021 6240.939 C 724.8 6241.614 724.69 6242.296 724.69 6242.987 C 724.69 6244.405 725.367 6245.113 726.726 6245.113 C 727.57 6245.113 728.443 6244.923 729.341 6244.542 C 730.24 6244.164 731.112 6243.688 731.956 6243.117 C 732.799 6242.546 733.58 6241.925 734.295 6241.25 C 735.01 6240.578 735.607 6239.945 736.083 6239.358 C 736.157 6239.291 736.24 6239.272 736.333 6239.307 C 736.424 6239.341 736.469 6239.411 736.469 6239.514 Z  M 730.69 6235.471 C 730.69 6235.021 730.451 6234.796 729.974 6234.796 C 729.607 6234.796 729.231 6234.926 728.846 6235.185 C 728.461 6235.445 728.083 6235.782 727.719 6236.195 C 727.352 6236.611 727.002 6237.061 726.674 6237.544 C 726.341 6238.028 726.067 6238.496 725.846 6238.944 C 725.919 6238.979 726.047 6239.005 726.232 6239.021 C 726.414 6239.04 726.56 6239.047 726.674 6239.047 C 727.734 6239.047 728.669 6238.693 729.479 6237.984 C 730.284 6237.275 730.69 6236.438 730.69 6235.471 Z " fill="rgb(255,255,255)"/><path d=" M 678.325 6261.834 C 675.883 6264.24 673.558 6266.193 671.352 6267.695 C 669.143 6269.197 667.073 6270.281 665.138 6270.951 C 663.203 6271.619 661.367 6271.954 659.63 6271.954 C 659.123 6271.954 658.573 6271.901 657.974 6271.792 C 657.378 6271.684 656.799 6271.465 656.239 6271.141 C 655.679 6270.814 655.18 6270.354 654.745 6269.756 C 654.313 6269.159 653.984 6268.374 653.769 6267.397 C 653.769 6267.107 653.805 6266.979 653.878 6267.017 C 653.951 6267.053 654.023 6267.162 654.096 6267.341 C 654.13 6267.594 654.276 6267.929 654.529 6268.347 C 654.781 6268.761 655.154 6269.168 655.641 6269.567 C 656.13 6269.964 656.737 6270.299 657.458 6270.571 C 658.182 6270.84 659.05 6270.978 660.065 6270.978 C 661.693 6270.943 663.456 6270.645 665.356 6270.082 C 667.255 6269.522 669.253 6268.536 671.352 6267.125 C 673.45 6265.715 675.649 6263.823 677.945 6261.454 M 677.945 6261.454 C 677.958 6261.438 677.972 6261.422 677.987 6261.405 C 680.268 6259.042 682.255 6255.726 683.534 6253.549 C 684.818 6251.361 686.068 6249.189 687.279 6247.038 C 688.492 6244.884 689.63 6242.813 690.698 6240.822 C 691.766 6238.834 693.69 6235.465 693.982 6234.963 C 695.881 6231.684 697.536 6228.551 699.218 6225.71 C 700.903 6222.87 702.646 6220.093 704.455 6217.378 C 705.432 6215.898 706.482 6214.458 707.604 6213.065 C 708.726 6211.673 709.865 6210.441 711.021 6209.375 C 712.179 6208.308 713.328 6207.459 714.468 6206.824 C 715.607 6206.191 716.701 6205.876 717.75 6205.876 C 718.474 6205.876 719.107 6206.038 719.648 6206.363 C 720.193 6206.688 720.464 6207.07 720.464 6207.503 C 720.464 6207.648 720.438 6207.901 720.383 6208.263 C 720.328 6208.625 720.274 6209.022 720.219 6209.457 C 720.164 6209.892 720.112 6210.325 720.057 6210.759 C 720.002 6211.193 719.976 6211.518 719.976 6211.736 C 719.904 6211.808 719.813 6211.846 719.703 6211.846 C 719.633 6211.846 719.558 6211.808 719.487 6211.736 C 719.558 6211.448 719.604 6211.193 719.622 6210.975 C 719.641 6210.759 719.648 6210.542 719.648 6210.325 C 719.648 6209.601 719.352 6209.042 718.755 6208.642 C 718.159 6208.245 717.317 6208.045 716.232 6208.045 C 715.471 6208.045 714.685 6208.171 713.87 6208.426 C 713.055 6208.679 712.224 6209.132 711.375 6209.784 C 710.523 6210.432 709.638 6211.303 708.714 6212.388 C 707.792 6213.471 706.841 6214.848 705.867 6216.512 C 705.321 6217.451 704.653 6218.666 703.859 6220.147 C 703.062 6221.632 702.213 6223.214 701.307 6224.896 C 700.403 6226.578 699.498 6228.297 698.594 6230.051 C 697.69 6231.806 696.909 6233.469 696.097 6234.963 C 696.651 6233.946 693.375 6240.199 692.055 6242.533 C 690.734 6244.865 689.414 6247.119 688.094 6249.292 C 686.773 6251.459 680.768 6259.427 678.325 6261.834" fill="rgb(255,255,255)"/><path d=" M 703.181 6258.622 C 703.249 6259.184 703.369 6260.059 704.104 6260.278 C 704.601 6260.418 705.046 6260.418 705.217 6260.418 C 705.304 6260.418 705.355 6260.434 705.355 6260.496 C 705.355 6260.589 705.201 6260.637 704.994 6260.637 C 704.619 6260.637 702.77 6260.589 702.136 6260.543 C 701.744 6260.512 701.658 6260.463 701.658 6260.387 C 701.658 6260.324 701.692 6260.293 701.777 6260.278 C 701.863 6260.261 701.881 6259.996 701.846 6259.715 L 701.024 6251.656 L 700.974 6251.656 L 696.781 6259.777 C 696.421 6260.463 696.371 6260.605 696.216 6260.605 C 696.097 6260.605 696.011 6260.449 695.686 6259.887 C 695.24 6259.122 693.77 6256.42 693.683 6256.264 C 693.529 6255.981 691.612 6252.234 691.423 6251.813 L 691.356 6251.813 L 690.671 6259.059 C 690.654 6259.309 690.654 6259.59 690.654 6259.856 C 690.654 6260.09 690.843 6260.293 691.1 6260.339 C 691.39 6260.402 691.647 6260.418 691.749 6260.418 C 691.818 6260.418 691.886 6260.449 691.886 6260.496 C 691.886 6260.605 691.784 6260.637 691.579 6260.637 C 690.945 6260.637 690.124 6260.589 689.987 6260.589 C 689.832 6260.589 689.01 6260.637 688.549 6260.637 C 688.378 6260.637 688.258 6260.605 688.258 6260.496 C 688.258 6260.449 688.343 6260.418 688.43 6260.418 C 688.566 6260.418 688.687 6260.418 688.943 6260.371 C 689.509 6260.278 689.559 6259.667 689.627 6259.074 L 690.86 6248.891 C 690.876 6248.72 690.945 6248.609 691.048 6248.609 C 691.15 6248.609 691.218 6248.672 691.305 6248.845 L 696.541 6258.669 L 701.572 6248.859 C 701.641 6248.72 701.71 6248.609 701.828 6248.609 C 701.948 6248.609 702 6248.734 702.033 6249.031 L 703.181 6258.622 Z " fill="none" vector-effect="non-scaling-stroke" stroke-width="0.042" stroke="rgb(255,255,255)" stroke-linejoin="miter" stroke-linecap="butt" stroke-miterlimit="3" style="mix-blend-mode:source-over;"/><path d=" M 706.654 6253.358 C 706.654 6250.922 706.654 6250.484 706.62 6249.984 C 706.586 6249.453 706.449 6249.203 705.884 6249.094 C 705.747 6249.063 705.457 6249.048 705.303 6249.048 C 705.234 6249.048 705.166 6249.017 705.166 6248.953 C 705.166 6248.859 705.25 6248.829 705.44 6248.829 C 706.209 6248.829 707.253 6248.875 707.407 6248.875 C 707.562 6248.875 708.588 6248.829 709.102 6248.829 C 709.289 6248.829 709.375 6248.859 709.375 6248.953 C 709.375 6249.017 709.308 6249.048 709.239 6249.048 C 709.117 6249.048 709.016 6249.063 708.81 6249.094 C 708.348 6249.156 708.211 6249.438 708.178 6249.984 C 708.143 6250.484 708.143 6250.922 708.143 6253.358 L 708.143 6255.545 C 708.143 6257.795 708.691 6258.762 709.426 6259.404 C 710.265 6260.121 711.036 6260.262 712.012 6260.262 C 713.054 6260.262 714.081 6259.81 714.698 6259.137 C 715.484 6258.247 715.69 6256.92 715.69 6255.31 L 715.69 6253.358 C 715.69 6250.922 715.69 6250.484 715.656 6249.984 C 715.621 6249.453 715.484 6249.203 714.919 6249.094 C 714.784 6249.063 714.492 6249.048 714.338 6249.048 C 714.27 6249.048 714.202 6249.017 714.202 6248.953 C 714.202 6248.859 714.287 6248.829 714.475 6248.829 C 715.246 6248.829 716.186 6248.875 716.289 6248.875 C 716.408 6248.875 717.212 6248.829 717.726 6248.829 C 717.915 6248.829 717.999 6248.859 717.999 6248.953 C 717.999 6249.017 717.932 6249.048 717.863 6249.048 C 717.743 6249.048 717.641 6249.063 717.436 6249.094 C 716.974 6249.187 716.837 6249.438 716.802 6249.984 C 716.768 6250.484 716.768 6250.922 716.768 6253.358 L 716.768 6255.03 C 716.768 6256.717 716.563 6258.591 715.194 6259.7 C 713.962 6260.7 712.679 6260.856 711.668 6260.856 C 711.087 6260.856 709.358 6260.792 708.143 6259.746 C 707.305 6259.012 706.654 6257.92 706.654 6255.639 L 706.654 6253.358 Z " fill="none" vector-effect="non-scaling-stroke" stroke-width="0.042" stroke="rgb(255,255,255)" stroke-linejoin="miter" stroke-linecap="butt" stroke-miterlimit="3" style="mix-blend-mode:source-over;"/><path d=" M 719.888 6260.434 C 719.648 6260.324 719.632 6260.262 719.632 6259.841 C 719.632 6259.059 719.7 6258.434 719.717 6258.185 C 719.733 6258.013 719.769 6257.935 719.854 6257.935 C 719.957 6257.935 719.974 6257.982 719.974 6258.107 C 719.974 6258.247 719.974 6258.466 720.026 6258.684 C 720.283 6259.841 721.412 6260.278 722.558 6260.278 C 724.201 6260.278 725.006 6259.199 725.006 6258.201 C 725.006 6257.122 724.508 6256.498 723.038 6255.389 L 722.267 6254.811 C 720.453 6253.452 720.043 6252.484 720.043 6251.421 C 720.043 6249.751 721.412 6248.61 723.585 6248.61 C 724.252 6248.61 724.748 6248.673 725.176 6248.766 C 725.502 6248.829 725.639 6248.845 725.776 6248.845 C 725.913 6248.845 725.946 6248.875 725.946 6248.954 C 725.946 6249.032 725.878 6249.548 725.878 6250.609 C 725.878 6250.86 725.844 6250.969 725.758 6250.969 C 725.656 6250.969 725.639 6250.89 725.621 6250.765 C 725.604 6250.578 725.502 6250.156 725.399 6249.985 C 725.296 6249.814 724.835 6249.156 723.26 6249.156 C 722.079 6249.156 721.155 6249.829 721.155 6250.969 C 721.155 6251.859 721.599 6252.421 723.242 6253.593 L 723.721 6253.937 C 725.741 6255.389 726.221 6256.357 726.221 6257.608 C 726.221 6258.247 725.946 6259.434 724.765 6260.2 C 724.03 6260.668 723.106 6260.856 722.182 6260.856 C 721.376 6260.856 720.591 6260.746 719.888 6260.434 Z " fill="none" vector-effect="non-scaling-stroke" stroke-width="0.042" stroke="rgb(255,255,255)" stroke-linejoin="miter" stroke-linecap="butt" stroke-miterlimit="3" style="mix-blend-mode:source-over;"/><path d=" M 731.286 6256.107 C 731.286 6257.607 731.286 6258.841 731.372 6259.496 C 731.424 6259.949 731.526 6260.293 732.039 6260.356 C 732.278 6260.387 732.655 6260.418 732.81 6260.418 C 732.912 6260.418 732.946 6260.464 732.946 6260.512 C 732.946 6260.589 732.862 6260.638 732.673 6260.638 C 731.732 6260.638 730.653 6260.589 730.569 6260.589 C 730.482 6260.589 729.404 6260.638 728.891 6260.638 C 728.702 6260.638 728.617 6260.605 728.617 6260.512 C 728.617 6260.464 728.651 6260.418 728.754 6260.418 C 728.907 6260.418 729.113 6260.387 729.268 6260.356 C 729.609 6260.293 729.696 6259.949 729.763 6259.496 C 729.849 6258.841 729.849 6257.607 729.849 6256.107 L 729.849 6253.358 C 729.849 6250.922 729.849 6250.485 729.815 6249.984 C 729.781 6249.453 729.609 6249.188 729.234 6249.109 C 729.045 6249.063 728.821 6249.048 728.702 6249.048 C 728.634 6249.048 728.566 6249.017 728.566 6248.953 C 728.566 6248.86 728.651 6248.829 728.839 6248.829 C 729.404 6248.829 730.482 6248.875 730.569 6248.875 C 730.653 6248.875 731.732 6248.829 732.245 6248.829 C 732.433 6248.829 732.518 6248.86 732.518 6248.953 C 732.518 6249.017 732.449 6249.048 732.381 6249.048 C 732.263 6249.048 732.16 6249.063 731.955 6249.094 C 731.492 6249.173 731.355 6249.438 731.321 6249.984 C 731.286 6250.485 731.286 6250.922 731.286 6253.358 L 731.286 6256.107 Z " fill="none" vector-effect="non-scaling-stroke" stroke-width="0.042" stroke="rgb(255,255,255)" stroke-linejoin="miter" stroke-linecap="butt" stroke-miterlimit="3" style="mix-blend-mode:source-over;"/><path d=" M 736.545 6259.169 C 734.885 6257.81 734.476 6256.03 734.476 6254.545 C 734.476 6253.499 734.869 6251.672 736.391 6250.281 C 737.419 6249.343 738.974 6248.61 741.612 6248.61 C 742.295 6248.61 743.253 6248.657 744.091 6248.798 C 744.742 6248.907 745.291 6249.001 745.838 6249.032 C 746.026 6249.048 746.06 6249.109 746.06 6249.203 C 746.06 6249.328 746.01 6249.516 745.976 6250.078 C 745.94 6250.594 745.94 6251.453 745.922 6251.688 C 745.906 6251.921 745.872 6252.016 745.769 6252.016 C 745.649 6252.016 745.633 6251.906 745.633 6251.688 C 745.633 6251.078 745.359 6250.438 744.914 6250.094 C 744.313 6249.625 742.997 6249.203 741.49 6249.203 C 739.214 6249.203 738.153 6249.814 737.555 6250.343 C 736.307 6251.438 736.015 6252.828 736.015 6254.421 C 736.015 6257.403 738.529 6260.137 742.192 6260.137 C 743.476 6260.137 744.487 6259.996 745.17 6259.357 C 745.529 6259.012 745.752 6258.325 745.802 6258.044 C 745.838 6257.872 745.872 6257.81 745.976 6257.81 C 746.06 6257.81 746.094 6257.92 746.094 6258.044 C 746.094 6258.153 745.888 6259.513 745.718 6260.044 C 745.615 6260.339 745.581 6260.371 745.273 6260.496 C 744.589 6260.746 743.286 6260.856 742.192 6260.856 C 739.625 6260.856 737.898 6260.278 736.545 6259.169 Z " fill="none" vector-effect="non-scaling-stroke" stroke-width="0.042" stroke="rgb(255,255,255)" stroke-linejoin="miter" stroke-linecap="butt" stroke-miterlimit="3" style="mix-blend-mode:source-over;"/><path d=" M 682.227 6234.91 C 679.105 6234.987 671.96 6235.027 670.146 6235.114 C 668.329 6235.201 666.876 6235.353 665.786 6235.567 C 664.694 6235.783 663.837 6236.1 663.216 6236.527 C 662.597 6236.952 661.883 6237.539 661.079 6238.29 L 660.753 6238.235 C 661.781 6237.107 662.8 6236.263 663.824 6235.704 C 664.847 6235.147 665.792 6234.802 666.665 6234.672 C 667.247 6234.608 668.027 6234.545 669.005 6234.486 C 669.989 6234.425 671.043 6234.382 672.166 6234.359 C 673.295 6234.333 674.4 6234.308 675.489 6234.283 C 676.577 6234.26 695.598 6234.339 697.194 6234.352 C 698.794 6234.367 700.246 6234.379 701.549 6234.39 C 702.929 6234.403 703.836 6234.411 704.273 6234.414 C 704.636 6234.52 704.742 6234.694 704.597 6234.933 C 704.307 6234.93 703.579 6234.924 702.417 6234.914 C 701.256 6234.904 699.874 6234.9 698.279 6234.903 C 696.681 6234.908 695.03 6234.911 693.325 6234.912 C 691.62 6234.915 689.41 6234.911 688.027 6234.899" fill="rgb(255,255,255)"/><path d=" M 664.519 6240.73 C 664.328 6241.315 664.179 6241.773 664.127 6242.029 C 664.088 6242.206 664.082 6242.34 664.262 6242.364 C 664.345 6242.377 664.479 6242.389 664.566 6242.389 C 664.648 6242.39 664.667 6242.408 664.657 6242.438 C 664.643 6242.481 664.593 6242.499 664.499 6242.499 C 664.105 6242.499 663.717 6242.48 663.554 6242.48 C 663.392 6242.48 662.991 6242.498 662.754 6242.497 C 662.666 6242.497 662.626 6242.485 662.642 6242.436 C 662.652 6242.406 662.683 6242.388 662.752 6242.388 C 662.846 6242.388 662.925 6242.376 662.985 6242.363 C 663.118 6242.339 663.193 6242.205 663.276 6242.028 C 663.391 6241.772 663.54 6241.315 663.731 6240.729 L 664.081 6239.656 C 664.383 6238.729 664.439 6238.558 664.49 6238.363 C 664.545 6238.156 664.527 6238.058 664.334 6238.015 C 664.288 6238.003 664.184 6237.997 664.096 6237.997 C 664.034 6237.997 663.994 6237.984 664.006 6237.948 C 664.022 6237.899 664.076 6237.887 664.17 6237.887 C 664.332 6237.887 664.512 6237.893 664.674 6237.894 C 664.835 6237.899 664.977 6237.906 665.065 6237.906 C 665.302 6237.906 666.572 6237.907 666.719 6237.901 C 666.839 6237.896 666.914 6237.896 666.983 6237.877 C 667.024 6237.865 667.063 6237.841 667.095 6237.841 C 667.12 6237.841 667.131 6237.865 667.121 6237.896 C 667.107 6237.938 667.052 6238.012 666.981 6238.17 C 666.955 6238.231 666.825 6238.591 666.789 6238.664 C 666.767 6238.713 666.743 6238.75 666.698 6238.75 C 666.655 6238.749 666.652 6238.719 666.668 6238.652 C 666.683 6238.603 666.715 6238.505 666.706 6238.42 C 666.69 6238.335 666.588 6238.243 666.352 6238.237 L 665.395 6238.218 C 665.358 6238.218 665.333 6238.236 665.311 6238.303 L 664.813 6239.828 C 664.801 6239.864 664.802 6239.882 664.84 6239.882 L 665.642 6239.877 C 665.749 6239.877 665.837 6239.877 665.926 6239.871 C 666.047 6239.865 666.142 6239.841 666.231 6239.761 C 666.274 6239.725 666.295 6239.701 666.332 6239.701 C 666.357 6239.701 666.364 6239.719 666.352 6239.756 C 666.34 6239.793 666.259 6239.944 666.178 6240.133 C 666.126 6240.256 666.022 6240.536 666.008 6240.579 C 665.99 6240.634 665.97 6240.695 665.908 6240.695 C 665.87 6240.695 665.872 6240.652 665.886 6240.609 C 665.899 6240.567 665.911 6240.494 665.91 6240.42 C 665.906 6240.335 665.848 6240.225 665.662 6240.2 C 665.512 6240.182 664.848 6240.181 664.742 6240.181 C 664.711 6240.181 664.694 6240.194 664.68 6240.236 L 664.519 6240.73 Z " fill="rgb(255,255,255)"/><path d=" M 668.267 6237.916 C 668.319 6237.812 668.375 6237.756 668.425 6237.756 C 668.475 6237.756 668.503 6237.787 668.532 6237.945 L 669.119 6241.387 L 671.956 6237.906 C 672.032 6237.809 672.085 6237.76 672.141 6237.76 C 672.198 6237.76 672.216 6237.821 672.193 6237.949 L 671.533 6241.718 C 671.464 6242.104 671.468 6242.279 671.638 6242.334 C 671.802 6242.39 671.925 6242.396 672.006 6242.396 C 672.063 6242.396 672.104 6242.403 672.092 6242.439 C 672.077 6242.488 671.996 6242.506 671.908 6242.506 C 671.752 6242.506 670.894 6242.486 670.65 6242.468 C 670.51 6242.457 670.478 6242.438 670.49 6242.401 C 670.5 6242.37 670.531 6242.353 670.581 6242.334 C 670.622 6242.321 670.667 6242.242 670.698 6242.071 L 671.197 6239.388 L 671.172 6239.388 L 668.905 6242.155 C 668.668 6242.442 668.619 6242.496 668.563 6242.496 C 668.507 6242.496 668.484 6242.375 668.443 6242.192 C 668.384 6241.91 668.194 6240.978 668.175 6240.806 C 668.161 6240.678 668.036 6239.909 667.966 6239.452 L 667.941 6239.452 L 666.824 6241.879 C 666.776 6241.989 666.744 6242.067 666.712 6242.166 C 666.674 6242.281 666.737 6242.336 666.836 6242.361 C 666.941 6242.385 667.026 6242.392 667.089 6242.392 C 667.139 6242.392 667.178 6242.403 667.168 6242.434 C 667.151 6242.489 667.09 6242.501 666.996 6242.501 C 666.734 6242.501 666.458 6242.482 666.346 6242.482 C 666.227 6242.482 665.92 6242.5 665.72 6242.5 C 665.658 6242.5 665.612 6242.488 665.63 6242.433 C 665.639 6242.402 665.681 6242.39 665.743 6242.39 C 665.793 6242.39 665.837 6242.39 665.937 6242.372 C 666.124 6242.336 666.252 6242.098 666.351 6241.89 L 668.267 6237.916 Z " fill="rgb(255,255,255)"/><path d=" M 674.8 6239.685 C 674.908 6239.355 674.987 6239.093 675.054 6238.886 C 675.102 6238.739 675.126 6238.666 675.032 6238.666 C 674.913 6238.666 674.366 6238.903 674.211 6238.958 C 674.176 6238.97 674.14 6238.982 674.115 6238.982 C 674.096 6238.982 674.082 6238.952 674.094 6238.916 C 674.106 6238.878 674.147 6238.849 674.184 6238.831 C 674.213 6238.817 675.658 6238.05 675.936 6237.893 C 675.997 6237.855 676.074 6237.813 676.124 6237.813 C 676.18 6237.813 676.171 6237.88 676.151 6237.941 C 676.135 6237.989 675.907 6238.593 675.602 6239.526 L 675.234 6240.655 C 675.044 6241.241 674.875 6241.758 674.812 6242.027 C 674.767 6242.223 674.769 6242.313 674.955 6242.356 C 675.043 6242.375 675.306 6242.394 675.356 6242.394 C 675.381 6242.394 675.4 6242.412 675.386 6242.455 C 675.372 6242.498 675.337 6242.509 675.268 6242.509 C 674.793 6242.508 674.398 6242.491 674.229 6242.489 C 674.085 6242.489 673.554 6242.507 673.154 6242.507 C 673.085 6242.507 673.057 6242.495 673.071 6242.453 C 673.085 6242.41 673.116 6242.392 673.141 6242.392 C 673.21 6242.392 673.529 6242.374 673.656 6242.35 C 673.864 6242.307 673.929 6242.222 674.011 6242.026 C 674.124 6241.757 674.293 6241.239 674.484 6240.654 L 674.8 6239.685 Z " fill="rgb(255,255,255)"/><path d=" M 677.274 6242.597 C 675.929 6242.595 676.022 6241.272 676.327 6240.339 C 676.798 6238.894 677.701 6237.815 678.934 6237.816 C 680.291 6237.817 680.185 6239.141 679.882 6240.068 C 679.409 6241.519 678.488 6242.598 677.274 6242.597 Z  M 678.712 6238.09 C 678.168 6238.089 677.581 6238.797 677.154 6240.108 C 676.805 6241.175 676.719 6242.322 677.482 6242.322 C 678.033 6242.323 678.631 6241.604 679.054 6240.305 C 679.398 6239.25 679.47 6238.091 678.712 6238.09 Z " fill="rgb(255,255,255)"/><path d=" M 679.384 6242.495 C 679.34 6242.495 679.308 6242.458 679.324 6242.41 C 679.34 6242.361 679.421 6242.306 679.501 6242.251 C 680.622 6241.502 682.177 6240.552 682.597 6239.265 C 682.911 6238.302 682.43 6238.106 682.117 6238.105 C 681.848 6238.105 681.626 6238.154 681.382 6238.324 C 681.187 6238.464 680.981 6238.751 680.929 6238.91 C 680.909 6238.971 680.872 6239.026 680.81 6239.026 C 680.778 6239.026 680.773 6238.983 680.791 6238.909 C 680.803 6238.855 680.936 6238.348 680.994 6238.172 C 681.012 6238.117 681.026 6238.092 681.109 6238.05 C 681.393 6237.928 681.767 6237.818 682.317 6237.819 C 683.418 6237.82 683.697 6238.406 683.464 6239.119 C 683.078 6240.302 681.397 6241.332 680.385 6241.959 C 680.346 6241.984 680.352 6242.002 680.384 6242.002 L 680.809 6242.003 C 680.915 6242.003 681.657 6241.991 681.897 6241.967 C 682.346 6241.912 682.619 6241.711 682.787 6241.425 C 682.83 6241.352 682.857 6241.327 682.894 6241.327 C 682.938 6241.327 682.926 6241.382 682.906 6241.443 C 682.874 6241.541 682.571 6242.108 682.441 6242.315 C 682.337 6242.48 682.231 6242.498 681.837 6242.497 L 679.384 6242.495 Z " fill="rgb(255,255,255)"/><path d=" M 683.186 6242.127 C 683.236 6241.974 683.42 6241.755 683.689 6241.755 C 683.902 6241.756 684.025 6241.896 683.955 6242.109 C 683.886 6242.323 683.678 6242.499 683.44 6242.499 C 683.177 6242.499 683.13 6242.298 683.186 6242.127 Z " fill="rgb(255,255,255)"/><path d=" M 684.491 6242.494 C 684.403 6242.438 684.408 6242.384 684.449 6242.256 C 684.515 6242.055 684.628 6241.688 684.725 6241.488 C 684.757 6241.427 684.792 6241.378 684.83 6241.378 C 684.873 6241.378 684.874 6241.415 684.852 6241.482 C 684.64 6242.134 684.999 6242.3 685.436 6242.3 C 685.937 6242.3 686.575 6241.978 686.833 6241.185 C 687.151 6240.208 686.194 6239.806 685.722 6239.738 C 685.65 6239.726 685.616 6239.695 685.649 6239.616 L 686.318 6238.006 C 686.344 6237.945 686.393 6237.927 686.462 6237.927 L 687.995 6237.929 C 688.17 6237.929 688.281 6237.917 688.354 6237.904 C 688.424 6237.899 688.466 6237.886 688.484 6237.886 C 688.535 6237.886 688.539 6237.911 688.509 6238.001 C 688.467 6238.13 688.361 6238.399 688.173 6238.783 C 688.155 6238.82 688.124 6238.855 688.081 6238.855 C 688.043 6238.855 688.043 6238.819 688.058 6238.771 C 688.114 6238.6 688.122 6238.441 687.615 6238.441 L 686.477 6238.44 L 686.146 6239.183 C 687.031 6239.331 688.006 6239.832 687.66 6240.893 C 687.396 6241.704 686.495 6242.605 685.043 6242.604 C 684.843 6242.604 684.624 6242.568 684.491 6242.494 Z " fill="rgb(255,255,255)"/><path d=" M 708.816 6227.504 C 708.816 6227.905 708.641 6228.307 708.291 6228.707 C 707.939 6229.108 707.546 6229.308 707.112 6229.308 C 706.711 6229.308 706.509 6229.108 706.509 6228.707 C 706.509 6228.274 706.668 6227.854 706.987 6227.454 C 707.304 6227.053 707.695 6226.852 708.164 6226.852 C 708.598 6226.852 708.816 6227.07 708.816 6227.504 Z " fill="rgb(255,255,255)"/></g></g></svg>