<?xml version="1.0" encoding="UTF-8" standalone="no"?><!-- Generator: Gravit.io --><svg xmlns="http://www.w3.org/2000/svg" xmlns:xlink="http://www.w3.org/1999/xlink" style="isolation:isolate" viewBox="504.943 6179.86 95.438 80.934" width="95.438pt" height="80.934pt"><g><g><path d=" M 595.497 6257.917 L 596.44 6255.037 L 596.459 6255.037 L 597.383 6257.917 L 595.497 6257.917 Z  M 593.393 6259.712 C 593.373 6259.763 593.323 6259.882 593.323 6260.041 C 593.323 6260.438 593.662 6260.734 594.059 6260.734 C 594.464 6260.734 594.674 6260.517 594.773 6260.208 L 595.07 6259.286 L 597.829 6259.286 L 598.126 6260.22 C 598.226 6260.517 598.434 6260.734 598.851 6260.734 C 599.218 6260.734 599.535 6260.466 599.535 6260.081 C 599.535 6260.009 599.515 6259.871 599.455 6259.712 L 597.511 6254.315 C 597.343 6253.837 596.976 6253.491 596.449 6253.491 C 595.943 6253.491 595.556 6253.857 595.388 6254.315 L 593.393 6259.712 Z  M 591.378 6254.325 L 591.378 6259.96 C 591.378 6260.458 591.696 6260.734 592.122 6260.734 C 592.548 6260.734 592.865 6260.458 592.865 6259.96 L 592.865 6254.325 C 592.865 6253.829 592.548 6253.55 592.122 6253.55 C 591.696 6253.55 591.378 6253.829 591.378 6254.325 Z  M 586.186 6254.979 L 587.089 6254.979 C 588.46 6254.979 589.055 6255.9 589.055 6257.172 C 589.055 6258.363 588.469 6259.307 587.188 6259.307 L 586.186 6259.307 L 586.186 6254.979 Z  M 584.698 6254.373 L 584.698 6259.931 C 584.698 6260.498 585.154 6260.675 585.481 6260.675 L 587.208 6260.675 C 589.253 6260.675 590.603 6259.327 590.603 6257.241 C 590.603 6255.037 589.333 6253.61 587.109 6253.61 L 585.462 6253.61 C 585.016 6253.61 584.698 6253.917 584.698 6254.373 Z  M 584.591 6239.032 C 584.667 6239.186 584.764 6239.186 585.017 6239.062 C 585.5 6238.819 586.023 6238.462 586.932 6238.008 C 587.57 6237.69 588.71 6237.218 589.174 6236.987 C 589.388 6236.881 589.359 6236.629 589.299 6236.514 C 589.022 6235.953 587.51 6237.43 586.623 6235.65 L 585.342 6233.078 C 585.262 6232.923 584.472 6231.48 585.536 6230.952 C 586.599 6230.42 587.083 6231.145 587.468 6230.952 C 587.817 6230.779 588.022 6229.542 587.664 6228.828 C 587.48 6228.458 586.002 6228.108 585.519 6228.35 C 585.035 6228.592 584.695 6229.654 584.346 6231.085 L 583.604 6229.598 C 583.478 6229.343 583.41 6229.209 583.177 6229.324 C 582.946 6229.441 582.946 6230.021 581.504 6231.199 C 580.914 6231.71 580.634 6231.875 580.788 6232.184 C 581.058 6232.726 582.027 6231.566 582.49 6232.496 L 584.757 6237.04 C 585.471 6238.472 584.292 6238.433 584.591 6239.032 Z  M 579.994 6254.473 L 579.994 6259.931 C 579.994 6260.377 580.32 6260.675 580.757 6260.675 L 583.318 6260.675 C 583.784 6260.675 584.022 6260.328 584.022 6259.991 C 584.022 6259.644 583.793 6259.307 583.318 6259.307 L 581.481 6259.307 L 581.481 6257.787 L 583.109 6257.787 C 583.585 6257.787 583.833 6257.439 583.833 6257.103 C 583.833 6256.755 583.595 6256.418 583.109 6256.418 L 581.481 6256.418 L 581.481 6254.979 L 583.227 6254.979 C 583.694 6254.979 583.932 6254.631 583.932 6254.294 C 583.932 6253.945 583.704 6253.61 583.227 6253.61 L 580.767 6253.61 C 580.242 6253.61 579.994 6253.976 579.994 6254.473 Z  M 578.522 6239.157 C 578.639 6239.64 577.646 6240.126 577.182 6240.238 C 576.091 6240.507 575.815 6239.462 575.731 6239.125 C 575.388 6237.718 576.872 6236.599 577.692 6236.399 C 577.881 6236.353 577.885 6236.551 578.022 6237.12 L 578.522 6239.157 Z  M 578.978 6239.757 C 579.171 6240.179 579.67 6240.945 580.657 6240.705 C 581.413 6240.52 582.515 6239.473 582.412 6239.054 C 582.387 6238.947 582.283 6238.883 582.135 6238.918 C 581.987 6238.956 581.74 6239.126 581.488 6239.189 C 580.942 6239.321 580.858 6239.076 580.604 6238.024 L 579.721 6234.413 C 579.204 6232.292 577.938 6231.577 575.774 6232.104 C 574.306 6232.464 572.076 6233.632 572.521 6235.459 C 572.618 6235.856 573.006 6235.807 573.174 6235.769 C 573.321 6235.73 574.668 6235.402 574.425 6234.414 C 574.191 6233.447 574.306 6233.196 575.106 6233.002 C 576.763 6232.598 577.223 6233.842 577.664 6235.649 C 575.634 6236.723 572.928 6237.762 573.56 6240.347 C 573.84 6241.5 574.86 6242.12 576.016 6241.837 C 577.17 6241.556 578.272 6240.686 578.978 6239.757 Z  M 571.099 6259.851 C 571.088 6259.911 571.088 6259.971 571.088 6260.021 C 571.088 6260.458 571.406 6260.734 571.803 6260.734 C 572.309 6260.734 572.508 6260.506 572.577 6260.041 L 573.162 6256.001 L 573.182 6256.001 L 574.374 6260.16 C 574.443 6260.397 574.631 6260.734 575.167 6260.734 C 575.703 6260.734 575.893 6260.397 575.962 6260.16 L 577.153 6256.001 L 577.172 6256.001 L 577.758 6260.041 C 577.828 6260.506 578.026 6260.734 578.532 6260.734 C 578.929 6260.734 579.246 6260.458 579.246 6260.021 C 579.246 6259.971 579.246 6259.911 579.236 6259.851 L 578.313 6254.314 C 578.254 6253.956 577.868 6253.55 577.341 6253.55 C 576.846 6253.55 576.459 6253.908 576.349 6254.265 L 575.177 6258.193 L 575.157 6258.193 L 573.985 6254.265 C 573.877 6253.908 573.489 6253.55 572.993 6253.55 C 572.467 6253.55 572.08 6253.956 572.022 6254.314 L 571.099 6259.851 Z  M 564.62 6242.899 C 569.225 6242.876 571.499 6239.602 571.497 6238.736 C 571.495 6238.607 571.301 6238.5 571.193 6238.5 C 570.631 6238.503 569.173 6241.342 565.823 6241.359 C 561.693 6241.379 559.944 6237.104 559.928 6234.06 C 559.915 6231.162 561.652 6228.125 564.829 6228.11 C 567.336 6228.099 569.25 6229.97 570.34 6232.04 C 570.491 6232.32 570.647 6232.774 570.992 6232.772 C 571.359 6232.771 571.27 6232.273 571.248 6232.058 L 570.839 6227.953 C 570.838 6227.843 570.687 6227.822 570.58 6227.822 C 570.276 6227.824 570.258 6228.538 569.846 6228.541 C 569.198 6228.542 567.528 6227.232 564.911 6227.246 C 559.464 6227.271 557.26 6232.06 557.278 6235.693 C 557.287 6237.399 558.286 6242.932 564.62 6242.899 Z  M 564.042 6254.473 L 564.042 6259.931 C 564.042 6260.377 564.37 6260.675 564.805 6260.675 L 567.366 6260.675 C 567.832 6260.675 568.071 6260.328 568.071 6259.991 C 568.071 6259.644 567.843 6259.307 567.366 6259.307 L 565.531 6259.307 L 565.531 6257.787 L 567.157 6257.787 C 567.634 6257.787 567.882 6257.439 567.882 6257.103 C 567.882 6256.755 567.644 6256.418 567.157 6256.418 L 565.531 6256.418 L 565.531 6254.979 L 567.277 6254.979 C 567.743 6254.979 567.982 6254.631 567.982 6254.294 C 567.982 6253.945 567.752 6253.61 567.277 6253.61 L 564.816 6253.61 C 564.29 6253.61 564.042 6253.976 564.042 6254.473 Z  M 555.147 6259.851 C 555.138 6259.911 555.138 6259.971 555.138 6260.021 C 555.138 6260.458 555.455 6260.734 555.851 6260.734 C 556.357 6260.734 556.556 6260.506 556.625 6260.041 L 557.21 6256.001 L 557.231 6256.001 L 558.422 6260.16 C 558.492 6260.397 558.679 6260.734 559.216 6260.734 C 559.753 6260.734 559.941 6260.397 560.011 6260.16 L 561.201 6256.001 L 561.222 6256.001 L 561.807 6260.041 C 561.877 6260.506 562.075 6260.734 562.581 6260.734 C 562.977 6260.734 563.294 6260.458 563.294 6260.021 C 563.294 6259.971 563.294 6259.911 563.285 6259.851 L 562.363 6254.314 C 562.304 6253.956 561.916 6253.55 561.39 6253.55 C 560.894 6253.55 560.507 6253.908 560.398 6254.265 L 559.226 6258.193 L 559.207 6258.193 L 558.035 6254.265 C 557.926 6253.908 557.539 6253.55 557.042 6253.55 C 556.516 6253.55 556.13 6253.956 556.07 6254.314 L 555.147 6259.851 Z  M 549.499 6257.143 C 549.499 6255.94 550.125 6254.858 551.366 6254.858 C 552.607 6254.858 553.232 6255.94 553.232 6257.143 C 553.232 6258.354 552.626 6259.425 551.366 6259.425 C 550.105 6259.425 549.499 6258.354 549.499 6257.143 Z  M 547.952 6257.143 C 547.952 6259.199 549.35 6260.794 551.366 6260.794 C 553.4 6260.794 554.78 6259.199 554.78 6257.143 C 554.78 6255.126 553.361 6253.491 551.366 6253.491 C 549.34 6253.491 547.952 6255.077 547.952 6257.143 Z  M 534.067 6254.383 L 534.067 6259.958 C 534.067 6260.455 534.385 6260.734 534.811 6260.734 C 535.238 6260.734 535.555 6260.455 535.555 6259.958 L 535.555 6257.787 L 537.093 6257.787 C 537.57 6257.787 537.807 6257.439 537.807 6257.093 C 537.807 6256.755 537.57 6256.418 537.093 6256.418 L 535.555 6256.418 L 535.555 6254.979 L 537.381 6254.979 C 537.828 6254.979 538.047 6254.631 538.047 6254.294 C 538.047 6253.945 537.818 6253.61 537.381 6253.61 L 534.841 6253.61 C 534.345 6253.61 534.067 6253.976 534.067 6254.383 Z  M 528.062 6257.143 C 528.062 6255.94 528.687 6254.858 529.928 6254.858 C 531.169 6254.858 531.795 6255.94 531.795 6257.143 C 531.795 6258.354 531.189 6259.425 529.928 6259.425 C 528.667 6259.425 528.062 6258.354 528.062 6257.143 Z  M 526.515 6257.143 C 526.515 6259.199 527.912 6260.794 529.928 6260.794 C 531.963 6260.794 533.342 6259.199 533.342 6257.143 C 533.342 6255.126 531.923 6253.491 529.928 6253.491 C 527.902 6253.491 526.515 6255.077 526.515 6257.143 Z  M 518.803 6254.294 C 518.803 6254.631 519.001 6254.979 519.478 6254.979 L 520.56 6254.979 L 520.56 6259.959 C 520.56 6260.458 520.877 6260.734 521.304 6260.734 C 521.73 6260.734 522.047 6260.458 522.047 6259.959 L 522.047 6254.979 L 523.129 6254.979 C 523.605 6254.979 523.803 6254.631 523.803 6254.294 C 523.803 6253.945 523.556 6253.61 523.129 6253.61 L 519.478 6253.61 C 519.051 6253.61 518.803 6253.945 518.803 6254.294 Z  M 512.405 6254.325 L 512.405 6257.867 C 512.405 6259.556 513.764 6260.794 515.422 6260.794 C 517.06 6260.794 518.429 6259.536 518.429 6257.867 L 518.429 6254.325 C 518.429 6253.829 518.111 6253.55 517.684 6253.55 C 517.258 6253.55 516.941 6253.829 516.941 6254.325 L 516.941 6257.788 C 516.941 6258.661 516.326 6259.425 515.422 6259.425 C 514.478 6259.425 513.893 6258.701 513.893 6257.788 L 513.893 6254.325 C 513.893 6253.829 513.576 6253.55 513.149 6253.55 C 512.722 6253.55 512.405 6253.829 512.405 6254.325 Z  M 506.49 6257.143 C 506.49 6255.94 507.115 6254.858 508.356 6254.858 C 509.597 6254.858 510.223 6255.94 510.223 6257.143 C 510.223 6258.354 509.618 6259.425 508.356 6259.425 C 507.096 6259.425 506.49 6258.354 506.49 6257.143 Z  M 504.943 6257.143 C 504.943 6259.199 506.342 6260.794 508.356 6260.794 C 510.392 6260.794 511.769 6259.199 511.769 6257.143 C 511.769 6255.126 510.352 6253.491 508.356 6253.491 C 506.331 6253.491 504.943 6255.077 504.943 6257.143 Z  M 516.428 6231.329 L 511.002 6231.496 L 513.69 6213.826 L 513.784 6213.826 L 516.428 6231.329 Z  M 521.578 6246.111 L 516.305 6210.234 L 511.344 6209.251 L 505.367 6249.625 L 508.639 6248.92 L 510.391 6236.229 L 517.015 6235.625 L 518.483 6246.771 L 521.578 6246.111 Z  M 526.941 6244.904 L 530.556 6213.22 L 527.892 6212.69 L 525.448 6237.622 L 525.364 6237.622 L 522.782 6211.542 L 519.976 6211.004 L 524.001 6245.584 L 526.941 6244.904 Z  M 537.728 6230.496 L 533.926 6230.667 L 535.8 6217.377 L 535.875 6217.377 L 537.728 6230.496 Z  M 539.293 6242.226 L 541.745 6241.681 L 537.806 6214.709 L 534.023 6213.921 L 529.537 6244.354 L 532.167 6243.782 L 533.446 6234.167 L 538.189 6233.742 L 539.293 6242.226 Z  M 541.878 6253.55 C 541.451 6253.55 541.134 6253.828 541.134 6254.321 L 541.134 6259.958 C 541.134 6260.455 541.451 6260.734 541.878 6260.734 C 542.303 6260.734 542.621 6260.455 542.621 6259.958 L 542.621 6257.787 L 545.739 6257.787 L 545.739 6259.958 C 545.739 6260.455 546.056 6260.734 546.482 6260.734 C 546.909 6260.734 547.227 6260.455 547.227 6259.958 L 547.227 6254.321 C 547.227 6253.828 546.909 6253.55 546.482 6253.55 C 546.056 6253.55 545.739 6253.828 545.739 6254.321 L 545.739 6256.418 L 542.621 6256.418 L 542.621 6254.321 C 542.621 6253.828 542.303 6253.55 541.878 6253.55 Z  M 547.048 6240.515 L 550.162 6239.854 L 550.162 6217.23 L 548.214 6216.817 L 548.214 6236.905 L 548.146 6236.905 L 545.463 6216.307 L 542.207 6215.582 L 542.207 6241.526 L 544.153 6241.171 L 544.153 6218.843 L 544.222 6218.843 L 547.048 6240.515 Z  M 555.203 6220.575 L 557.375 6220.942 L 557.375 6218.733 L 551.099 6217.426 L 551.099 6219.881 L 553.267 6220.292 L 553.267 6239.195 L 555.203 6238.797 L 555.203 6220.575 Z  M 586.939 6209.891 C 586.319 6208.093 585.319 6206.477 584.032 6205.132 C 588.351 6203.527 589.183 6205.167 589.183 6205.167 C 590.398 6206.181 588.12 6208.714 586.939 6209.891 Z  M 586.291 6210.505 L 586.751 6211.042 C 585.227 6212.467 583.258 6214.026 580.978 6215.59 C 581.083 6215.671 581.236 6215.766 581.112 6215.81 C 580.954 6215.866 580.867 6215.717 580.867 6215.717 L 580.879 6215.661 C 580.469 6215.94 580.047 6216.22 579.619 6216.5 L 579.585 6216.636 C 579.585 6216.636 579.888 6216.884 579.993 6216.883 C 580.102 6216.882 580.476 6217.037 580.476 6217.037 L 580.031 6217.193 C 580.031 6217.193 579.603 6217.096 579.388 6216.992 C 579.175 6216.889 579.015 6216.946 578.921 6217.084 C 578.829 6217.226 578.876 6217.46 578.761 6217.537 C 578.645 6217.613 578.195 6217.558 578.195 6217.558 L 577.743 6217.789 L 577.772 6217.667 C 577.32 6217.94 576.864 6218.214 576.4 6218.485 C 572.612 6220.691 568.841 6222.455 565.914 6223.442 L 565.608 6222.818 C 567.559 6222.161 569.823 6221.189 572.233 6219.966 C 572.102 6219.995 571.992 6220.006 571.992 6220.006 C 571.992 6220.006 571.595 6219.897 571.426 6219.921 C 571.256 6219.946 570.788 6219.935 570.788 6219.935 C 571.008 6219.749 571.239 6219.595 571.41 6219.675 C 571.583 6219.758 571.708 6219.713 571.867 6219.658 C 572.027 6219.601 572.6 6219.504 572.6 6219.504 L 572.646 6219.632 L 573.134 6219.495 L 573.143 6219.5 C 574.06 6219.018 574.996 6218.501 575.94 6217.951 C 576.375 6217.696 576.801 6217.44 577.222 6217.185 L 577.04 6217.216 C 577.04 6217.216 576.744 6217.287 576.648 6217.32 C 576.553 6217.354 576.246 6217.392 576.178 6217.31 C 576.113 6217.225 576.221 6217.223 576.326 6217.113 C 576.429 6217.004 576.289 6216.912 576.289 6216.912 L 576.216 6217.008 C 576.216 6217.008 576.089 6217.053 575.919 6217.078 C 575.749 6217.103 575.788 6216.91 575.849 6216.782 C 575.911 6216.652 576.06 6216.67 576.166 6216.668 C 576.273 6216.667 576.445 6216.749 576.445 6216.749 L 576.665 6217.064 C 576.665 6217.064 576.867 6217.136 576.897 6217.018 C 576.928 6216.899 576.968 6216.813 577.093 6216.663 C 577.218 6216.512 577.258 6216.424 577.258 6216.424 C 577.258 6216.424 577.365 6216.423 577.558 6216.46 C 577.75 6216.5 577.993 6216.38 578.258 6216.32 C 578.431 6216.284 578.588 6216.252 578.715 6216.252 C 581.763 6214.296 584.381 6212.295 586.291 6210.505 Z  M 578.158 6202.534 L 576.661 6202.245 C 576.661 6202.245 576.64 6202.286 576.717 6202.4 C 576.723 6202.408 576.733 6202.417 576.741 6202.425 C 576.764 6202.429 576.785 6202.433 576.801 6202.441 C 576.933 6202.503 577.256 6202.709 577.256 6202.709 C 577.256 6202.709 576.857 6202.542 576.741 6202.425 C 576.601 6202.408 576.387 6202.481 576.387 6202.481 C 576.387 6202.481 576.155 6202.528 575.974 6202.521 C 575.793 6202.516 575.609 6202.294 575.609 6202.294 C 575.609 6202.294 575.353 6202.384 575.185 6202.41 C 575.015 6202.433 575.053 6202.241 575.053 6202.241 C 575.053 6202.241 574.895 6202.296 574.735 6202.353 C 574.578 6202.411 574.384 6202.371 574.233 6202.247 C 574.083 6202.121 574.123 6202.036 574.304 6201.935 C 576.246 6201.675 578.158 6202.534 578.158 6202.534 Z  M 575.033 6216.893 C 575.065 6216.987 575.156 6217.242 575.156 6217.242 L 575.041 6217.425 L 574.83 6217.037 L 574.7 6216.762 L 574.799 6216.425 L 574.83 6216.322 L 575.036 6216.605 C 575.007 6216.723 574.999 6216.798 575.033 6216.893 Z  M 569.706 6214.459 C 569.524 6214.452 569.374 6214.328 569.466 6214.187 C 569.558 6214.046 569.843 6213.945 569.9 6214.104 C 569.965 6214.291 569.884 6214.467 569.706 6214.459 Z  M 570.795 6219.75 L 570.541 6219.841 C 570.541 6219.841 570.322 6220.027 570.039 6219.734 C 569.755 6219.442 569.51 6219.35 569.51 6219.35 C 569.51 6219.35 569.359 6219.332 569.163 6219.081 C 568.966 6218.828 568.915 6218.883 568.774 6218.79 C 568.635 6218.697 568.673 6218.503 568.3 6218.457 C 567.927 6218.412 567.813 6217.988 567.813 6217.988 C 567.942 6218.049 568.345 6217.978 568.345 6217.978 L 568.541 6218.23 L 569.002 6218.421 C 569.002 6218.421 569.416 6218.382 569.505 6218.532 C 569.594 6218.679 569.757 6218.941 569.757 6218.941 C 569.757 6218.941 569.94 6219.056 570.058 6219.084 C 570.176 6219.116 570.307 6219.283 570.307 6219.283 L 570.607 6219.424 L 570.795 6219.75 Z  M 571.567 6212.657 C 571.655 6212.804 571.517 6212.924 571.517 6212.924 C 571.517 6212.924 571.377 6212.225 571.459 6212.053 C 571.54 6211.879 571.649 6211.984 571.704 6212.144 C 571.784 6212.368 571.477 6212.509 571.567 6212.657 Z  M 572.917 6215.357 L 572.742 6215.168 L 572.6 6214.971 L 572.811 6214.964 C 572.942 6215.026 573.143 6214.991 573.22 6215.106 C 573.296 6215.223 573.331 6215.317 573.203 6215.36 C 573.078 6215.408 572.917 6215.357 572.917 6215.357 Z  M 573.139 6215.886 C 573.044 6216.024 572.893 6215.9 572.999 6215.792 C 573.103 6215.685 573.271 6215.554 573.365 6215.413 C 573.457 6215.272 573.763 6215.128 573.763 6215.128 C 573.81 6215.254 573.788 6215.297 573.896 6215.402 C 574.005 6215.508 573.975 6215.625 573.975 6215.625 L 573.826 6215.712 L 573.885 6215.872 C 573.885 6215.872 573.93 6215.999 573.823 6216 C 573.715 6216.002 573.522 6215.856 573.522 6215.856 C 573.522 6215.856 573.549 6215.634 573.361 6215.7 C 573.169 6215.77 573.231 6215.745 573.139 6215.886 Z  M 573.104 6214.576 C 573.187 6214.512 573.361 6214.592 573.361 6214.592 C 573.361 6214.592 573.393 6214.688 573.427 6214.784 C 573.461 6214.879 573.667 6215.056 573.486 6215.048 C 573.303 6215.041 573.196 6214.937 573.196 6214.937 C 573.196 6214.937 573.021 6214.643 573.104 6214.576 Z  M 572.083 6214.725 L 572.373 6214.729 C 572.373 6214.729 572.462 6214.982 572.311 6214.964 C 572.163 6214.945 572.083 6214.725 572.083 6214.725 Z  M 572.196 6215.541 C 572.176 6215.691 572.032 6215.886 571.96 6215.983 C 571.886 6216.079 571.78 6216.082 571.78 6216.082 C 571.78 6216.082 572.052 6215.234 572.23 6215.136 C 572.362 6215.063 572.215 6215.393 572.196 6215.541 Z  M 572.213 6214.176 C 572.246 6214.273 572.535 6214.384 572.535 6214.384 L 572.852 6214.272 C 572.852 6214.272 572.878 6214.442 572.75 6214.487 C 572.623 6214.533 572.358 6214.589 572.358 6214.589 C 572.358 6214.589 572.091 6214.541 571.972 6214.407 C 571.852 6214.271 571.85 6214.165 571.857 6213.981 C 571.864 6213.799 571.766 6213.622 571.849 6213.557 C 571.932 6213.493 572.136 6213.456 572.136 6213.456 C 572.243 6213.559 572.308 6213.645 572.226 6213.815 C 572.145 6213.986 572.179 6214.083 572.213 6214.176 Z  M 573.42 6205.999 L 573.469 6206.232 L 573.705 6206.398 L 573.506 6206.541 C 573.506 6206.541 573.253 6206.235 573.21 6206.108 C 573.165 6205.981 573.044 6205.847 573.013 6205.75 C 572.978 6205.655 572.767 6205.265 572.908 6205.252 C 573.101 6205.233 573.094 6205.579 573.211 6205.609 C 573.328 6205.638 573.663 6205.771 573.663 6205.771 L 573.42 6205.999 Z  M 573.659 6207.271 C 573.754 6207.345 574.024 6207.5 574.024 6207.5 L 574.133 6207.709 C 574.133 6207.709 574.223 6207.963 574.27 6208.09 C 574.315 6208.217 574.371 6208.377 574.371 6208.377 C 574.371 6208.377 574.321 6208.538 574.223 6208.571 C 574.13 6208.604 574.005 6208.755 573.922 6208.821 C 573.838 6208.887 573.826 6208.96 573.702 6209.006 C 573.573 6209.051 573.418 6209.215 573.418 6209.215 L 573.143 6209.349 C 573.143 6209.349 573.173 6209.229 572.997 6209.543 C 572.822 6209.853 572.868 6209.981 572.868 6209.981 L 572.817 6210.142 L 572.639 6209.739 C 572.639 6209.739 572.388 6209.435 572.874 6209.193 C 573.361 6208.95 573.386 6208.726 573.459 6208.628 C 573.531 6208.532 573.554 6208.486 573.708 6208.326 C 573.867 6208.162 573.864 6208.056 573.864 6208.056 L 573.749 6207.632 C 573.749 6207.632 573.705 6207.506 573.585 6207.37 C 573.466 6207.232 573.462 6207.126 573.548 6207.063 C 573.631 6206.996 573.67 6206.804 573.67 6206.804 L 573.658 6206.664 C 573.817 6206.715 574.105 6206.721 574.105 6206.721 L 574.266 6206.77 C 574.266 6206.77 574.279 6206.909 574.162 6206.984 C 574.048 6207.063 573.836 6207.171 573.836 6207.171 C 573.836 6207.171 573.56 6207.2 573.659 6207.271 Z  M 573.587 6218.154 C 573.587 6218.154 573.688 6218.441 573.72 6218.535 C 573.754 6218.631 573.727 6218.857 573.588 6218.763 C 573.446 6218.668 573.441 6218.351 573.441 6218.351 L 573.165 6218.376 C 573.165 6218.376 573.18 6218.121 573.211 6218.002 C 573.242 6217.884 573.174 6217.801 573.174 6217.801 L 573.253 6217.417 C 573.253 6217.417 573.452 6217.274 573.549 6217.241 C 573.642 6217.207 573.738 6217.173 573.896 6217.118 C 574.055 6217.063 574.086 6216.942 574.191 6216.834 L 574.132 6217.175 C 574.132 6217.175 573.763 6217.343 573.413 6217.466 C 573.066 6217.59 573.389 6217.796 573.548 6217.739 C 573.705 6217.684 573.992 6217.583 573.992 6217.583 L 573.708 6217.792 C 573.708 6217.792 573.819 6218.002 573.914 6218.076 C 574.012 6218.148 574.325 6218.321 574.325 6218.321 C 574.325 6218.321 574.232 6218.462 574.125 6218.465 C 574.018 6218.467 573.587 6218.154 573.587 6218.154 Z  M 572.659 6218.162 L 572.709 6218.396 C 572.709 6218.396 572.742 6218.599 572.648 6218.631 C 572.553 6218.665 572.435 6218.741 572.299 6218.754 C 572.159 6218.769 571.694 6218.863 571.694 6218.863 L 571.479 6218.759 C 571.479 6218.759 571.415 6218.676 571.23 6218.563 C 571.047 6218.447 570.908 6218.461 570.908 6218.461 C 570.908 6218.461 570.619 6218.243 570.849 6218.089 L 571.08 6217.938 C 571.08 6217.938 571.004 6217.821 571.254 6217.624 C 571.508 6217.428 571.495 6217.396 571.515 6217.249 C 571.535 6217.099 571.593 6216.968 571.667 6216.873 C 571.739 6216.775 571.873 6216.549 571.873 6216.549 L 572.018 6216.354 C 572.128 6216.458 572.118 6216.533 572.299 6216.54 C 572.481 6216.547 572.512 6216.536 572.639 6216.492 C 572.765 6216.445 573.022 6216.463 572.81 6216.572 C 572.6 6216.685 572.487 6216.867 572.487 6216.867 L 572.467 6217.016 C 572.467 6217.016 572.579 6217.227 572.675 6217.299 C 572.773 6217.372 572.956 6217.486 572.956 6217.486 L 572.672 6217.586 L 572.635 6217.886 L 572.745 6218.097 L 572.659 6218.162 Z  M 574.306 6202.648 C 574.463 6202.592 574.848 6202.565 574.848 6202.565 C 574.848 6202.565 574.613 6202.611 574.725 6202.822 C 574.835 6203.034 575.006 6203.114 574.879 6203.161 C 574.752 6203.206 574.576 6203.411 574.576 6203.411 L 574.406 6203.542 C 574.406 6203.542 574.318 6203.895 574.531 6203.891 C 574.743 6203.887 574.755 6203.919 574.788 6204.015 C 574.823 6204.109 574.773 6204.269 574.817 6204.397 C 574.861 6204.523 574.825 6204.93 574.825 6204.93 C 574.825 6204.93 574.406 6204.648 574.266 6204.556 C 574.126 6204.462 573.955 6204.487 574.007 6204.328 C 574.057 6204.167 574.114 6203.824 574.101 6203.686 C 574.089 6203.548 574.078 6203.518 573.844 6203.668 C 573.613 6203.824 573.57 6203.803 573.487 6203.867 C 573.402 6203.934 573.309 6204.072 573.523 6204.07 C 573.736 6204.065 573.579 6204.229 573.389 6204.296 C 573.197 6204.362 573.039 6204.418 572.87 6204.443 C 572.699 6204.468 572.446 6204.559 572.342 6204.666 C 572.237 6204.774 572.254 6205.021 572.147 6205.127 C 572.045 6205.235 571.739 6205.486 572.006 6205.536 C 572.274 6205.584 572.432 6205.526 572.432 6205.526 L 572.632 6205.384 L 572.893 6205.721 C 572.893 6205.721 572.79 6205.831 572.867 6205.945 C 572.942 6206.061 572.872 6206.265 572.874 6206.371 C 572.877 6206.478 572.933 6206.637 572.906 6206.859 C 572.877 6207.084 572.783 6207.225 572.702 6207.396 C 572.618 6207.568 572.546 6207.665 572.378 6207.689 C 572.208 6207.714 572.108 6207.536 572.07 6207.728 C 572.03 6207.919 572.14 6208.024 572.066 6208.124 C 571.993 6208.22 572.133 6208.313 572.006 6208.356 C 571.88 6208.402 571.712 6208.534 571.712 6208.534 C 571.712 6208.534 571.759 6208.767 571.887 6208.829 C 572.015 6208.89 572.147 6209.058 572.147 6209.058 C 572.147 6209.058 572.267 6209.193 572.269 6209.298 C 572.27 6209.408 572.221 6209.567 572.093 6209.613 C 571.967 6209.658 571.873 6209.796 571.873 6209.796 C 571.873 6209.796 571.857 6209.447 571.749 6209.342 C 571.639 6209.236 571.648 6209.057 571.648 6209.057 L 571.402 6209.07 C 571.402 6209.07 571.401 6208.964 571.398 6208.859 C 571.397 6208.752 571.343 6208.7 571.215 6208.745 C 571.088 6208.791 570.994 6208.931 570.922 6209.027 C 570.851 6209.125 570.62 6209.277 570.62 6209.277 C 570.62 6209.277 570.71 6209.03 570.727 6208.881 C 570.747 6208.732 570.777 6208.614 570.66 6208.692 C 570.545 6208.769 570.431 6208.952 570.431 6208.952 C 570.431 6208.952 570.444 6209.089 570.297 6209.178 C 570.149 6209.266 570.21 6209.137 570.149 6209.266 C 570.089 6209.394 570.133 6209.521 570.2 6209.605 C 570.263 6209.689 570.448 6209.91 570.523 6209.812 C 570.595 6209.715 570.76 6209.476 570.76 6209.476 C 570.76 6209.476 570.992 6209.324 571.005 6209.462 C 571.019 6209.603 570.958 6209.729 570.863 6209.765 C 570.765 6209.796 570.611 6210.067 570.611 6210.067 L 570.679 6210.257 C 570.679 6210.257 570.851 6210.338 570.947 6210.411 C 571.046 6210.483 571.1 6210.536 571.1 6210.536 L 571.157 6210.695 L 570.937 6210.986 L 571.215 6210.96 C 571.215 6210.96 571.348 6211.234 571.308 6211.426 C 571.27 6211.62 571.241 6211.842 571.222 6211.993 C 571.203 6212.143 571.115 6212.494 570.99 6212.646 C 570.866 6212.797 570.732 6213.023 570.627 6213.131 C 570.523 6213.241 570.355 6213.372 570.176 6213.472 C 569.996 6213.569 569.732 6213.734 569.732 6213.734 L 569.791 6213.894 C 569.791 6213.894 569.631 6213.95 569.585 6213.822 C 569.539 6213.694 569.379 6213.538 569.295 6213.604 C 569.211 6213.669 569.258 6213.904 569.12 6214.022 C 568.984 6214.143 568.853 6213.976 568.957 6214.368 C 569.062 6214.759 569.147 6214.8 569.306 6214.851 C 569.467 6214.899 569.705 6214.959 569.77 6215.15 C 569.839 6215.341 569.83 6215.521 569.897 6215.605 C 569.961 6215.691 569.989 6215.966 569.989 6215.966 C 569.989 6215.966 569.907 6216.139 569.782 6216.29 C 569.656 6216.44 569.53 6216.484 569.53 6216.484 L 569.42 6216.882 L 569.232 6216.556 L 569.093 6216.463 C 569.093 6216.463 568.912 6216.455 568.847 6216.37 C 568.781 6216.288 568.63 6216.162 568.63 6216.162 C 568.63 6216.162 568.522 6216.165 568.406 6216.134 C 568.287 6216.104 568.2 6215.958 568.2 6215.958 C 568.2 6215.958 568.195 6216.245 568.207 6216.383 C 568.221 6216.521 568.18 6216.607 568.205 6216.777 C 568.229 6216.947 568.315 6216.987 568.423 6217.093 C 568.532 6217.196 568.652 6217.333 568.652 6217.333 C 568.652 6217.333 568.952 6217.37 569.047 6217.442 C 569.145 6217.517 569.361 6217.724 569.428 6217.914 C 569.497 6218.105 569.616 6218.242 569.616 6218.242 L 569.876 6218.472 C 569.876 6218.472 569.397 6218.426 569.213 6218.313 C 569.029 6218.2 568.887 6217.999 568.801 6217.853 C 568.711 6217.704 568.422 6217.592 568.314 6217.487 C 568.205 6217.384 568.137 6217.194 568.091 6217.067 C 568.047 6216.939 567.992 6216.283 567.808 6216.06 C 567.623 6215.84 567.446 6215.545 567.446 6215.545 C 567.446 6215.545 567.31 6215.666 567.218 6215.807 C 567.125 6215.946 566.879 6215.96 566.879 6215.96 C 566.879 6215.96 566.941 6215.726 566.88 6215.459 C 566.822 6215.193 566.743 6214.975 566.743 6214.975 C 566.743 6214.975 566.53 6214.872 566.44 6214.725 C 566.352 6214.576 566.146 6214.398 566.146 6214.398 C 566.146 6214.398 565.957 6214.467 565.788 6214.598 C 565.622 6214.729 565.599 6214.771 565.604 6214.877 C 565.605 6214.984 565.461 6215.284 565.461 6215.284 L 565.318 6215.585 C 565.318 6215.585 565.225 6215.726 565.205 6215.875 C 565.187 6216.024 565.094 6216.165 565.094 6216.165 L 564.905 6216.232 C 564.905 6216.232 564.982 6216.455 565.039 6216.614 C 565.094 6216.772 565.103 6217.199 565.103 6217.199 L 565.022 6217.477 L 565.015 6217.658 C 565.015 6217.658 565.036 6218.114 564.925 6217.903 C 564.816 6217.692 564.259 6216.533 564.159 6216.246 C 564.059 6215.96 563.992 6215.377 563.992 6215.377 L 564.018 6214.939 C 564.018 6214.939 563.896 6215.197 563.766 6215.136 C 563.636 6215.076 563.696 6214.837 563.696 6214.837 C 563.696 6214.837 563.565 6214.67 563.465 6214.493 C 563.366 6214.313 563.321 6214.186 563.321 6214.186 L 563.308 6214.046 C 563.308 6214.046 563.055 6214.138 562.976 6214.021 C 562.921 6213.937 562.703 6213.672 562.624 6213.342 C 562.611 6213.697 562.586 6214.125 562.586 6214.125 L 562.731 6213.931 C 562.731 6213.931 562.933 6214.502 562.936 6214.608 C 562.936 6214.715 562.89 6215.088 562.89 6215.088 C 562.89 6215.088 562.868 6215.524 562.774 6215.666 C 562.681 6215.807 562.747 6215.997 562.747 6215.997 L 562.863 6216.419 C 562.863 6216.419 562.727 6216.54 562.76 6216.636 C 562.795 6216.73 562.883 6216.877 562.883 6216.877 C 562.883 6216.877 563.022 6217.472 563.024 6217.579 C 563.026 6217.684 563.305 6218.372 563.305 6218.372 C 563.305 6218.372 562.434 6216.822 562.45 6214.246 C 562.464 6211.667 563.413 6208.294 566.146 6205.328 C 566.146 6205.328 566.152 6205.646 566.311 6205.59 C 566.469 6205.535 566.671 6205.5 566.743 6205.4 C 566.817 6205.305 566.952 6205.184 566.952 6205.184 L 567.277 6204.891 L 567.533 6204.907 C 567.533 6204.907 567.7 6204.775 567.848 6204.688 C 567.996 6204.601 568.321 6204.414 568.321 6204.414 C 568.321 6204.414 568.459 6204.293 568.807 6204.168 C 569.156 6204.045 569.892 6203.5 569.548 6203.943 C 569.206 6204.384 569.721 6204.024 570.006 6203.923 C 570.291 6203.821 570.507 6203.924 570.507 6203.924 L 571.13 6203.667 C 571.13 6203.667 571.573 6203.402 571.762 6203.336 C 571.954 6203.271 572.561 6203.268 572.561 6203.268 L 573.003 6203.004 C 573.003 6203.004 573.221 6202.818 573.38 6202.764 C 573.541 6202.707 573.74 6202.565 573.856 6202.593 C 573.975 6202.624 574.146 6202.707 574.306 6202.648 Z  M 573.973 6201.909 L 573.67 6202.267 L 573.48 6202.333 L 573.246 6202.382 L 573.283 6202.583 L 573.082 6202.727 C 573.082 6202.727 572.617 6202.928 572.435 6202.918 C 572.256 6202.913 572.01 6202.928 571.164 6203.157 C 570.316 6203.386 570.624 6203.347 570.318 6203.492 C 570.013 6203.636 569.789 6203.713 569.652 6203.728 C 569.512 6203.741 569.306 6203.563 569.306 6203.563 L 569.259 6203.831 C 569.259 6203.831 569.045 6203.728 568.874 6203.647 C 568.701 6203.564 568.457 6203.686 568.077 6203.82 C 568.508 6203.524 569.571 6202.898 571 6202.393 C 572.428 6201.887 573.973 6201.909 573.973 6201.909 Z  M 562.362 6218.571 C 562.964 6220.234 563.896 6221.741 565.078 6223.011 C 564.154 6223.313 562.194 6223.891 560.996 6223.806 L 560.785 6223.441 L 562.277 6221.414 L 562.203 6220.801 L 559.944 6221.854 L 559.792 6221.528 C 559.792 6221.528 560.191 6220.53 562.362 6218.571 Z  M 559.638 6222.752 L 560.871 6222.16 L 559.981 6223.414 L 560.155 6223.72 C 560.155 6223.72 559.599 6223.652 559.369 6223.174 L 558.737 6223.395 C 558.737 6223.395 559.082 6224.428 560.545 6224.474 L 560.681 6224.705 L 559.322 6224.34 L 558.49 6225.479 L 558.691 6224.141 L 557.378 6223.786 L 558.824 6223.119 L 559.053 6221.643 L 559.638 6222.752 Z  M 565.287 6217.918 C 565.285 6217.812 565.325 6217.621 565.325 6217.621 C 565.421 6217.692 565.542 6217.828 565.575 6217.923 C 565.609 6218.019 565.696 6218.167 565.622 6218.265 C 565.55 6218.36 565.501 6218.521 565.423 6218.405 C 565.348 6218.29 565.288 6218.024 565.287 6217.918 Z  M 581.527 6215.771 C 581.369 6215.826 581.28 6215.68 581.28 6215.68 L 581.32 6215.486 C 581.384 6215.569 581.685 6215.712 581.527 6215.771 Z  M 574.118 6222.075 C 574.118 6222.075 574.326 6221.856 574.485 6221.801 C 574.646 6221.746 574.771 6221.701 575.003 6221.546 C 575.235 6221.395 575.249 6221.032 575.204 6220.905 C 575.158 6220.775 575.273 6220.7 575.273 6220.7 L 575.477 6220.771 L 575.439 6220.463 L 575.405 6220.262 C 575.405 6220.262 575.593 6220.087 575.666 6219.991 C 575.738 6219.895 575.854 6219.921 576.017 6219.973 C 576.178 6220.022 576.527 6219.899 576.527 6219.899 C 576.527 6219.899 576.47 6219.742 576.445 6219.572 C 576.42 6219.401 576.642 6219.215 576.642 6219.215 C 576.642 6219.215 576.416 6219.188 576.522 6219.081 C 576.627 6218.971 577.011 6219.049 577.011 6219.049 C 577.011 6219.049 577.221 6218.938 577.399 6218.839 C 577.581 6218.741 577.664 6218.673 577.78 6218.704 C 577.899 6218.733 577.806 6218.875 577.755 6219.035 C 577.705 6219.195 577.731 6219.367 577.848 6219.396 C 577.967 6219.423 578.457 6219.501 578.551 6219.467 C 578.647 6219.434 578.772 6219.389 578.932 6219.333 C 579.091 6219.275 579.057 6219.075 579.022 6218.98 C 578.989 6218.884 578.955 6218.789 578.916 6218.479 C 578.879 6218.172 578.625 6218.144 578.79 6218.024 C 578.99 6217.882 579.386 6218.494 579.512 6218.447 C 579.64 6218.402 579.626 6218.266 579.626 6218.266 L 579.793 6218.634 L 580.031 6218.799 L 580.247 6219.009 C 580.247 6219.009 580.397 6219.028 580.804 6219.169 C 581.21 6219.311 581.785 6219.82 581.894 6220.033 C 582.005 6220.242 581.814 6220.812 581.721 6220.952 C 581.628 6221.092 581.499 6221.53 581.45 6221.797 C 581.401 6222.064 581.086 6222.285 581.086 6222.285 C 581.086 6222.285 580.926 6222.34 580.821 6222.341 C 580.715 6222.345 580.58 6222.57 580.496 6222.637 C 580.412 6222.702 580.254 6222.757 580.084 6222.782 C 579.914 6222.807 579.844 6222.616 579.686 6222.565 C 579.524 6222.516 579.472 6222.464 579.472 6222.464 L 579.402 6222.166 C 579.402 6222.166 579.268 6222.5 579.028 6222.728 C 578.79 6222.956 578.824 6222.55 578.824 6222.55 L 578.565 6222.426 C 578.565 6222.426 578.298 6222.379 578.17 6222.424 C 578.044 6222.47 577.813 6222.622 577.698 6222.699 C 577.581 6222.774 577.581 6222.774 577.244 6222.933 C 576.905 6223.088 577.053 6222.999 577.003 6223.161 C 576.954 6223.32 576.647 6223.463 576.647 6223.463 L 576.437 6223.575 C 576.224 6223.685 576.351 6223.64 576.1 6223.837 C 575.848 6224.035 575.573 6224.06 575.573 6224.06 L 575.343 6223.818 L 575.254 6223.564 L 575.083 6223.482 C 575.083 6223.482 574.983 6223.303 574.63 6223.215 C 574.276 6223.125 574.082 6222.874 574.082 6222.874 L 574.499 6223.045 L 574.399 6222.868 L 574.127 6222.607 C 574.127 6222.607 574.009 6222.471 573.94 6222.28 C 573.872 6222.089 574.118 6222.075 574.118 6222.075 Z  M 580.67 6222.825 C 580.775 6222.714 581.237 6222.408 581.24 6222.515 C 581.241 6222.621 581.076 6222.858 581.076 6222.858 L 580.908 6223.097 L 580.67 6222.825 Z  M 582.033 6215.783 C 581.875 6215.838 581.788 6215.691 581.788 6215.691 L 581.826 6215.5 C 581.891 6215.582 582.191 6215.728 582.033 6215.783 Z  M 582.153 6215.918 L 582.191 6215.728 C 582.257 6215.811 582.559 6215.954 582.399 6216.009 C 582.243 6216.067 582.153 6215.918 582.153 6215.918 Z  M 583.491 6217.681 C 583.491 6217.681 583.449 6217.767 583.555 6217.765 L 583.663 6217.763 C 583.663 6217.763 583.686 6217.934 583.592 6217.967 C 583.498 6218 583.206 6217.783 583.491 6217.681 Z  M 583.667 6216.561 C 583.509 6216.618 583.421 6216.472 583.421 6216.472 L 583.459 6216.278 C 583.524 6216.361 583.826 6216.504 583.667 6216.561 Z  M 583.491 6221.717 C 583.702 6221.5 583.833 6221.167 583.906 6221.069 C 583.979 6220.973 584.379 6220.688 584.379 6220.688 C 584.286 6220.936 584.11 6221.142 584.11 6221.142 C 584.11 6221.142 584.029 6221.313 583.935 6221.452 C 583.842 6221.592 583.939 6221.666 583.771 6221.797 C 583.602 6221.928 583.285 6221.934 583.491 6221.717 Z  M 584.494 6220.005 C 584.523 6219.886 584.509 6219.749 584.509 6219.749 L 584.713 6219.819 C 584.713 6219.819 584.847 6219.593 584.93 6219.528 C 585.015 6219.462 585.116 6219.643 585.116 6219.643 C 585.116 6219.643 584.917 6219.891 584.865 6220.051 C 584.815 6220.211 584.723 6220.353 584.66 6220.48 L 584.488 6220.292 C 584.488 6220.292 584.463 6220.123 584.494 6220.005 Z  M 585.138 6215.775 C 585.081 6215.617 585.29 6215.399 585.29 6215.399 L 585.442 6215.524 C 585.36 6215.696 585.195 6215.934 585.138 6215.775 Z  M 584.955 6216.269 L 585.025 6216.066 C 585.122 6216.139 585.411 6216.143 585.254 6216.306 C 585.097 6216.468 584.955 6216.269 584.955 6216.269 Z  M 587.171 6210.642 C 591.293 6206.655 590.006 6205.148 590.006 6205.148 C 588.806 6202.778 585.025 6204.015 583.519 6204.625 C 581.19 6202.446 578.064 6201.11 574.621 6201.11 C 567.426 6201.11 561.591 6206.944 561.591 6214.142 C 561.591 6215.447 561.784 6216.708 562.142 6217.896 C 561.545 6218.402 560.264 6219.555 559.407 6220.783 L 559.007 6220.074 L 558.548 6220.304 L 558.202 6222.638 L 556.059 6223.652 L 556.059 6224.13 L 557.915 6224.647 L 557.552 6226.962 L 558.03 6227.23 L 559.58 6225.106 L 561.493 6225.624 L 561.723 6225.203 L 561.359 6224.514 C 561.359 6224.514 563.489 6224.318 565.62 6223.562 C 567.96 6225.797 571.128 6227.173 574.621 6227.173 C 581.819 6227.173 587.653 6221.339 587.653 6214.142 C 587.653 6212.93 587.483 6211.756 587.171 6210.642 Z  M 596.863 6228.687 C 596.823 6229.19 596.493 6229.744 596.144 6230.099 C 594.874 6231.397 592.43 6230.216 591.442 6229.248 C 590.483 6228.311 589.38 6226.687 590.576 6225.465 C 591.286 6224.741 592.292 6224.547 593.258 6224.765 L 596.348 6227.79 C 596.658 6228.091 596.888 6228.227 596.863 6228.687 Z  M 600.323 6226.449 C 599.828 6225.962 599.48 6227.648 598.199 6226.394 L 588.804 6217.201 C 588.557 6216.958 588.419 6216.762 588.251 6216.932 C 588.146 6217.04 588.132 6217.175 588.102 6217.299 C 587.563 6219.613 586.513 6220.19 586.932 6220.6 C 587.472 6221.128 587.805 6219.426 588.947 6220.545 L 592.054 6223.586 C 591.471 6223.592 590.686 6224.211 590.292 6224.613 C 588.718 6226.22 588.958 6228.664 590.14 6230.423 C 591.413 6232.369 594.262 6234.155 596.333 6232.039 C 597.225 6231.127 597.473 6230.04 597.447 6228.862 C 598.232 6229.633 598.465 6229.86 598.664 6229.66 C 598.739 6229.583 598.888 6229.276 599.096 6228.846 C 599.607 6227.799 600.634 6226.749 600.323 6226.449 Z " fill="rgb(255,255,255)"/></g></g></svg>