<?xml version="1.0" encoding="UTF-8" standalone="no"?><!-- Generator: Gravit.io --><svg xmlns="http://www.w3.org/2000/svg" xmlns:xlink="http://www.w3.org/1999/xlink" style="isolation:isolate" viewBox="519.796 5879.437 47.961 47.963" width="47.961pt" height="47.963pt"><path d=" M 550.873 5893.545 L 547.525 5893.545 C 546.339 5893.545 546.093 5894.028 546.093 5895.254 L 546.093 5898.211 L 550.873 5898.211 L 550.414 5903.402 L 546.093 5903.402 L 546.093 5918.912 L 539.901 5918.912 L 539.901 5903.469 L 536.678 5903.469 L 536.678 5898.211 L 539.901 5898.211 L 539.901 5894.071 C 539.901 5890.184 541.977 5888.154 546.588 5888.154 L 550.873 5888.154 L 550.873 5893.545 Z  M 543.775 5879.437 C 530.532 5879.437 519.796 5890.172 519.796 5903.416 C 519.796 5916.662 530.532 5927.4 543.775 5927.4 C 557.022 5927.4 567.757 5916.662 567.757 5903.416 C 567.757 5890.172 557.022 5879.437 543.775 5879.437 Z " fill="rgb(182,184,186)"/></svg>