<?xml version="1.0" encoding="UTF-8" standalone="no"?><!-- Generator: Gravit.io --><svg xmlns="http://www.w3.org/2000/svg" xmlns:xlink="http://www.w3.org/1999/xlink" style="isolation:isolate" viewBox="718.913 5879.437 47.966 47.961" width="47.966pt" height="47.961pt"><path d=" M 743.284 5897.077 L 743.284 5893.485 C 743.284 5892.695 743.045 5892.302 742.545 5892.302 C 742.045 5892.302 741.806 5892.695 741.806 5893.485 L 741.806 5897.077 C 741.806 5897.869 742.045 5898.265 742.545 5898.265 C 743.045 5898.265 743.284 5897.869 743.284 5897.077 Z  M 735.622 5905.652 L 737.456 5905.652 L 737.456 5904.054 L 732.116 5904.054 L 732.116 5905.652 L 733.919 5905.652 L 733.919 5915.395 L 735.622 5915.395 L 735.622 5905.652 Z  M 740.549 5915.395 L 742.081 5915.395 L 742.081 5906.946 L 740.549 5906.946 L 740.549 5913.404 C 740.211 5913.881 739.89 5914.12 739.581 5914.12 C 739.378 5914.12 739.262 5913.997 739.221 5913.761 C 739.209 5913.713 739.209 5913.524 739.209 5913.165 L 739.209 5906.946 L 737.678 5906.946 L 737.678 5913.628 C 737.678 5914.224 737.729 5914.625 737.813 5914.883 C 737.966 5915.311 738.308 5915.511 738.798 5915.511 C 739.363 5915.511 739.94 5915.173 740.549 5914.473 L 740.549 5915.395 Z  M 746.369 5912.98 C 746.369 5913.744 746.144 5914.12 745.7 5914.12 C 745.449 5914.12 745.193 5913.997 744.937 5913.744 L 744.937 5908.592 C 745.193 5908.341 745.449 5908.22 745.7 5908.22 C 746.144 5908.22 746.369 5908.612 746.369 5909.372 L 746.369 5912.98 Z  M 747.743 5914.562 C 747.846 5914.202 747.9 5913.643 747.9 5912.86 L 747.9 5909.495 C 747.9 5908.696 747.846 5908.134 747.743 5907.796 C 747.54 5907.163 747.129 5906.842 746.519 5906.842 C 745.959 5906.842 745.435 5907.151 744.937 5907.759 L 744.937 5904.054 L 743.407 5904.054 L 743.407 5915.395 L 744.937 5915.395 L 744.937 5914.577 C 745.449 5915.208 745.975 5915.511 746.519 5915.511 C 747.129 5915.511 747.54 5915.192 747.743 5914.562 Z  M 750.615 5910.173 L 750.615 5909.394 C 750.615 5908.612 750.874 5908.22 751.386 5908.22 C 751.888 5908.22 752.146 5908.612 752.146 5909.394 L 752.146 5910.173 L 750.615 5910.173 Z  M 753.645 5913.679 C 753.659 5913.524 753.679 5913.184 753.679 5912.691 L 753.679 5912.469 L 752.114 5912.469 C 752.114 5913.084 752.095 5913.423 752.081 5913.505 C 751.992 5913.915 751.772 5914.12 751.398 5914.12 C 750.874 5914.12 750.615 5913.729 750.615 5912.947 L 750.615 5911.45 L 753.679 5911.45 L 753.679 5909.7 C 753.679 5908.797 753.522 5908.134 753.204 5907.708 C 752.774 5907.129 752.165 5906.842 751.398 5906.842 C 750.615 5906.842 750.005 5907.129 749.563 5907.708 C 749.237 5908.134 749.09 5908.797 749.09 5909.7 L 749.09 5912.66 C 749.09 5913.556 749.256 5914.224 749.582 5914.646 C 750.024 5915.224 750.632 5915.511 751.436 5915.511 C 752.235 5915.511 752.863 5915.208 753.288 5914.596 C 753.472 5914.326 753.592 5914.019 753.645 5913.679 Z  M 755.564 5909.915 C 755.564 5911.89 755.562 5913.985 755.12 5915.905 C 754.811 5917.249 753.71 5918.244 752.382 5918.393 C 749.242 5918.741 746.06 5918.744 742.895 5918.741 C 739.73 5918.744 736.549 5918.741 733.408 5918.393 C 732.082 5918.244 730.979 5917.249 730.67 5915.905 C 730.228 5913.985 730.228 5911.89 730.228 5909.915 C 730.228 5907.938 730.233 5905.845 730.678 5903.926 C 730.987 5902.579 732.087 5901.583 733.413 5901.434 C 736.556 5901.083 739.735 5901.083 742.9 5901.083 C 746.065 5901.083 749.247 5901.083 752.387 5901.434 C 753.715 5901.583 754.816 5902.579 755.127 5903.926 C 755.567 5905.845 755.564 5907.938 755.564 5909.915 Z  M 750.555 5899.551 L 749.005 5899.551 L 749.005 5898.62 C 748.387 5899.327 747.803 5899.67 747.238 5899.67 C 746.738 5899.67 746.396 5899.464 746.243 5899.032 C 746.157 5898.776 746.103 5898.366 746.103 5897.765 L 746.103 5891.013 L 747.646 5891.013 L 747.646 5897.297 C 747.646 5897.661 747.646 5897.852 747.665 5897.9 C 747.699 5898.139 747.82 5898.265 748.028 5898.265 C 748.336 5898.265 748.663 5898.022 749.005 5897.541 L 749.005 5891.013 L 750.555 5891.013 L 750.555 5899.551 Z  M 744.831 5896.785 C 744.831 5897.695 744.675 5898.366 744.348 5898.796 C 743.921 5899.375 743.32 5899.67 742.545 5899.67 C 741.772 5899.67 741.169 5899.375 740.742 5898.796 C 740.413 5898.366 740.257 5897.695 740.257 5896.785 L 740.257 5893.793 C 740.257 5892.881 740.413 5892.217 740.742 5891.785 C 741.169 5891.201 741.772 5890.909 742.545 5890.909 C 743.32 5890.909 743.921 5891.201 744.348 5891.785 C 744.675 5892.217 744.831 5892.881 744.831 5893.793 L 744.831 5896.785 Z  M 740.244 5888.092 L 738.18 5894.909 L 738.18 5899.551 L 736.464 5899.551 L 736.464 5894.909 C 736.31 5894.086 735.967 5892.881 735.414 5891.285 C 735.054 5890.223 734.675 5889.154 734.315 5888.092 L 736.121 5888.092 L 737.338 5892.594 L 738.511 5888.092 L 740.244 5888.092 Z  M 766.879 5903.418 C 766.879 5890.173 756.144 5879.437 742.898 5879.437 C 729.654 5879.437 718.913 5890.173 718.913 5903.418 C 718.913 5916.662 729.654 5927.397 742.898 5927.397 C 756.144 5927.397 766.879 5916.662 766.879 5903.418 Z " fill="rgb(182,184,186)"/></svg>